{
copyright = "Copyright 2014 Droid Devanagari";
customParameters = (
{
name = glyphOrder;
value = (
    ".notdef",
    uni0000,
    uni000D,
    space,
    exclam,
    quotedbl,
    numbersign,
    dollar,
    percent,
    ampersand,
    quotesingle,
    parenleft,
    parenright,
    asterisk,
    plus,
    comma,
    hyphen,
    period,
    slash,
    zero,
    one,
    two,
    three,
    four,
    five,
    six,
    seven,
    eight,
    nine,
    colon,
    semicolon,
    less,
    equal,
    greater,
    question,
    at,
    bracketleft,
    backslash,
    bracketright,
    asciicircum,
    underscore,
    grave,
    braceleft,
    bar,
    braceright,
    asciitilde,
    cent,
    multiply,
    divide,
    apostrophe,
    candrabinduinverteddeva,
    candrabindudeva,
    anusvaradeva,
    visargadeva,
    ashortdeva,
    adeva,
    aadeva,
    ideva,
    iideva,
    udeva,
    uudeva,
    rvocalicdeva,
    lvocalicdeva,
    ecandradeva,
    eshortdeva,
    edeva,
    aideva,
    ocandradeva,
    oshortdeva,
    odeva,
    audeva,
    kadeva,
    khadeva,
    gadeva,
    ghadeva,
    ngadeva,
    cadeva,
    chadeva,
    jadeva,
    jhadeva,
    nyadeva,
    ttadeva,
    tthadeva,
    ddadeva,
    ddhadeva,
    nnadeva,
    tadeva,
    thadeva,
    dadeva,
    dhadeva,
    nadeva,
    nnnadeva,
    padeva,
    phadeva,
    badeva,
    bhadeva,
    madeva,
    yadeva,
    radeva,
    rradeva,
    ladeva,
    lladeva,
    llladeva,
    vadeva,
    shadeva,
    ssadeva,
    sadeva,
    hadeva,
    oesigndeva,
    ooesigndeva,
    nuktadeva,
    avagrahadeva,
    aasigndeva,
    isigndeva,
    iisigndeva,
    usigndeva,
    uusigndeva,
    rvocalicsigndeva,
    rrvocalicsigndeva,
    ecandrasigndeva,
    eshortsigndeva,
    esigndeva,
    aisigndeva,
    ocandrasigndeva,
    oshortsigndeva,
    osigndeva,
    ausigndeva,
    viramadeva,
    eprishthamatrasigndeva,
    awsigndeva,
    omdeva,
    udattadeva,
    anudattadeva,
    gravedeva,
    acutedeva,

glyphs = (
{
glyphname = .notdef;
lastChange = "2014-07-14 21:47:37 +0530";
layers = (
{
layerId = "7D009F26-9523-4D0C-936A-45D9328E47A0";
name = Regular;
paths = (
{
closed = 1;
nodes = (
"200 67 LINE",
"866 67 LINE",
"866 866 LINE",
"200 866 LINE"
);
},
{
closed = 1;
nodes = (
"133 0 LINE",
"133 932 LINE",
"932 932 LINE",
"932 0 LINE"
);
}
);
width = 1065;
},
{
layerId = "29AE4022-23C2-49D3-A156-B9EDF5C2AEE5";
name = Bold;
width = 600;
}
);
},
{
glyphname = exclam;
lastChange = "2014-07-27 09:27:35 +0530";
layers = (
{
layerId = "7D009F26-9523-4D0C-936A-45D9328E47A0";
name = Regular;
paths = (
{
closed = 1;
nodes = (
"221 1462 LINE",
"459 1462 LINE",
"387 412 LINE",
"293 412 LINE"
);
},
{
closed = 1;
nodes = (
"211 178 OFFCURVE",
"225 213 OFFCURVE",
"249 234 CURVE SMOOTH",
"272 255 OFFCURVE",
"304 264 OFFCURVE",
"340 264 CURVE SMOOTH",
"375 264 OFFCURVE",
"407 255 OFFCURVE",
"431 234 CURVE SMOOTH",
"454 213 OFFCURVE",
"469 178 OFFCURVE",
"469 125 CURVE SMOOTH",
"469 73 OFFCURVE",
"454 37 OFFCURVE",
"431 16 CURVE SMOOTH",
"407 -5 OFFCURVE",
"375 -14 OFFCURVE",
"340 -14 CURVE SMOOTH",
"304 -14 OFFCURVE",
"272 -5 OFFCURVE",
"249 16 CURVE SMOOTH",
"225 37 OFFCURVE",
"211 73 OFFCURVE",
"211 125 CURVE SMOOTH"
);
}
);
width = 682;
},
{
layerId = "29AE4022-23C2-49D3-A156-B9EDF5C2AEE5";
name = Bold;
paths = (
{
closed = 1;
nodes = (
"213 1462 LINE",
"569 1462 LINE",
"449 467 LINE",
"334 467 LINE"
);
},
{
closed = 1;
nodes = (
"225 210 OFFCURVE",
"244 251 OFFCURVE",
"274 276 CURVE SMOOTH",
"304 301 OFFCURVE",
"346 311 OFFCURVE",
"393 311 CURVE SMOOTH",
"438 311 OFFCURVE",
"480 301 OFFCURVE",
"511 276 CURVE SMOOTH",
"542 251 OFFCURVE",
"561 210 OFFCURVE",
"561 147 CURVE SMOOTH",
"561 86 OFFCURVE",
"542 45 OFFCURVE",
"511 20 CURVE SMOOTH",
"480 -5 OFFCURVE",
"438 -16 OFFCURVE",
"393 -16 CURVE SMOOTH",
"346 -16 OFFCURVE",
"304 -5 OFFCURVE",
"274 20 CURVE SMOOTH",
"244 45 OFFCURVE",
"225 86 OFFCURVE",
"225 147 CURVE SMOOTH"
);
}
);
width = 782;
}
);
unicode = 0021;
},
{
glyphname = quotedbl;
lastChange = "2014-07-27 09:28:18 +0530";
layers = (
{
layerId = "7D009F26-9523-4D0C-936A-45D9328E47A0";
name = Regular;
paths = (
{
closed = 1;
nodes = (
"502 1462 LINE",
"719 1462 LINE",
"657 981 LINE",
"563 981 LINE"
);
},
{
closed = 1;
nodes = (
"117 1462 LINE",
"334 1462 LINE",
"272 981 LINE",
"178 981 LINE"
);
}
);
width = 836;
},
{
layerId = "29AE4022-23C2-49D3-A156-B9EDF5C2AEE5";
name = Bold;
paths = (
{
closed = 1;
nodes = (
"584 1462 LINE",
"903 1462 LINE",
"831 899 LINE",
"696 899 LINE"
);
},
{
closed = 1;
nodes = (
"137 1462 LINE",
"457 1462 LINE",
"365 899 LINE",
"229 899 LINE"
);
}
);
width = 1040;
}
);
unicode = 0022;
},
{
glyphname = numbersign;
lastChange = "2014-07-27 09:28:38 +0530";
layers = (
{
layerId = "7D009F26-9523-4D0C-936A-45D9328E47A0";
name = Regular;
paths = (
{
closed = 1;
nodes = (
"397 537 LINE",
"682 537 LINE",
"758 938 LINE",
"473 938 LINE"
);
},
{
closed = 1;
nodes = (
"1038 537 LINE",
"1038 416 LINE",
"780 416 LINE",
"702 0 LINE",
"580 0 LINE",
"657 416 LINE",
"373 416 LINE",
"295 0 LINE",
"172 0 LINE",
"250 416 LINE",
"82 416 LINE",
"82 537 LINE",
"272 537 LINE",
"350 938 LINE",
"106 938 LINE",
"106 1059 LINE",
"373 1059 LINE",
"446 1462 LINE",
"571 1462 LINE",
"496 1059 LINE",
"780 1059 LINE",
"856 1462 LINE",
"979 1462 LINE",
"903 1059 LINE",
"1063 1059 LINE",
"1063 938 LINE",
"881 938 LINE",
"805 537 LINE"
);
}
);
width = 1145;
},
{
layerId = "29AE4022-23C2-49D3-A156-B9EDF5C2AEE5";
name = Bold;
paths = (
{
closed = 1;
nodes = (
"1022 551 LINE",
"1022 410 LINE",
"766 410 LINE",
"690 0 LINE",
"545 0 LINE",
"621 410 LINE",
"408 410 LINE",
"330 0 LINE",
"184 0 LINE",
"262 410 LINE",
"57 410 LINE",
"57 551 LINE",
"289 551 LINE",
"360 922 LINE",
"123 922 LINE",
"123 1065 LINE",
"387 1065 LINE",
"459 1462 LINE",
"606 1462 LINE",
"532 1065 LINE",
"745 1065 LINE",
"821 1462 LINE",
"967 1462 LINE",
"891 1065 LINE",
"1087 1065 LINE",
"1087 922 LINE",
"864 922 LINE",
"795 551 LINE"
);
},
{
closed = 1;
nodes = (
"434 551 LINE",
"649 551 LINE",
"721 922 LINE",
"506 922 LINE"
);
}
);
width = 1145;
}
);
unicode = 0023;
},
{
glyphname = dollar;
lastChange = "2014-07-27 09:28:58 +0530";
layers = (
{
layerId = "7D009F26-9523-4D0C-936A-45D9328E47A0";
name = Regular;
paths = (
{
closed = 1;
nodes = (
"621 1401 LINE",
"744 1398 OFFCURVE",
"828 1372 OFFCURVE",
"883 1332 CURVE SMOOTH",
"938 1291 OFFCURVE",
"961 1235 OFFCURVE",
"961 1171 CURVE SMOOTH",
"961 1083 OFFCURVE",
"898 1038 OFFCURVE",
"799 1038 CURVE",
"799 1098 OFFCURVE",
"791 1162 OFFCURVE",
"765 1212 CURVE SMOOTH",
"739 1262 OFFCURVE",
"693 1299 OFFCURVE",
"621 1307 CURVE",
"621 829 LINE",
"744 776 OFFCURVE",
"839 725 OFFCURVE",
"903 663 CURVE SMOOTH",
"967 601 OFFCURVE",
"1001 527 OFFCURVE",
"1001 430 CURVE SMOOTH",
"1001 225 OFFCURVE",
"864 111 OFFCURVE",
"621 86 CURVE",
"621 -162 LINE",
"518 -162 LINE",
"518 82 LINE",
"450 82 OFFCURVE",
"380 88 OFFCURVE",
"314 102 CURVE SMOOTH",
"248 116 OFFCURVE",
"186 137 OFFCURVE",
"135 166 CURVE",
"135 481 LINE",
"221 481 LINE",
"221 405 OFFCURVE",
"251 331 OFFCURVE",
"304 275 CURVE SMOOTH",
"356 218 OFFCURVE",
"430 179 OFFCURVE",
"518 172 CURVE",
"518 678 LINE",
"390 735 OFFCURVE",
"303 790 OFFCURVE",
"248 852 CURVE SMOOTH",
"193 914 OFFCURVE",
"170 984 OFFCURVE",
"170 1073 CURVE SMOOTH",
"170 1165 OFFCURVE",
"204 1240 OFFCURVE",
"264 1296 CURVE SMOOTH",
"324 1351 OFFCURVE",
"411 1385 OFFCURVE",
"518 1397 CURVE",
"518 1556 LINE",
"621 1556 LINE"
);
},
{
closed = 1;
nodes = (
"813 454 OFFCURVE",
"801 496 OFFCURVE",
"770 533 CURVE SMOOTH",
"739 570 OFFCURVE",
"692 601 OFFCURVE",
"621 633 CURVE",
"621 178 LINE",
"744 199 OFFCURVE",
"813 282 OFFCURVE",
"813 399 CURVE SMOOTH"
);
},
{
closed = 1;
nodes = (
"354 1033 OFFCURVE",
"368 990 OFFCURVE",
"396 957 CURVE SMOOTH",
"424 924 OFFCURVE",
"465 898 OFFCURVE",
"518 874 CURVE",
"518 1303 LINE",
"465 1291 OFFCURVE",
"423 1264 OFFCURVE",
"396 1228 CURVE SMOOTH",
"368 1191 OFFCURVE",
"354 1143 OFFCURVE",
"354 1090 CURVE SMOOTH"
);
}
);
width = 1145;
},
{
layerId = "29AE4022-23C2-49D3-A156-B9EDF5C2AEE5";
name = Bold;
paths = (
{
closed = 1;
nodes = (
"639 1556 LINE",
"639 1401 LINE",
"760 1397 OFFCURVE",
"848 1373 OFFCURVE",
"905 1337 CURVE SMOOTH",
"962 1300 OFFCURVE",
"989 1251 OFFCURVE",
"989 1196 CURVE SMOOTH",
"989 1109 OFFCURVE",
"915 1047 OFFCURVE",
"764 1047 CURVE",
"764 1087 OFFCURVE",
"755 1136 OFFCURVE",
"735 1180 CURVE SMOOTH",
"715 1223 OFFCURVE",
"684 1260 OFFCURVE",
"639 1280 CURVE",
"639 881 LINE",
"643 879 OFFCURVE",
"651 876 OFFCURVE",
"662 872 CURVE",
"673 867 OFFCURVE",
"683 863 OFFCURVE",
"690 860 CURVE SMOOTH",
"815 811 OFFCURVE",
"904 760 OFFCURVE",
"961 699 CURVE SMOOTH",
"1017 638 OFFCURVE",
"1042 568 OFFCURVE",
"1042 481 CURVE SMOOTH",
"1042 377 OFFCURVE",
"1004 287 OFFCURVE",
"936 219 CURVE SMOOTH",
"867 151 OFFCURVE",
"766 107 OFFCURVE",
"639 92 CURVE",
"639 -162 LINE",
"524 -162 LINE",
"524 88 LINE",
"368 92 OFFCURVE",
"262 131 OFFCURVE",
"195 186 CURVE SMOOTH",
"127 241 OFFCURVE",
"100 311 OFFCURVE",
"100 375 CURVE SMOOTH",
"100 435 OFFCURVE",
"124 476 OFFCURVE",
"160 502 CURVE SMOOTH",
"196 528 OFFCURVE",
"244 539 OFFCURVE",
"293 539 CURVE",
"293 436 OFFCURVE",
"316 356 OFFCURVE",
"357 300 CURVE SMOOTH",
"397 243 OFFCURVE",
"455 208 OFFCURVE",
"524 197 CURVE",
"524 639 LINE",
"489 653 LINE SMOOTH",
"358 706 OFFCURVE",
"274 760 OFFCURVE",
"220 822 CURVE SMOOTH",
"166 884 OFFCURVE",
"145 954 OFFCURVE",
"145 1042 CURVE SMOOTH",
"145 1141 OFFCURVE",
"184 1224 OFFCURVE",
"251 1285 CURVE SMOOTH",
"318 1346 OFFCURVE",
"412 1387 OFFCURVE",
"524 1399 CURVE",
"524 1556 LINE"
);
},
{
closed = 1;
nodes = (
"799 476 OFFCURVE",
"746 532 OFFCURVE",
"639 588 CURVE",
"639 201 LINE",
"742 224 OFFCURVE",
"799 297 OFFCURVE",
"799 389 CURVE SMOOTH"
);
},
{
closed = 1;
nodes = (
"385 1092 OFFCURVE",
"392 1059 OFFCURVE",
"413 1028 CURVE SMOOTH",
"434 996 OFFCURVE",
"469 967 OFFCURVE",
"524 936 CURVE",
"524 1290 LINE",
"444 1275 OFFCURVE",
"385 1221 OFFCURVE",
"385 1128 CURVE SMOOTH"
);
}
);
width = 1145;
}
);
unicode = 0024;
},
{
glyphname = percent;
lastChange = "2014-07-27 09:29:19 +0530";
layers = (
{
layerId = "7D009F26-9523-4D0C-936A-45D9328E47A0";
name = Regular;
paths = (
{
closed = 1;
nodes = (
"764 893 OFFCURVE",
"736 779 OFFCURVE",
"680 699 CURVE SMOOTH",
"624 619 OFFCURVE",
"540 573 OFFCURVE",
"428 573 CURVE SMOOTH",
"311 573 OFFCURVE",
"227 619 OFFCURVE",
"172 699 CURVE SMOOTH",
"117 779 OFFCURVE",
"92 893 OFFCURVE",
"92 1030 CURVE SMOOTH",
"92 1167 OFFCURVE",
"117 1280 OFFCURVE",
"172 1360 CURVE SMOOTH",
"227 1439 OFFCURVE",
"311 1483 OFFCURVE",
"430 1483 CURVE SMOOTH",
"542 1483 OFFCURVE",
"625 1439 OFFCURVE",
"681 1360 CURVE SMOOTH",
"736 1280 OFFCURVE",
"764 1167 OFFCURVE",
"764 1030 CURVE SMOOTH"
);
},
{
closed = 1;
nodes = (
"276 913 OFFCURVE",
"286 819 OFFCURVE",
"310 755 CURVE SMOOTH",
"334 691 OFFCURVE",
"372 657 OFFCURVE",
"428 657 CURVE SMOOTH",
"484 657 OFFCURVE",
"522 691 OFFCURVE",
"546 755 CURVE SMOOTH",
"569 819 OFFCURVE",
"578 913 OFFCURVE",
"578 1030 CURVE SMOOTH",
"578 1146 OFFCURVE",
"569 1237 OFFCURVE",
"546 1301 CURVE SMOOTH",
"522 1364 OFFCURVE",
"486 1397 OFFCURVE",
"430 1397 CURVE SMOOTH",
"374 1397 OFFCURVE",
"335 1364 OFFCURVE",
"311 1301 CURVE SMOOTH",
"286 1237 OFFCURVE",
"276 1146 OFFCURVE",
"276 1030 CURVE SMOOTH"
);
},
{
closed = 1;
nodes = (
"1743 299 OFFCURVE",
"1715 185 OFFCURVE",
"1659 105 CURVE SMOOTH",
"1603 25 OFFCURVE",
"1519 -20 OFFCURVE",
"1407 -20 CURVE SMOOTH",
"1290 -20 OFFCURVE",
"1205 25 OFFCURVE",
"1151 105 CURVE SMOOTH",
"1097 185 OFFCURVE",
"1071 299 OFFCURVE",
"1071 436 CURVE SMOOTH",
"1071 573 OFFCURVE",
"1096 686 OFFCURVE",
"1151 766 CURVE SMOOTH",
"1206 845 OFFCURVE",
"1290 889 OFFCURVE",
"1409 889 CURVE SMOOTH",
"1521 889 OFFCURVE",
"1604 845 OFFCURVE",
"1660 766 CURVE SMOOTH",
"1715 686 OFFCURVE",
"1743 573 OFFCURVE",
"1743 436 CURVE SMOOTH"
);
},
{
closed = 1;
nodes = (
"1255 319 OFFCURVE",
"1265 225 OFFCURVE",
"1289 161 CURVE SMOOTH",
"1313 97 OFFCURVE",
"1351 63 OFFCURVE",
"1407 63 CURVE SMOOTH",
"1463 63 OFFCURVE",
"1501 97 OFFCURVE",
"1524 161 CURVE SMOOTH",
"1547 225 OFFCURVE",
"1556 319 OFFCURVE",
"1556 436 CURVE SMOOTH",
"1556 552 OFFCURVE",
"1547 643 OFFCURVE",
"1524 707 CURVE SMOOTH",
"1501 770 OFFCURVE",
"1465 803 OFFCURVE",
"1409 803 CURVE SMOOTH",
"1353 803 OFFCURVE",
"1314 770 OFFCURVE",
"1290 707 CURVE SMOOTH",
"1265 643 OFFCURVE",
"1255 552 OFFCURVE",
"1255 436 CURVE SMOOTH"
);
},
{
closed = 1;
nodes = (
"616 0 LINE",
"481 0 LINE",
"1212 1462 LINE",
"1346 1462 LINE"
);
}
);
width = 1835;
},
{
layerId = "29AE4022-23C2-49D3-A156-B9EDF5C2AEE5";
name = Bold;
paths = (
{
closed = 1;
nodes = (
"807 893 OFFCURVE",
"776 779 OFFCURVE",
"716 699 CURVE SMOOTH",
"655 619 OFFCURVE",
"562 573 OFFCURVE",
"438 573 CURVE SMOOTH",
"309 573 OFFCURVE",
"216 619 OFFCURVE",
"157 699 CURVE SMOOTH",
"97 779 OFFCURVE",
"70 893 OFFCURVE",
"70 1030 CURVE SMOOTH",
"70 1167 OFFCURVE",
"97 1280 OFFCURVE",
"157 1360 CURVE SMOOTH",
"217 1439 OFFCURVE",
"309 1483 OFFCURVE",
"440 1483 CURVE SMOOTH",
"563 1483 OFFCURVE",
"655 1439 OFFCURVE",
"716 1360 CURVE SMOOTH",
"777 1280 OFFCURVE",
"807 1167 OFFCURVE",
"807 1030 CURVE SMOOTH"
);
},
{
closed = 1;
nodes = (
"301 918 OFFCURVE",
"311 830 OFFCURVE",
"332 770 CURVE SMOOTH",
"353 709 OFFCURVE",
"389 676 OFFCURVE",
"438 676 CURVE SMOOTH",
"490 676 OFFCURVE",
"523 709 OFFCURVE",
"544 770 CURVE SMOOTH",
"565 830 OFFCURVE",
"573 918 OFFCURVE",
"573 1030 CURVE SMOOTH",
"573 1139 OFFCURVE",
"565 1226 OFFCURVE",
"545 1286 CURVE SMOOTH",
"524 1346 OFFCURVE",
"491 1378 OFFCURVE",
"440 1378 CURVE SMOOTH",
"389 1378 OFFCURVE",
"355 1346 OFFCURVE",
"333 1286 CURVE SMOOTH",
"311 1226 OFFCURVE",
"301 1139 OFFCURVE",
"301 1030 CURVE SMOOTH"
);
},
{
closed = 1;
nodes = (
"651 0 LINE",
"492 0 LINE",
"1198 1462 LINE",
"1356 1462 LINE"
);
},
{
closed = 1;
nodes = (
"1786 299 OFFCURVE",
"1755 185 OFFCURVE",
"1695 105 CURVE SMOOTH",
"1634 25 OFFCURVE",
"1541 -20 OFFCURVE",
"1417 -20 CURVE SMOOTH",
"1288 -20 OFFCURVE",
"1195 25 OFFCURVE",
"1136 105 CURVE SMOOTH",
"1076 185 OFFCURVE",
"1049 299 OFFCURVE",
"1049 436 CURVE SMOOTH",
"1049 573 OFFCURVE",
"1076 686 OFFCURVE",
"1136 766 CURVE SMOOTH",
"1196 845 OFFCURVE",
"1288 889 OFFCURVE",
"1419 889 CURVE SMOOTH",
"1542 889 OFFCURVE",
"1634 845 OFFCURVE",
"1695 766 CURVE SMOOTH",
"1756 686 OFFCURVE",
"1786 573 OFFCURVE",
"1786 436 CURVE SMOOTH"
);
},
{
closed = 1;
nodes = (
"1280 324 OFFCURVE",
"1290 236 OFFCURVE",
"1311 176 CURVE SMOOTH",
"1332 115 OFFCURVE",
"1368 82 OFFCURVE",
"1417 82 CURVE SMOOTH",
"1469 82 OFFCURVE",
"1502 115 OFFCURVE",
"1523 176 CURVE SMOOTH",
"1544 236 OFFCURVE",
"1552 324 OFFCURVE",
"1552 436 CURVE SMOOTH",
"1552 545 OFFCURVE",
"1544 632 OFFCURVE",
"1524 692 CURVE SMOOTH",
"1503 752 OFFCURVE",
"1470 784 OFFCURVE",
"1419 784 CURVE SMOOTH",
"1368 784 OFFCURVE",
"1334 752 OFFCURVE",
"1312 692 CURVE SMOOTH",
"1290 632 OFFCURVE",
"1280 545 OFFCURVE",
"1280 436 CURVE SMOOTH"
);
}
);
width = 1855;
}
);
unicode = 0025;
},
{
glyphname = ampersand;
lastChange = "2014-07-27 09:29:39 +0530";
layers = (
{
layerId = "7D009F26-9523-4D0C-936A-45D9328E47A0";
name = Regular;
paths = (
{
closed = 1;
nodes = (
"1174 0 LINE",
"1004 180 LINE",
"955 124 OFFCURVE",
"896 74 OFFCURVE",
"824 38 CURVE SMOOTH",
"752 2 OFFCURVE",
"665 -20 OFFCURVE",
"561 -20 CURVE SMOOTH",
"397 -20 OFFCURVE",
"275 23 OFFCURVE",
"195 99 CURVE SMOOTH",
"114 174 OFFCURVE",
"74 281 OFFCURVE",
"74 410 CURVE SMOOTH",
"74 526 OFFCURVE",
"107 610 OFFCURVE",
"164 675 CURVE SMOOTH",
"220 740 OFFCURVE",
"302 788 OFFCURVE",
"401 829 CURVE",
"349 890 OFFCURVE",
"310 946 OFFCURVE",
"284 1002 CURVE SMOOTH",
"258 1058 OFFCURVE",
"244 1115 OFFCURVE",
"244 1182 CURVE SMOOTH",
"244 1273 OFFCURVE",
"272 1347 OFFCURVE",
"335 1400 CURVE SMOOTH",
"398 1453 OFFCURVE",
"495 1483 OFFCURVE",
"631 1483 CURVE SMOOTH",
"762 1483 OFFCURVE",
"853 1450 OFFCURVE",
"911 1397 CURVE SMOOTH",
"969 1344 OFFCURVE",
"993 1271 OFFCURVE",
"993 1192 CURVE SMOOTH",
"993 1104 OFFCURVE",
"969 1038 OFFCURVE",
"914 981 CURVE SMOOTH",
"858 924 OFFCURVE",
"772 874 OFFCURVE",
"647 821 CURVE",
"1020 426 LINE",
"1039 487 OFFCURVE",
"1050 552 OFFCURVE",
"1058 613 CURVE SMOOTH",
"1065 673 OFFCURVE",
"1067 733 OFFCURVE",
"1067 782 CURVE SMOOTH",
"1067 862 LINE",
"1436 862 LINE",
"1436 776 LINE",
"1417 776 LINE SMOOTH",
"1372 776 OFFCURVE",
"1327 773 OFFCURVE",
"1289 754 CURVE SMOOTH",
"1251 734 OFFCURVE",
"1219 700 OFFCURVE",
"1202 637 CURVE SMOOTH",
"1178 549 OFFCURVE",
"1149 443 OFFCURVE",
"1102 340 CURVE",
"1292 137 LINE SMOOTH",
"1312 117 OFFCURVE",
"1332 104 OFFCURVE",
"1361 96 CURVE SMOOTH",
"1389 88 OFFCURVE",
"1427 86 OFFCURVE",
"1483 86 CURVE SMOOTH",
"1501 86 LINE",
"1501 0 LINE"
);
},
{
closed = 1;
nodes = (
"660 94 OFFCURVE",
"729 112 OFFCURVE",
"786 141 CURVE SMOOTH",
"843 170 OFFCURVE",
"891 212 OFFCURVE",
"930 260 CURVE",
"477 745 LINE",
"414 710 OFFCURVE",
"364 670 OFFCURVE",
"329 615 CURVE SMOOTH",
"293 559 OFFCURVE",
"274 491 OFFCURVE",
"274 403 CURVE SMOOTH",
"274 303 OFFCURVE",
"305 226 OFFCURVE",
"359 174 CURVE SMOOTH",
"413 121 OFFCURVE",
"488 94 OFFCURVE",
"580 94 CURVE SMOOTH"
);
},
{
closed = 1;
nodes = (
"813 1245 OFFCURVE",
"801 1293 OFFCURVE",
"771 1327 CURVE SMOOTH",
"741 1361 OFFCURVE",
"692 1382 OFFCURVE",
"623 1382 CURVE SMOOTH",
"502 1382 OFFCURVE",
"434 1305 OFFCURVE",
"434 1188 CURVE SMOOTH",
"434 1136 OFFCURVE",
"444 1092 OFFCURVE",
"468 1048 CURVE SMOOTH",
"491 1003 OFFCURVE",
"526 956 OFFCURVE",
"578 899 CURVE",
"658 934 OFFCURVE",
"717 972 OFFCURVE",
"756 1018 CURVE SMOOTH",
"795 1064 OFFCURVE",
"813 1118 OFFCURVE",
"813 1190 CURVE SMOOTH"
);
}
);
width = 1520;
},
{
layerId = "29AE4022-23C2-49D3-A156-B9EDF5C2AEE5";
name = Bold;
paths = (
{
closed = 1;
nodes = (
"1208 0 LINE",
"1067 150 LINE",
"1016 99 OFFCURVE",
"955 58 OFFCURVE",
"880 28 CURVE SMOOTH",
"805 -2 OFFCURVE",
"719 -20 OFFCURVE",
"616 -20 CURVE SMOOTH",
"448 -20 OFFCURVE",
"318 20 OFFCURVE",
"230 95 CURVE SMOOTH",
"142 170 OFFCURVE",
"96 279 OFFCURVE",
"96 416 CURVE SMOOTH",
"96 536 OFFCURVE",
"137 618 OFFCURVE",
"201 680 CURVE SMOOTH",
"265 742 OFFCURVE",
"353 782 OFFCURVE",
"446 819 CURVE",
"393 883 OFFCURVE",
"353 940 OFFCURVE",
"328 997 CURVE SMOOTH",
"303 1054 OFFCURVE",
"291 1113 OFFCURVE",
"291 1182 CURVE SMOOTH",
"291 1273 OFFCURVE",
"326 1347 OFFCURVE",
"395 1400 CURVE SMOOTH",
"463 1453 OFFCURVE",
"566 1483 OFFCURVE",
"702 1483 CURVE SMOOTH",
"834 1483 OFFCURVE",
"932 1450 OFFCURVE",
"997 1397 CURVE SMOOTH",
"1061 1344 OFFCURVE",
"1094 1271 OFFCURVE",
"1094 1192 CURVE SMOOTH",
"1094 1109 OFFCURVE",
"1069 1044 OFFCURVE",
"1018 988 CURVE SMOOTH",
"966 931 OFFCURVE",
"889 883 OFFCURVE",
"782 834 CURVE",
"785 829 OFFCURVE",
"790 824 OFFCURVE",
"797 819 CURVE",
"1087 514 LINE",
"1104 609 OFFCURVE",
"1108 705 OFFCURVE",
"1108 782 CURVE SMOOTH",
"1108 872 LINE",
"1556 872 LINE",
"1556 764 LINE",
"1524 764 LINE SMOOTH",
"1479 764 OFFCURVE",
"1434 761 OFFCURVE",
"1397 742 CURVE SMOOTH",
"1360 722 OFFCURVE",
"1330 688 OFFCURVE",
"1313 625 CURVE SMOOTH",
"1292 549 OFFCURVE",
"1264 461 OFFCURVE",
"1223 373 CURVE",
"1427 160 LINE SMOOTH",
"1466 119 OFFCURVE",
"1522 109 OFFCURVE",
"1595 109 CURVE SMOOTH",
"1614 109 LINE",
"1614 0 LINE"
);
},
{
closed = 1;
nodes = (
"397 325 OFFCURVE",
"424 253 OFFCURVE",
"471 201 CURVE SMOOTH",
"518 149 OFFCURVE",
"587 117 OFFCURVE",
"668 117 CURVE SMOOTH",
"813 117 OFFCURVE",
"910 168 OFFCURVE",
"977 248 CURVE",
"539 715 LINE",
"482 674 OFFCURVE",
"446 628 OFFCURVE",
"425 577 CURVE SMOOTH",
"404 525 OFFCURVE",
"397 469 OFFCURVE",
"397 406 CURVE SMOOTH"
);
},
{
closed = 1;
nodes = (
"846 1238 OFFCURVE",
"838 1280 OFFCURVE",
"817 1311 CURVE SMOOTH",
"796 1342 OFFCURVE",
"759 1360 OFFCURVE",
"702 1360 CURVE SMOOTH",
"657 1360 OFFCURVE",
"622 1342 OFFCURVE",
"601 1311 CURVE SMOOTH",
"580 1280 OFFCURVE",
"569 1237 OFFCURVE",
"569 1188 CURVE SMOOTH",
"569 1141 OFFCURVE",
"580 1100 OFFCURVE",
"601 1058 CURVE SMOOTH",
"621 1016 OFFCURVE",
"653 974 OFFCURVE",
"696 926 CURVE",
"753 958 OFFCURVE",
"791 994 OFFCURVE",
"814 1036 CURVE SMOOTH",
"837 1078 OFFCURVE",
"846 1127 OFFCURVE",
"846 1190 CURVE SMOOTH"
);
}
);
width = 1640;
}
);
unicode = 0026;
},
{
glyphname = quotesingle;
lastChange = "2014-07-27 09:30:05 +0530";
layers = (
{
layerId = "7D009F26-9523-4D0C-936A-45D9328E47A0";
name = Regular;
paths = (
{
closed = 1;
nodes = (
"117 1462 LINE",
"334 1462 LINE",
"272 981 LINE",
"178 981 LINE"
);
}
);
width = 451;
},
{
layerId = "29AE4022-23C2-49D3-A156-B9EDF5C2AEE5";
name = Bold;
paths = (
{
closed = 1;
nodes = (
"137 1462 LINE",
"457 1462 LINE",
"365 899 LINE",
"229 899 LINE"
);
}
);
width = 594;
}
);
unicode = 0027;
},
{
glyphname = parenleft;
lastChange = "2014-07-27 09:30:21 +0530";
layers = (
{
layerId = "7D009F26-9523-4D0C-936A-45D9328E47A0";
name = Regular;
paths = (
{
closed = 1;
nodes = (
"330 486 OFFCURVE",
"338 325 OFFCURVE",
"381 183 CURVE SMOOTH",
"424 41 OFFCURVE",
"503 -83 OFFCURVE",
"643 -168 CURVE",
"643 -262 LINE",
"455 -187 OFFCURVE",
"323 -83 OFFCURVE",
"239 65 CURVE SMOOTH",
"154 212 OFFCURVE",
"117 402 OFFCURVE",
"117 649 CURVE SMOOTH",
"117 896 OFFCURVE",
"154 1084 OFFCURVE",
"239 1231 CURVE SMOOTH",
"323 1378 OFFCURVE",
"455 1481 OFFCURVE",
"643 1556 CURVE",
"643 1464 LINE",
"503 1379 OFFCURVE",
"424 1256 OFFCURVE",
"381 1115 CURVE SMOOTH",
"338 974 OFFCURVE",
"330 812 OFFCURVE",
"330 649 CURVE SMOOTH"
);
}
);
width = 709;
},
{
layerId = "29AE4022-23C2-49D3-A156-B9EDF5C2AEE5";
name = Bold;
paths = (
{
closed = 1;
nodes = (
"446 488 OFFCURVE",
"460 329 OFFCURVE",
"505 190 CURVE SMOOTH",
"550 50 OFFCURVE",
"627 -70 OFFCURVE",
"754 -154 CURVE",
"754 -285 LINE",
"526 -193 OFFCURVE",
"367 -70 OFFCURVE",
"265 86 CURVE SMOOTH",
"163 242 OFFCURVE",
"117 430 OFFCURVE",
"117 651 CURVE SMOOTH",
"117 871 OFFCURVE",
"163 1058 OFFCURVE",
"265 1213 CURVE SMOOTH",
"367 1368 OFFCURVE",
"526 1490 OFFCURVE",
"754 1581 CURVE",
"754 1452 LINE",
"627 1368 OFFCURVE",
"550 1249 OFFCURVE",
"505 1110 CURVE SMOOTH",
"460 971 OFFCURVE",
"446 814 OFFCURVE",
"446 651 CURVE SMOOTH"
);
}
);
width = 819;
}
);
unicode = 0028;
},
{
glyphname = parenright;
lastChange = "2014-07-27 09:30:41 +0530";
layers = (
{
layerId = "7D009F26-9523-4D0C-936A-45D9328E47A0";
name = Regular;
paths = (
{
closed = 1;
nodes = (
"379 812 OFFCURVE",
"371 974 OFFCURVE",
"328 1115 CURVE SMOOTH",
"284 1256 OFFCURVE",
"206 1379 OFFCURVE",
"66 1464 CURVE",
"66 1556 LINE",
"254 1481 OFFCURVE",
"386 1378 OFFCURVE",
"470 1231 CURVE SMOOTH",
"554 1084 OFFCURVE",
"592 896 OFFCURVE",
"592 649 CURVE SMOOTH",
"592 402 OFFCURVE",
"554 212 OFFCURVE",
"470 65 CURVE SMOOTH",
"386 -83 OFFCURVE",
"254 -187 OFFCURVE",
"66 -262 CURVE",
"66 -168 LINE",
"206 -83 OFFCURVE",
"284 41 OFFCURVE",
"328 183 CURVE SMOOTH",
"371 325 OFFCURVE",
"379 486 OFFCURVE",
"379 649 CURVE SMOOTH"
);
}
);
width = 709;
},
{
layerId = "29AE4022-23C2-49D3-A156-B9EDF5C2AEE5";
name = Bold;
paths = (
{
closed = 1;
nodes = (
"373 814 OFFCURVE",
"359 971 OFFCURVE",
"315 1110 CURVE SMOOTH",
"270 1249 OFFCURVE",
"193 1368 OFFCURVE",
"66 1452 CURVE",
"66 1581 LINE",
"294 1490 OFFCURVE",
"454 1368 OFFCURVE",
"556 1213 CURVE SMOOTH",
"658 1058 OFFCURVE",
"702 871 OFFCURVE",
"702 651 CURVE SMOOTH",
"702 430 OFFCURVE",
"658 242 OFFCURVE",
"556 86 CURVE SMOOTH",
"454 -70 OFFCURVE",
"294 -193 OFFCURVE",
"66 -285 CURVE",
"66 -154 LINE",
"193 -70 OFFCURVE",
"270 50 OFFCURVE",
"315 190 CURVE SMOOTH",
"359 329 OFFCURVE",
"373 488 OFFCURVE",
"373 651 CURVE SMOOTH"
);
}
);
width = 819;
}
);
unicode = 0029;
},
{
glyphname = asterisk;
lastChange = "2014-07-27 09:30:56 +0530";
layers = (
{
layerId = "7D009F26-9523-4D0C-936A-45D9328E47A0";
name = Regular;
paths = (
{
closed = 1;
nodes = (
"84 1268 LINE",
"156 1430 LINE",
"471 1231 LINE",
"418 1556 LINE",
"596 1556 LINE",
"539 1233 LINE",
"856 1425 LINE",
"928 1266 LINE",
"582 1165 LINE",
"928 1065 LINE",
"856 907 LINE",
"539 1098 LINE",
"596 774 LINE",
"418 774 LINE",
"469 1098 LINE",
"156 903 LINE",
"84 1063 LINE",
"428 1165 LINE"
);
}
);
width = 1024;
},
{
layerId = "29AE4022-23C2-49D3-A156-B9EDF5C2AEE5";
name = Bold;
paths = (
{
closed = 1;
nodes = (
"72 1237 LINE",
"164 1444 LINE",
"469 1223 LINE",
"401 1556 LINE",
"631 1556 LINE",
"557 1227 LINE",
"864 1440 LINE",
"956 1235 LINE",
"637 1155 LINE",
"956 1073 LINE",
"864 870 LINE",
"557 1083 LINE",
"629 752 LINE",
"401 752 LINE",
"467 1085 LINE",
"164 868 LINE",
"72 1071 LINE",
"391 1155 LINE"
);
}
);
width = 1028;
}
);
unicode = 002A;
},
{
glyphname = plus;
lastChange = "2014-07-27 09:32:13 +0530";
layers = (
{
layerId = "7D009F26-9523-4D0C-936A-45D9328E47A0";
name = Regular;
paths = (
{
closed = 1;
nodes = (
"633 672 LINE",
"633 293 LINE",
"510 293 LINE",
"510 672 LINE",
"133 672 LINE",
"133 793 LINE",
"510 793 LINE",
"510 1171 LINE",
"633 1171 LINE",
"633 793 LINE",
"1012 793 LINE",
"1012 672 LINE"
);
}
);
width = 1145;
},
{
layerId = "29AE4022-23C2-49D3-A156-B9EDF5C2AEE5";
name = Bold;
paths = (
{
closed = 1;
nodes = (
"645 659 LINE",
"645 293 LINE",
"498 293 LINE",
"498 659 LINE",
"133 659 LINE",
"133 805 LINE",
"498 805 LINE",
"498 1171 LINE",
"645 1171 LINE",
"645 805 LINE",
"1012 805 LINE",
"1012 659 LINE"
);
}
);
width = 1145;
}
);
unicode = 002B;
},
{
glyphname = comma;
lastChange = "2014-07-27 09:32:28 +0530";
layers = (
{
layerId = "7D009F26-9523-4D0C-936A-45D9328E47A0";
name = Regular;
paths = (
{
closed = 1;
nodes = (
"397 -1 OFFCURVE",
"375 -84 OFFCURVE",
"321 -153 CURVE SMOOTH",
"267 -222 OFFCURVE",
"184 -279 OFFCURVE",
"61 -315 CURVE",
"61 -229 LINE",
"196 -186 OFFCURVE",
"256 -125 OFFCURVE",
"256 -45 CURVE SMOOTH",
"256 -18 OFFCURVE",
"240 -1 OFFCURVE",
"217 13 CURVE SMOOTH",
"206 20 OFFCURVE",
"194 26 OFFCURVE",
"181 33 CURVE SMOOTH",
"156 46 OFFCURVE",
"132 64 OFFCURVE",
"117 92 CURVE SMOOTH",
"110 105 OFFCURVE",
"106 122 OFFCURVE",
"106 143 CURVE SMOOTH",
"106 222 OFFCURVE",
"164 264 OFFCURVE",
"240 264 CURVE SMOOTH",
"283 264 OFFCURVE",
"321 249 OFFCURVE",
"350 219 CURVE SMOOTH",
"379 189 OFFCURVE",
"397 143 OFFCURVE",
"397 86 CURVE SMOOTH"
);
}
);
width = 512;
},
{
layerId = "29AE4022-23C2-49D3-A156-B9EDF5C2AEE5";
name = Bold;
paths = (
{
closed = 1;
nodes = (
"459 -1 OFFCURVE",
"434 -84 OFFCURVE",
"375 -153 CURVE SMOOTH",
"316 -222 OFFCURVE",
"225 -279 OFFCURVE",
"92 -315 CURVE",
"92 -209 LINE",
"152 -188 OFFCURVE",
"197 -167 OFFCURVE",
"227 -142 CURVE SMOOTH",
"257 -118 OFFCURVE",
"272 -89 OFFCURVE",
"272 -49 CURVE SMOOTH",
"272 -24 OFFCURVE",
"256 -9 OFFCURVE",
"234 6 CURVE SMOOTH",
"223 13 OFFCURVE",
"211 21 OFFCURVE",
"198 29 CURVE SMOOTH",
"172 44 OFFCURVE",
"149 67 OFFCURVE",
"134 103 CURVE SMOOTH",
"127 120 OFFCURVE",
"123 143 OFFCURVE",
"123 170 CURVE SMOOTH",
"123 262 OFFCURVE",
"186 311 OFFCURVE",
"270 311 CURVE SMOOTH",
"386 311 OFFCURVE",
"459 226 OFFCURVE",
"459 86 CURVE SMOOTH"
);
}
);
width = 602;
}
);
unicode = 002C;
},
{
glyphname = hyphen;
lastChange = "2014-07-27 09:32:45 +0530";
layers = (
{
layerId = "7D009F26-9523-4D0C-936A-45D9328E47A0";
name = Regular;
paths = (
{
closed = 1;
nodes = (
"51 481 LINE",
"51 635 LINE",
"584 635 LINE",
"584 481 LINE"
);
}
);
width = 635;
},
{
layerId = "29AE4022-23C2-49D3-A156-B9EDF5C2AEE5";
name = Bold;
paths = (
{
closed = 1;
nodes = (
"51 451 LINE",
"51 666 LINE",
"584 666 LINE",
"584 451 LINE"
);
}
);
width = 635;
}
);
unicode = 002D;
},
{
glyphname = period;
lastChange = "2014-07-27 09:33:00 +0530";
layers = (
{
layerId = "7D009F26-9523-4D0C-936A-45D9328E47A0";
name = Regular;
paths = (
{
closed = 1;
nodes = (
"164 178 OFFCURVE",
"178 213 OFFCURVE",
"202 234 CURVE SMOOTH",
"225 255 OFFCURVE",
"257 264 OFFCURVE",
"293 264 CURVE SMOOTH",
"328 264 OFFCURVE",
"360 255 OFFCURVE",
"384 234 CURVE SMOOTH",
"407 213 OFFCURVE",
"422 178 OFFCURVE",
"422 125 CURVE SMOOTH",
"422 73 OFFCURVE",
"407 37 OFFCURVE",
"384 16 CURVE SMOOTH",
"360 -5 OFFCURVE",
"328 -14 OFFCURVE",
"293 -14 CURVE SMOOTH",
"257 -14 OFFCURVE",
"225 -5 OFFCURVE",
"202 16 CURVE SMOOTH",
"178 37 OFFCURVE",
"164 73 OFFCURVE",
"164 125 CURVE SMOOTH"
);
}
);
width = 586;
},
{
layerId = "29AE4022-23C2-49D3-A156-B9EDF5C2AEE5";
name = Bold;
paths = (
{
closed = 1;
nodes = (
"143 210 OFFCURVE",
"162 251 OFFCURVE",
"192 276 CURVE SMOOTH",
"222 301 OFFCURVE",
"264 311 OFFCURVE",
"311 311 CURVE SMOOTH",
"356 311 OFFCURVE",
"398 301 OFFCURVE",
"429 276 CURVE SMOOTH",
"460 251 OFFCURVE",
"479 210 OFFCURVE",
"479 147 CURVE SMOOTH",
"479 86 OFFCURVE",
"460 45 OFFCURVE",
"429 20 CURVE SMOOTH",
"398 -5 OFFCURVE",
"356 -16 OFFCURVE",
"311 -16 CURVE SMOOTH",
"264 -16 OFFCURVE",
"222 -5 OFFCURVE",
"192 20 CURVE SMOOTH",
"162 45 OFFCURVE",
"143 86 OFFCURVE",
"143 147 CURVE SMOOTH"
);
}
);
width = 623;
}
);
unicode = 002E;
},
{
glyphname = slash;
lastChange = "2014-07-27 09:33:25 +0530";
layers = (
{
layerId = "7D009F26-9523-4D0C-936A-45D9328E47A0";
name = Regular;
paths = (
{
closed = 1;
nodes = (
"121 -248 LINE",
"0 -248 LINE",
"471 1556 LINE",
"590 1556 LINE"
);
}
);
width = 590;
},
{
layerId = "29AE4022-23C2-49D3-A156-B9EDF5C2AEE5";
name = Bold;
paths = (
{
closed = 1;
nodes = (
"147 -250 LINE",
"0 -248 LINE",
"446 1556 LINE",
"590 1556 LINE"
);
}
);
width = 590;
}
);
unicode = 002F;
},
{
glyphname = zero;
lastChange = "2014-07-27 09:33:42 +0530";
layers = (
{
layerId = "7D009F26-9523-4D0C-936A-45D9328E47A0";
name = Regular;
paths = (
{
closed = 1;
nodes = (
"1053 508 OFFCURVE",
"1014 319 OFFCURVE",
"934 187 CURVE SMOOTH",
"854 55 OFFCURVE",
"734 -20 OFFCURVE",
"573 -20 CURVE SMOOTH",
"405 -20 OFFCURVE",
"285 55 OFFCURVE",
"207 187 CURVE SMOOTH",
"129 319 OFFCURVE",
"92 508 OFFCURVE",
"92 735 CURVE SMOOTH",
"92 962 OFFCURVE",
"129 1148 OFFCURVE",
"207 1279 CURVE SMOOTH",
"285 1410 OFFCURVE",
"406 1483 OFFCURVE",
"575 1483 CURVE SMOOTH",
"735 1483 OFFCURVE",
"854 1410 OFFCURVE",
"934 1279 CURVE SMOOTH",
"1014 1148 OFFCURVE",
"1053 961 OFFCURVE",
"1053 733 CURVE SMOOTH"
);
},
{
closed = 1;
nodes = (
"305 530 OFFCURVE",
"323 370 OFFCURVE",
"365 260 CURVE SMOOTH",
"407 150 OFFCURVE",
"474 90 OFFCURVE",
"573 90 CURVE SMOOTH",
"673 90 OFFCURVE",
"740 150 OFFCURVE",
"782 260 CURVE SMOOTH",
"824 370 OFFCURVE",
"840 530 OFFCURVE",
"840 733 CURVE SMOOTH",
"840 936 OFFCURVE",
"824 1096 OFFCURVE",
"782 1205 CURVE SMOOTH",
"740 1314 OFFCURVE",
"674 1372 OFFCURVE",
"575 1372 CURVE SMOOTH",
"475 1372 OFFCURVE",
"408 1314 OFFCURVE",
"365 1205 CURVE SMOOTH",
"322 1096 OFFCURVE",
"305 936 OFFCURVE",
"305 733 CURVE SMOOTH"
);
}
);
width = 1145;
},
{
layerId = "29AE4022-23C2-49D3-A156-B9EDF5C2AEE5";
name = Bold;
paths = (
{
closed = 1;
nodes = (
"1075 508 OFFCURVE",
"1039 319 OFFCURVE",
"958 187 CURVE SMOOTH",
"877 55 OFFCURVE",
"752 -20 OFFCURVE",
"573 -20 CURVE SMOOTH",
"386 -20 OFFCURVE",
"261 55 OFFCURVE",
"182 187 CURVE SMOOTH",
"102 319 OFFCURVE",
"70 508 OFFCURVE",
"70 735 CURVE SMOOTH",
"70 962 OFFCURVE",
"102 1148 OFFCURVE",
"182 1279 CURVE SMOOTH",
"261 1410 OFFCURVE",
"387 1483 OFFCURVE",
"575 1483 CURVE SMOOTH",
"752 1483 OFFCURVE",
"878 1410 OFFCURVE",
"959 1279 CURVE SMOOTH",
"1039 1148 OFFCURVE",
"1075 961 OFFCURVE",
"1075 733 CURVE SMOOTH"
);
},
{
closed = 1;
nodes = (
"387 537 OFFCURVE",
"396 383 OFFCURVE",
"424 277 CURVE SMOOTH",
"451 171 OFFCURVE",
"497 113 OFFCURVE",
"573 113 CURVE SMOOTH",
"649 113 OFFCURVE",
"695 171 OFFCURVE",
"723 277 CURVE SMOOTH",
"750 383 OFFCURVE",
"758 537 OFFCURVE",
"758 733 CURVE SMOOTH",
"758 929 OFFCURVE",
"750 1083 OFFCURVE",
"723 1188 CURVE SMOOTH",
"696 1293 OFFCURVE",
"650 1350 OFFCURVE",
"575 1350 CURVE SMOOTH",
"499 1350 OFFCURVE",
"452 1293 OFFCURVE",
"424 1188 CURVE SMOOTH",
"396 1083 OFFCURVE",
"387 929 OFFCURVE",
"387 733 CURVE SMOOTH"
);
}
);
width = 1145;
}
);
unicode = 0030;
},
{
glyphname = one;
lastChange = "2014-07-27 09:34:03 +0530";
layers = (
{
layerId = "7D009F26-9523-4D0C-936A-45D9328E47A0";
name = Regular;
paths = (
{
closed = 1;
nodes = (
"197 0 LINE",
"197 86 LINE",
"334 86 LINE SMOOTH",
"381 86 OFFCURVE",
"423 91 OFFCURVE",
"453 112 CURVE SMOOTH",
"483 132 OFFCURVE",
"502 169 OFFCURVE",
"502 233 CURVE SMOOTH",
"502 1309 LINE",
"450 1245 OFFCURVE",
"404 1192 OFFCURVE",
"361 1155 CURVE SMOOTH",
"318 1118 OFFCURVE",
"278 1096 OFFCURVE",
"238 1096 CURVE SMOOTH",
"178 1096 OFFCURVE",
"135 1141 OFFCURVE",
"135 1206 CURVE",
"176 1217 OFFCURVE",
"217 1231 OFFCURVE",
"265 1256 CURVE SMOOTH",
"312 1280 OFFCURVE",
"366 1315 OFFCURVE",
"434 1364 CURVE SMOOTH",
"578 1470 LINE",
"709 1470 LINE",
"709 233 LINE SMOOTH",
"709 169 OFFCURVE",
"727 132 OFFCURVE",
"758 112 CURVE SMOOTH",
"789 91 OFFCURVE",
"830 86 OFFCURVE",
"877 86 CURVE SMOOTH",
"977 86 LINE",
"977 0 LINE"
);
}
);
width = 1145;
},
{
layerId = "29AE4022-23C2-49D3-A156-B9EDF5C2AEE5";
name = Bold;
paths = (
{
closed = 1;
nodes = (
"199 0 LINE",
"199 109 LINE",
"367 109 LINE SMOOTH",
"402 109 OFFCURVE",
"427 117 OFFCURVE",
"444 137 CURVE SMOOTH",
"461 157 OFFCURVE",
"469 190 OFFCURVE",
"469 242 CURVE SMOOTH",
"469 1268 LINE",
"417 1204 OFFCURVE",
"372 1151 OFFCURVE",
"329 1114 CURVE SMOOTH",
"286 1077 OFFCURVE",
"246 1055 OFFCURVE",
"205 1055 CURVE SMOOTH",
"172 1055 OFFCURVE",
"142 1069 OFFCURVE",
"121 1096 CURVE SMOOTH",
"100 1123 OFFCURVE",
"86 1161 OFFCURVE",
"86 1206 CURVE",
"127 1217 OFFCURVE",
"172 1231 OFFCURVE",
"224 1256 CURVE SMOOTH",
"275 1280 OFFCURVE",
"333 1315 OFFCURVE",
"401 1364 CURVE SMOOTH",
"545 1470 LINE",
"774 1470 LINE",
"774 242 LINE SMOOTH",
"774 199 OFFCURVE",
"779 166 OFFCURVE",
"795 143 CURVE SMOOTH",
"810 120 OFFCURVE",
"836 109 OFFCURVE",
"879 109 CURVE SMOOTH",
"1044 109 LINE",
"1044 0 LINE"
);
}
);
width = 1145;
}
);
unicode = 0031;
},
{
glyphname = two;
lastChange = "2014-07-27 09:35:01 +0530";
layers = (
{
layerId = "7D009F26-9523-4D0C-936A-45D9328E47A0";
name = Regular;
paths = (
{
closed = 1;
nodes = (
"944 1045 OFFCURVE",
"913 957 OFFCURVE",
"854 862 CURVE SMOOTH",
"795 766 OFFCURVE",
"710 666 OFFCURVE",
"602 547 CURVE SMOOTH",
"256 164 LINE",
"729 164 LINE SMOOTH",
"790 164 OFFCURVE",
"829 183 OFFCURVE",
"854 211 CURVE SMOOTH",
"879 239 OFFCURVE",
"892 277 OFFCURVE",
"901 317 CURVE SMOOTH",
"909 354 LINE",
"995 354 LINE",
"985 0 LINE",
"104 0 LINE",
"104 150 LINE",
"446 545 LINE SMOOTH",
"555 672 OFFCURVE",
"628 768 OFFCURVE",
"673 857 CURVE SMOOTH",
"718 945 OFFCURVE",
"737 1027 OFFCURVE",
"737 1120 CURVE SMOOTH",
"737 1199 OFFCURVE",
"721 1263 OFFCURVE",
"687 1309 CURVE SMOOTH",
"653 1355 OFFCURVE",
"600 1380 OFFCURVE",
"528 1380 CURVE SMOOTH",
"435 1380 OFFCURVE",
"379 1344 OFFCURVE",
"346 1288 CURVE SMOOTH",
"313 1232 OFFCURVE",
"303 1156 OFFCURVE",
"303 1075 CURVE",
"254 1075 OFFCURVE",
"210 1082 OFFCURVE",
"178 1103 CURVE SMOOTH",
"146 1123 OFFCURVE",
"127 1156 OFFCURVE",
"127 1208 CURVE SMOOTH",
"127 1287 OFFCURVE",
"161 1356 OFFCURVE",
"229 1405 CURVE SMOOTH",
"296 1454 OFFCURVE",
"396 1483 OFFCURVE",
"528 1483 CURVE SMOOTH",
"657 1483 OFFCURVE",
"761 1449 OFFCURVE",
"833 1390 CURVE SMOOTH",
"905 1330 OFFCURVE",
"944 1245 OFFCURVE",
"944 1141 CURVE SMOOTH"
);
}
);
width = 1145;
},
{
layerId = "29AE4022-23C2-49D3-A156-B9EDF5C2AEE5";
name = Bold;
paths = (
{
closed = 1;
nodes = (
"999 1079 OFFCURVE",
"986 1021 OFFCURVE",
"954 957 CURVE SMOOTH",
"921 893 OFFCURVE",
"869 824 OFFCURVE",
"790 738 CURVE SMOOTH",
"711 652 OFFCURVE",
"608 549 OFFCURVE",
"471 420 CURVE SMOOTH",
"266 225 LINE",
"743 225 LINE SMOOTH",
"827 225 OFFCURVE",
"889 275 OFFCURVE",
"913 367 CURVE SMOOTH",
"930 430 LINE",
"1051 430 LINE",
"1040 0 LINE",
"72 0 LINE",
"72 211 LINE",
"375 520 LINE SMOOTH",
"502 649 OFFCURVE",
"580 749 OFFCURVE",
"627 844 CURVE SMOOTH",
"674 939 OFFCURVE",
"690 1028 OFFCURVE",
"690 1133 CURVE SMOOTH",
"690 1289 OFFCURVE",
"630 1358 OFFCURVE",
"530 1358 CURVE SMOOTH",
"391 1358 OFFCURVE",
"342 1237 OFFCURVE",
"342 1004 CURVE",
"265 1004 OFFCURVE",
"199 1018 OFFCURVE",
"153 1050 CURVE SMOOTH",
"107 1082 OFFCURVE",
"80 1133 OFFCURVE",
"80 1206 CURVE SMOOTH",
"80 1281 OFFCURVE",
"118 1349 OFFCURVE",
"193 1400 CURVE SMOOTH",
"268 1451 OFFCURVE",
"381 1483 OFFCURVE",
"530 1483 CURVE SMOOTH",
"683 1483 OFFCURVE",
"800 1451 OFFCURVE",
"880 1392 CURVE SMOOTH",
"959 1333 OFFCURVE",
"999 1248 OFFCURVE",
"999 1143 CURVE SMOOTH"
);
}
);
width = 1145;
}
);
unicode = 0032;
},
{
glyphname = three;
lastChange = "2014-07-27 09:35:20 +0530";
layers = (
{
layerId = "7D009F26-9523-4D0C-936A-45D9328E47A0";
name = Regular;
paths = (
{
closed = 1;
nodes = (
"589 90 OFFCURVE",
"665 111 OFFCURVE",
"721 163 CURVE SMOOTH",
"777 215 OFFCURVE",
"813 297 OFFCURVE",
"813 420 CURVE SMOOTH",
"813 507 OFFCURVE",
"778 578 OFFCURVE",
"714 627 CURVE SMOOTH",
"650 676 OFFCURVE",
"557 705 OFFCURVE",
"442 705 CURVE SMOOTH",
"377 705 LINE",
"377 809 LINE",
"442 809 LINE SMOOTH",
"533 809 OFFCURVE",
"613 840 OFFCURVE",
"671 895 CURVE SMOOTH",
"729 950 OFFCURVE",
"764 1029 OFFCURVE",
"764 1126 CURVE SMOOTH",
"764 1206 OFFCURVE",
"749 1269 OFFCURVE",
"714 1313 CURVE SMOOTH",
"678 1357 OFFCURVE",
"624 1380 OFFCURVE",
"545 1380 CURVE SMOOTH",
"452 1380 OFFCURVE",
"395 1344 OFFCURVE",
"362 1288 CURVE SMOOTH",
"329 1232 OFFCURVE",
"319 1156 OFFCURVE",
"319 1075 CURVE",
"270 1075 OFFCURVE",
"226 1082 OFFCURVE",
"194 1103 CURVE SMOOTH",
"162 1123 OFFCURVE",
"143 1156 OFFCURVE",
"143 1208 CURVE SMOOTH",
"143 1287 OFFCURVE",
"177 1356 OFFCURVE",
"245 1405 CURVE SMOOTH",
"313 1454 OFFCURVE",
"413 1483 OFFCURVE",
"545 1483 CURVE SMOOTH",
"674 1483 OFFCURVE",
"781 1453 OFFCURVE",
"857 1398 CURVE SMOOTH",
"932 1342 OFFCURVE",
"975 1261 OFFCURVE",
"975 1157 CURVE SMOOTH",
"975 1065 OFFCURVE",
"941 983 OFFCURVE",
"882 917 CURVE SMOOTH",
"823 851 OFFCURVE",
"742 803 OFFCURVE",
"647 780 CURVE",
"698 775 OFFCURVE",
"757 763 OFFCURVE",
"813 739 CURVE SMOOTH",
"869 715 OFFCURVE",
"922 680 OFFCURVE",
"962 628 CURVE SMOOTH",
"1001 576 OFFCURVE",
"1026 509 OFFCURVE",
"1026 418 CURVE SMOOTH",
"1026 309 OFFCURVE",
"995 222 OFFCURVE",
"944 158 CURVE SMOOTH",
"892 93 OFFCURVE",
"822 48 OFFCURVE",
"745 20 CURVE SMOOTH",
"668 -8 OFFCURVE",
"585 -20 OFFCURVE",
"506 -20 CURVE SMOOTH",
"371 -20 OFFCURVE",
"275 7 OFFCURVE",
"212 48 CURVE SMOOTH",
"148 89 OFFCURVE",
"119 147 OFFCURVE",
"119 207 CURVE SMOOTH",
"119 290 OFFCURVE",
"169 338 OFFCURVE",
"248 338 CURVE",
"248 266 OFFCURVE",
"272 204 OFFCURVE",
"316 160 CURVE SMOOTH",
"360 116 OFFCURVE",
"425 90 OFFCURVE",
"508 90 CURVE SMOOTH"
);
}
);
width = 1145;
},
{
layerId = "29AE4022-23C2-49D3-A156-B9EDF5C2AEE5";
name = Bold;
paths = (
{
closed = 1;
nodes = (
"343 -20 OFFCURVE",
"233 9 OFFCURVE",
"162 54 CURVE SMOOTH",
"90 99 OFFCURVE",
"57 161 OFFCURVE",
"57 225 CURVE SMOOTH",
"57 277 OFFCURVE",
"77 317 OFFCURVE",
"109 345 CURVE SMOOTH",
"141 372 OFFCURVE",
"184 385 OFFCURVE",
"231 385 CURVE",
"231 298 OFFCURVE",
"257 233 OFFCURVE",
"301 189 CURVE SMOOTH",
"345 145 OFFCURVE",
"408 123 OFFCURVE",
"483 123 CURVE SMOOTH",
"550 123 OFFCURVE",
"612 140 OFFCURVE",
"659 185 CURVE SMOOTH",
"706 230 OFFCURVE",
"735 307 OFFCURVE",
"735 424 CURVE SMOOTH",
"735 503 OFFCURVE",
"708 569 OFFCURVE",
"654 617 CURVE SMOOTH",
"600 664 OFFCURVE",
"521 692 OFFCURVE",
"418 692 CURVE SMOOTH",
"291 692 LINE",
"291 819 LINE",
"426 819 LINE SMOOTH",
"514 819 OFFCURVE",
"579 849 OFFCURVE",
"622 902 CURVE SMOOTH",
"665 955 OFFCURVE",
"686 1031 OFFCURVE",
"686 1120 CURVE SMOOTH",
"686 1269 OFFCURVE",
"628 1358 OFFCURVE",
"516 1358 CURVE SMOOTH",
"443 1358 OFFCURVE",
"398 1319 OFFCURVE",
"373 1259 CURVE SMOOTH",
"348 1199 OFFCURVE",
"340 1120 OFFCURVE",
"340 1040 CURVE",
"169 1040 OFFCURVE",
"74 1098 OFFCURVE",
"74 1223 CURVE SMOOTH",
"74 1295 OFFCURVE",
"112 1360 OFFCURVE",
"188 1408 CURVE SMOOTH",
"264 1455 OFFCURVE",
"377 1483 OFFCURVE",
"526 1483 CURVE SMOOTH",
"671 1483 OFFCURVE",
"790 1453 OFFCURVE",
"872 1396 CURVE SMOOTH",
"954 1339 OFFCURVE",
"999 1256 OFFCURVE",
"999 1149 CURVE SMOOTH",
"999 1057 OFFCURVE",
"965 979 OFFCURVE",
"909 918 CURVE SMOOTH",
"853 857 OFFCURVE",
"775 811 OFFCURVE",
"686 780 CURVE",
"769 765 OFFCURVE",
"859 734 OFFCURVE",
"930 678 CURVE SMOOTH",
"1001 622 OFFCURVE",
"1051 539 OFFCURVE",
"1051 422 CURVE SMOOTH",
"1051 255 OFFCURVE",
"984 144 OFFCURVE",
"881 76 CURVE SMOOTH",
"777 7 OFFCURVE",
"639 -20 OFFCURVE",
"498 -20 CURVE SMOOTH"
);
}
);
width = 1145;
}
);
unicode = 0033;
},
{
glyphname = four;
lastChange = "2014-07-27 09:35:43 +0530";
layers = (
{
layerId = "7D009F26-9523-4D0C-936A-45D9328E47A0";
name = Regular;
paths = (
{
closed = 1;
nodes = (
"862 401 LINE",
"862 233 LINE SMOOTH",
"862 169 OFFCURVE",
"882 132 OFFCURVE",
"912 112 CURVE SMOOTH",
"942 91 OFFCURVE",
"985 86 OFFCURVE",
"1030 86 CURVE SMOOTH",
"1057 86 LINE",
"1057 0 LINE",
"440 0 LINE",
"440 86 LINE",
"498 86 LINE SMOOTH",
"545 86 OFFCURVE",
"587 91 OFFCURVE",
"617 112 CURVE SMOOTH",
"647 132 OFFCURVE",
"666 169 OFFCURVE",
"666 233 CURVE SMOOTH",
"666 401 LINE",
"35 401 LINE",
"35 485 LINE",
"668 1462 LINE",
"862 1462 LINE",
"862 516 LINE",
"1116 516 LINE",
"1116 401 LINE"
);
},
{
closed = 1;
nodes = (
"666 895 LINE SMOOTH",
"666 955 OFFCURVE",
"668 1029 OFFCURVE",
"670 1104 CURVE SMOOTH",
"672 1179 OFFCURVE",
"675 1255 OFFCURVE",
"680 1319 CURVE",
"671 1300 OFFCURVE",
"653 1268 OFFCURVE",
"631 1229 CURVE SMOOTH",
"609 1190 OFFCURVE",
"583 1146 OFFCURVE",
"559 1106 CURVE SMOOTH",
"546 1085 OFFCURVE",
"535 1066 OFFCURVE",
"524 1049 CURVE SMOOTH",
"513 1031 OFFCURVE",
"504 1016 OFFCURVE",
"496 1004 CURVE SMOOTH",
"182 516 LINE",
"666 516 LINE"
);
}
);
width = 1145;
},
{
layerId = "29AE4022-23C2-49D3-A156-B9EDF5C2AEE5";
name = Bold;
paths = (
{
closed = 1;
nodes = (
"893 381 LINE",
"893 256 LINE SMOOTH",
"893 192 OFFCURVE",
"913 155 OFFCURVE",
"943 135 CURVE SMOOTH",
"973 114 OFFCURVE",
"1016 109 OFFCURVE",
"1061 109 CURVE SMOOTH",
"1087 109 LINE",
"1087 0 LINE",
"369 0 LINE",
"369 109 LINE",
"426 109 LINE SMOOTH",
"473 109 OFFCURVE",
"515 114 OFFCURVE",
"545 135 CURVE SMOOTH",
"575 155 OFFCURVE",
"594 192 OFFCURVE",
"594 256 CURVE SMOOTH",
"594 381 LINE",
"27 381 LINE",
"27 506 LINE",
"608 1462 LINE",
"893 1462 LINE",
"893 516 LINE",
"1106 516 LINE",
"1106 381 LINE"
);
},
{
closed = 1;
nodes = (
"594 874 LINE SMOOTH",
"594 994 OFFCURVE",
"597 1140 OFFCURVE",
"608 1268 CURVE",
"595 1236 OFFCURVE",
"562 1175 OFFCURVE",
"529 1116 CURVE SMOOTH",
"496 1056 OFFCURVE",
"462 998 OFFCURVE",
"446 973 CURVE SMOOTH",
"170 516 LINE",
"594 516 LINE"
);
}
);
width = 1145;
}
);
unicode = 0034;
},
{
glyphname = five;
lastChange = "2014-07-27 09:36:06 +0530";
layers = (
{
layerId = "7D009F26-9523-4D0C-936A-45D9328E47A0";
name = Regular;
paths = (
{
closed = 1;
nodes = (
"573 100 OFFCURVE",
"646 122 OFFCURVE",
"699 176 CURVE SMOOTH",
"751 230 OFFCURVE",
"782 317 OFFCURVE",
"782 446 CURVE SMOOTH",
"782 554 OFFCURVE",
"752 634 OFFCURVE",
"697 687 CURVE SMOOTH",
"642 740 OFFCURVE",
"566 766 OFFCURVE",
"471 766 CURVE SMOOTH",
"400 766 OFFCURVE",
"351 760 OFFCURVE",
"312 752 CURVE SMOOTH",
"272 743 OFFCURVE",
"244 732 OFFCURVE",
"219 721 CURVE",
"170 735 LINE",
"236 1460 LINE",
"920 1460 LINE",
"930 1151 LINE",
"844 1151 LINE",
"836 1212 LINE SMOOTH",
"832 1241 OFFCURVE",
"826 1262 OFFCURVE",
"810 1276 CURVE SMOOTH",
"794 1290 OFFCURVE",
"768 1296 OFFCURVE",
"725 1296 CURVE SMOOTH",
"328 1296 LINE",
"289 846 LINE",
"330 861 OFFCURVE",
"407 879 OFFCURVE",
"528 879 CURVE SMOOTH",
"660 879 OFFCURVE",
"777 843 OFFCURVE",
"861 771 CURVE SMOOTH",
"945 699 OFFCURVE",
"995 590 OFFCURVE",
"995 446 CURVE SMOOTH",
"995 307 OFFCURVE",
"949 191 OFFCURVE",
"865 109 CURVE SMOOTH",
"780 27 OFFCURVE",
"656 -20 OFFCURVE",
"500 -20 CURVE SMOOTH",
"348 -20 OFFCURVE",
"252 9 OFFCURVE",
"193 49 CURVE SMOOTH",
"134 89 OFFCURVE",
"113 141 OFFCURVE",
"113 186 CURVE SMOOTH",
"113 262 OFFCURVE",
"154 307 OFFCURVE",
"242 307 CURVE",
"242 248 OFFCURVE",
"263 196 OFFCURVE",
"304 160 CURVE SMOOTH",
"344 123 OFFCURVE",
"406 100 OFFCURVE",
"489 100 CURVE SMOOTH"
);
}
);
width = 1145;
},
{
layerId = "29AE4022-23C2-49D3-A156-B9EDF5C2AEE5";
name = Bold;
paths = (
{
closed = 1;
nodes = (
"539 123 OFFCURVE",
"602 143 OFFCURVE",
"648 193 CURVE SMOOTH",
"694 243 OFFCURVE",
"723 326 OFFCURVE",
"723 451 CURVE SMOOTH",
"723 655 OFFCURVE",
"621 754 OFFCURVE",
"444 754 CURVE SMOOTH",
"392 754 OFFCURVE",
"351 750 OFFCURVE",
"315 743 CURVE SMOOTH",
"279 735 OFFCURVE",
"248 726 OFFCURVE",
"217 717 CURVE",
"123 754 LINE",
"188 1462 LINE",
"963 1462 LINE",
"973 1090 LINE",
"856 1090 LINE",
"840 1159 LINE",
"833 1183 OFFCURVE",
"827 1203 OFFCURVE",
"813 1216 CURVE SMOOTH",
"799 1229 OFFCURVE",
"778 1237 OFFCURVE",
"745 1237 CURVE SMOOTH",
"319 1237 LINE",
"319 1236 OFFCURVE",
"319 1231 OFFCURVE",
"318 1220 CURVE SMOOTH",
"317 1209 OFFCURVE",
"315 1194 OFFCURVE",
"314 1176 CURVE SMOOTH",
"313 1158 OFFCURVE",
"311 1138 OFFCURVE",
"309 1115 CURVE SMOOTH",
"307 1092 OFFCURVE",
"305 1069 OFFCURVE",
"303 1046 CURVE SMOOTH",
"287 858 LINE",
"308 866 OFFCURVE",
"344 874 OFFCURVE",
"384 880 CURVE SMOOTH",
"424 886 OFFCURVE",
"471 889 OFFCURVE",
"512 889 CURVE SMOOTH",
"671 889 OFFCURVE",
"801 852 OFFCURVE",
"893 780 CURVE SMOOTH",
"984 707 OFFCURVE",
"1036 598 OFFCURVE",
"1036 451 CURVE SMOOTH",
"1036 274 OFFCURVE",
"965 155 OFFCURVE",
"862 82 CURVE SMOOTH",
"759 9 OFFCURVE",
"626 -20 OFFCURVE",
"502 -20 CURVE SMOOTH",
"349 -20 OFFCURVE",
"244 10 OFFCURVE",
"177 56 CURVE SMOOTH",
"110 102 OFFCURVE",
"82 163 OFFCURVE",
"82 227 CURVE SMOOTH",
"82 323 OFFCURVE",
"146 369 OFFCURVE",
"246 369 CURVE",
"246 310 OFFCURVE",
"260 249 OFFCURVE",
"296 202 CURVE SMOOTH",
"331 155 OFFCURVE",
"387 123 OFFCURVE",
"471 123 CURVE SMOOTH"
);
}
);
width = 1145;
}
);
unicode = 0035;
},
{
glyphname = six;
lastChange = "2014-07-27 09:36:28 +0530";
layers = (
{
layerId = "7D009F26-9523-4D0C-936A-45D9328E47A0";
name = Regular;
paths = (
{
closed = 1;
nodes = (
"454 1384 OFFCURVE",
"351 1181 OFFCURVE",
"336 782 CURVE",
"369 810 OFFCURVE",
"410 837 OFFCURVE",
"458 857 CURVE SMOOTH",
"506 876 OFFCURVE",
"562 889 OFFCURVE",
"629 889 CURVE SMOOTH",
"754 889 OFFCURVE",
"857 849 OFFCURVE",
"929 777 CURVE SMOOTH",
"1000 705 OFFCURVE",
"1040 600 OFFCURVE",
"1040 469 CURVE SMOOTH",
"1040 325 OFFCURVE",
"1000 203 OFFCURVE",
"925 117 CURVE SMOOTH",
"849 31 OFFCURVE",
"740 -20 OFFCURVE",
"600 -20 CURVE SMOOTH",
"464 -20 OFFCURVE",
"345 35 OFFCURVE",
"261 157 CURVE SMOOTH",
"176 279 OFFCURVE",
"125 468 OFFCURVE",
"125 737 CURVE SMOOTH",
"125 866 OFFCURVE",
"144 992 OFFCURVE",
"183 1103 CURVE SMOOTH",
"222 1214 OFFCURVE",
"280 1309 OFFCURVE",
"360 1377 CURVE SMOOTH",
"439 1444 OFFCURVE",
"539 1483 OFFCURVE",
"659 1483 CURVE SMOOTH",
"774 1483 OFFCURVE",
"858 1457 OFFCURVE",
"914 1417 CURVE SMOOTH",
"970 1377 OFFCURVE",
"997 1323 OFFCURVE",
"997 1268 CURVE SMOOTH",
"997 1189 OFFCURVE",
"943 1145 OFFCURVE",
"840 1145 CURVE",
"840 1212 OFFCURVE",
"828 1271 OFFCURVE",
"799 1315 CURVE SMOOTH",
"770 1358 OFFCURVE",
"726 1384 OFFCURVE",
"659 1384 CURVE SMOOTH"
);
},
{
closed = 1;
nodes = (
"535 784 OFFCURVE",
"485 769 OFFCURVE",
"442 747 CURVE SMOOTH",
"398 725 OFFCURVE",
"362 694 OFFCURVE",
"334 666 CURVE",
"337 461 OFFCURVE",
"363 317 OFFCURVE",
"410 225 CURVE SMOOTH",
"457 133 OFFCURVE",
"525 92 OFFCURVE",
"606 92 CURVE SMOOTH",
"753 92 OFFCURVE",
"831 201 OFFCURVE",
"831 449 CURVE SMOOTH",
"831 682 OFFCURVE",
"745 784 OFFCURVE",
"588 784 CURVE SMOOTH"
);
}
);
width = 1145;
},
{
layerId = "29AE4022-23C2-49D3-A156-B9EDF5C2AEE5";
name = Bold;
paths = (
{
closed = 1;
nodes = (
"577 1362 OFFCURVE",
"512 1313 OFFCURVE",
"465 1221 CURVE SMOOTH",
"417 1129 OFFCURVE",
"389 994 OFFCURVE",
"381 821 CURVE",
"409 840 OFFCURVE",
"445 858 OFFCURVE",
"491 873 CURVE SMOOTH",
"537 888 OFFCURVE",
"595 897 OFFCURVE",
"664 897 CURVE SMOOTH",
"788 897 OFFCURVE",
"890 857 OFFCURVE",
"962 785 CURVE SMOOTH",
"1033 712 OFFCURVE",
"1073 606 OFFCURVE",
"1073 473 CURVE SMOOTH",
"1073 326 OFFCURVE",
"1033 204 OFFCURVE",
"954 117 CURVE SMOOTH",
"874 30 OFFCURVE",
"756 -20 OFFCURVE",
"600 -20 CURVE SMOOTH",
"448 -20 OFFCURVE",
"321 34 OFFCURVE",
"233 149 CURVE SMOOTH",
"144 264 OFFCURVE",
"92 437 OFFCURVE",
"92 676 CURVE SMOOTH",
"92 901 OFFCURVE",
"139 1103 OFFCURVE",
"236 1248 CURVE SMOOTH",
"332 1393 OFFCURVE",
"479 1483 OFFCURVE",
"676 1483 CURVE SMOOTH",
"808 1483 OFFCURVE",
"899 1456 OFFCURVE",
"956 1414 CURVE SMOOTH",
"1013 1372 OFFCURVE",
"1038 1316 OFFCURVE",
"1038 1257 CURVE SMOOTH",
"1038 1216 OFFCURVE",
"1022 1175 OFFCURVE",
"983 1146 CURVE SMOOTH",
"944 1117 OFFCURVE",
"884 1098 OFFCURVE",
"793 1098 CURVE",
"793 1159 OFFCURVE",
"786 1225 OFFCURVE",
"766 1276 CURVE SMOOTH",
"746 1327 OFFCURVE",
"712 1362 OFFCURVE",
"657 1362 CURVE SMOOTH"
);
},
{
closed = 1;
nodes = (
"551 772 OFFCURVE",
"508 760 OFFCURVE",
"470 741 CURVE SMOOTH",
"432 722 OFFCURVE",
"398 698 OFFCURVE",
"381 674 CURVE",
"382 478 OFFCURVE",
"407 338 OFFCURVE",
"448 247 CURVE SMOOTH",
"488 156 OFFCURVE",
"543 115 OFFCURVE",
"606 115 CURVE SMOOTH",
"659 115 OFFCURVE",
"700 142 OFFCURVE",
"731 196 CURVE SMOOTH",
"761 249 OFFCURVE",
"776 335 OFFCURVE",
"776 453 CURVE SMOOTH",
"776 674 OFFCURVE",
"705 772 OFFCURVE",
"588 772 CURVE SMOOTH"
);
}
);
width = 1145;
}
);
unicode = 0036;
},
{
glyphname = seven;
lastChange = "2014-07-27 09:36:41 +0530";
layers = (
{
layerId = "7D009F26-9523-4D0C-936A-45D9328E47A0";
name = Regular;
paths = (
{
closed = 1;
nodes = (
"389 0 LINE",
"872 1296 LINE",
"334 1296 LINE SMOOTH",
"261 1296 OFFCURVE",
"221 1261 OFFCURVE",
"215 1192 CURVE SMOOTH",
"207 1090 LINE",
"121 1090 LINE",
"131 1460 LINE",
"1047 1460 LINE",
"1047 1401 LINE",
"543 0 LINE"
);
}
);
width = 1145;
},
{
layerId = "29AE4022-23C2-49D3-A156-B9EDF5C2AEE5";
name = Bold;
paths = (
{
closed = 1;
nodes = (
"338 0 LINE",
"883 1239 LINE",
"344 1239 LINE SMOOTH",
"269 1239 OFFCURVE",
"233 1203 OFFCURVE",
"225 1135 CURVE SMOOTH",
"213 1032 LINE",
"90 1032 LINE",
"100 1462 LINE",
"1077 1462 LINE",
"1077 1362 LINE",
"512 0 LINE"
);
}
);
width = 1145;
}
);
unicode = 0037;
},
{
glyphname = eight;
lastChange = "2014-07-27 09:36:58 +0530";
layers = (
{
layerId = "7D009F26-9523-4D0C-936A-45D9328E47A0";
name = Regular;
paths = (
{
closed = 1;
nodes = (
"94 466 OFFCURVE",
"127 538 OFFCURVE",
"183 596 CURVE SMOOTH",
"239 654 OFFCURVE",
"317 698 OFFCURVE",
"406 741 CURVE",
"329 785 OFFCURVE",
"262 836 OFFCURVE",
"215 897 CURVE SMOOTH",
"168 958 OFFCURVE",
"141 1031 OFFCURVE",
"141 1116 CURVE SMOOTH",
"141 1211 OFFCURVE",
"173 1302 OFFCURVE",
"244 1370 CURVE SMOOTH",
"315 1438 OFFCURVE",
"427 1483 OFFCURVE",
"584 1483 CURVE SMOOTH",
"712 1483 OFFCURVE",
"813 1446 OFFCURVE",
"882 1383 CURVE SMOOTH",
"950 1320 OFFCURVE",
"987 1233 OFFCURVE",
"987 1130 CURVE SMOOTH",
"987 1041 OFFCURVE",
"959 975 OFFCURVE",
"911 921 CURVE SMOOTH",
"863 867 OFFCURVE",
"794 825 OFFCURVE",
"711 784 CURVE",
"812 736 OFFCURVE",
"897 682 OFFCURVE",
"957 618 CURVE SMOOTH",
"1017 554 OFFCURVE",
"1051 480 OFFCURVE",
"1051 391 CURVE SMOOTH",
"1051 262 OFFCURVE",
"1002 159 OFFCURVE",
"917 88 CURVE SMOOTH",
"832 17 OFFCURVE",
"708 -20 OFFCURVE",
"559 -20 CURVE SMOOTH",
"406 -20 OFFCURVE",
"290 23 OFFCURVE",
"212 93 CURVE SMOOTH",
"134 163 OFFCURVE",
"94 259 OFFCURVE",
"94 367 CURVE SMOOTH"
);
},
{
closed = 1;
nodes = (
"658 74 OFFCURVE",
"732 103 OFFCURVE",
"784 151 CURVE SMOOTH",
"835 199 OFFCURVE",
"864 267 OFFCURVE",
"864 346 CURVE SMOOTH",
"864 415 OFFCURVE",
"840 473 OFFCURVE",
"783 529 CURVE SMOOTH",
"726 584 OFFCURVE",
"636 635 OFFCURVE",
"504 692 CURVE",
"375 623 OFFCURVE",
"293 513 OFFCURVE",
"293 358 CURVE SMOOTH",
"293 273 OFFCURVE",
"317 203 OFFCURVE",
"363 153 CURVE SMOOTH",
"409 103 OFFCURVE",
"478 74 OFFCURVE",
"569 74 CURVE SMOOTH"
);
},
{
closed = 1;
nodes = (
"805 1198 OFFCURVE",
"789 1260 OFFCURVE",
"753 1308 CURVE SMOOTH",
"716 1355 OFFCURVE",
"658 1386 OFFCURVE",
"571 1386 CURVE SMOOTH",
"495 1386 OFFCURVE",
"435 1360 OFFCURVE",
"395 1317 CURVE SMOOTH",
"355 1273 OFFCURVE",
"334 1212 OFFCURVE",
"334 1141 CURVE SMOOTH",
"334 1068 OFFCURVE",
"358 1010 OFFCURVE",
"404 962 CURVE SMOOTH",
"450 914 OFFCURVE",
"519 874 OFFCURVE",
"610 831 CURVE",
"687 870 OFFCURVE",
"736 909 OFFCURVE",
"765 958 CURVE SMOOTH",
"794 1006 OFFCURVE",
"805 1063 OFFCURVE",
"805 1135 CURVE SMOOTH"
);
}
);
width = 1145;
},
{
layerId = "29AE4022-23C2-49D3-A156-B9EDF5C2AEE5";
name = Bold;
paths = (
{
closed = 1;
nodes = (
"61 461 OFFCURVE",
"91 531 OFFCURVE",
"144 589 CURVE SMOOTH",
"197 647 OFFCURVE",
"273 694 OFFCURVE",
"362 739 CURVE",
"199 834 OFFCURVE",
"109 950 OFFCURVE",
"109 1110 CURVE SMOOTH",
"109 1205 OFFCURVE",
"139 1299 OFFCURVE",
"214 1368 CURVE SMOOTH",
"289 1437 OFFCURVE",
"408 1483 OFFCURVE",
"584 1483 CURVE SMOOTH",
"728 1483 OFFCURVE",
"837 1445 OFFCURVE",
"910 1381 CURVE SMOOTH",
"983 1317 OFFCURVE",
"1020 1228 OFFCURVE",
"1020 1124 CURVE SMOOTH",
"1020 1043 OFFCURVE",
"993 982 OFFCURVE",
"945 931 CURVE SMOOTH",
"897 879 OFFCURVE",
"828 837 OFFCURVE",
"743 793 CURVE",
"866 733 OFFCURVE",
"952 674 OFFCURVE",
"1006 608 CURVE SMOOTH",
"1060 542 OFFCURVE",
"1083 470 OFFCURVE",
"1083 387 CURVE SMOOTH",
"1083 258 OFFCURVE",
"1035 156 OFFCURVE",
"945 87 CURVE SMOOTH",
"855 18 OFFCURVE",
"724 -20 OFFCURVE",
"559 -20 CURVE SMOOTH",
"388 -20 OFFCURVE",
"264 24 OFFCURVE",
"182 95 CURVE SMOOTH",
"100 166 OFFCURVE",
"61 265 OFFCURVE",
"61 373 CURVE SMOOTH"
);
},
{
closed = 1;
nodes = (
"640 96 OFFCURVE",
"697 123 OFFCURVE",
"737 168 CURVE SMOOTH",
"777 213 OFFCURVE",
"799 277 OFFCURVE",
"799 352 CURVE SMOOTH",
"799 419 OFFCURVE",
"777 471 OFFCURVE",
"729 519 CURVE SMOOTH",
"680 566 OFFCURVE",
"605 609 OFFCURVE",
"500 657 CURVE",
"455 628 OFFCURVE",
"413 590 OFFCURVE",
"385 543 CURVE SMOOTH",
"356 495 OFFCURVE",
"338 437 OFFCURVE",
"338 365 CURVE SMOOTH",
"338 285 OFFCURVE",
"361 218 OFFCURVE",
"402 171 CURVE SMOOTH",
"442 123 OFFCURVE",
"500 96 OFFCURVE",
"569 96 CURVE SMOOTH"
);
},
{
closed = 1;
nodes = (
"762 1187 OFFCURVE",
"745 1246 OFFCURVE",
"713 1290 CURVE SMOOTH",
"681 1334 OFFCURVE",
"634 1364 OFFCURVE",
"571 1364 CURVE SMOOTH",
"515 1364 OFFCURVE",
"471 1339 OFFCURVE",
"442 1299 CURVE SMOOTH",
"413 1258 OFFCURVE",
"397 1200 OFFCURVE",
"397 1135 CURVE SMOOTH",
"397 1064 OFFCURVE",
"417 1013 OFFCURVE",
"454 970 CURVE SMOOTH",
"491 927 OFFCURVE",
"546 895 OFFCURVE",
"618 862 CURVE",
"669 891 OFFCURVE",
"704 923 OFFCURVE",
"728 966 CURVE SMOOTH",
"751 1009 OFFCURVE",
"762 1060 OFFCURVE",
"762 1128 CURVE SMOOTH"
);
}
);
width = 1145;
}
);
unicode = 0038;
},
{
glyphname = nine;
lastChange = "2014-07-27 09:37:14 +0530";
layers = (
{
layerId = "7D009F26-9523-4D0C-936A-45D9328E47A0";
name = Regular;
paths = (
{
closed = 1;
nodes = (
"694 90 OFFCURVE",
"796 291 OFFCURVE",
"809 702 CURVE",
"780 666 OFFCURVE",
"741 632 OFFCURVE",
"691 606 CURVE SMOOTH",
"641 580 OFFCURVE",
"580 563 OFFCURVE",
"508 563 CURVE SMOOTH",
"389 563 OFFCURVE",
"288 598 OFFCURVE",
"217 667 CURVE SMOOTH",
"145 736 OFFCURVE",
"104 840 OFFCURVE",
"104 979 CURVE SMOOTH",
"104 1127 OFFCURVE",
"145 1253 OFFCURVE",
"221 1342 CURVE SMOOTH",
"296 1430 OFFCURVE",
"406 1483 OFFCURVE",
"543 1483 CURVE SMOOTH",
"682 1483 OFFCURVE",
"800 1431 OFFCURVE",
"885 1319 CURVE SMOOTH",
"970 1207 OFFCURVE",
"1020 1035 OFFCURVE",
"1020 795 CURVE SMOOTH",
"1020 652 OFFCURVE",
"1003 513 OFFCURVE",
"965 392 CURVE SMOOTH",
"927 271 OFFCURVE",
"868 168 OFFCURVE",
"786 94 CURVE SMOOTH",
"704 20 OFFCURVE",
"597 -23 OFFCURVE",
"465 -23 CURVE SMOOTH",
"349 -23 OFFCURVE",
"274 0 OFFCURVE",
"230 33 CURVE SMOOTH",
"185 66 OFFCURVE",
"168 111 OFFCURVE",
"168 154 CURVE SMOOTH",
"168 205 OFFCURVE",
"198 241 OFFCURVE",
"229 252 CURVE",
"248 209 OFFCURVE",
"274 169 OFFCURVE",
"314 139 CURVE SMOOTH",
"353 109 OFFCURVE",
"403 90 OFFCURVE",
"467 90 CURVE SMOOTH"
);
},
{
closed = 1;
nodes = (
"620 685 OFFCURVE",
"675 705 OFFCURVE",
"718 735 CURVE SMOOTH",
"761 765 OFFCURVE",
"792 806 OFFCURVE",
"811 850 CURVE",
"811 854 LINE",
"808 1034 OFFCURVE",
"781 1163 OFFCURVE",
"734 1247 CURVE SMOOTH",
"687 1331 OFFCURVE",
"622 1370 OFFCURVE",
"543 1370 CURVE SMOOTH",
"398 1370 OFFCURVE",
"315 1240 OFFCURVE",
"315 999 CURVE SMOOTH",
"315 887 OFFCURVE",
"335 808 OFFCURVE",
"375 757 CURVE SMOOTH",
"415 706 OFFCURVE",
"474 684 OFFCURVE",
"553 684 CURVE SMOOTH"
);
}
);
width = 1145;
},
{
layerId = "29AE4022-23C2-49D3-A156-B9EDF5C2AEE5";
name = Bold;
paths = (
{
closed = 1;
nodes = (
"341 -20 OFFCURVE",
"257 8 OFFCURVE",
"204 52 CURVE SMOOTH",
"151 95 OFFCURVE",
"129 152 OFFCURVE",
"129 211 CURVE SMOOTH",
"129 271 OFFCURVE",
"160 313 OFFCURVE",
"229 328 CURVE",
"249 267 OFFCURVE",
"276 212 OFFCURVE",
"316 173 CURVE SMOOTH",
"355 133 OFFCURVE",
"407 109 OFFCURVE",
"475 109 CURVE SMOOTH",
"567 109 OFFCURVE",
"638 159 OFFCURVE",
"688 258 CURVE SMOOTH",
"737 357 OFFCURVE",
"765 505 OFFCURVE",
"772 702 CURVE",
"740 662 OFFCURVE",
"701 628 OFFCURVE",
"652 603 CURVE SMOOTH",
"603 578 OFFCURVE",
"544 563 OFFCURVE",
"473 563 CURVE SMOOTH",
"356 563 OFFCURVE",
"256 600 OFFCURVE",
"185 672 CURVE SMOOTH",
"113 743 OFFCURVE",
"72 850 OFFCURVE",
"72 987 CURVE SMOOTH",
"72 1135 OFFCURVE",
"116 1258 OFFCURVE",
"197 1346 CURVE SMOOTH",
"277 1433 OFFCURVE",
"394 1483 OFFCURVE",
"541 1483 CURVE SMOOTH",
"689 1483 OFFCURVE",
"817 1431 OFFCURVE",
"909 1319 CURVE SMOOTH",
"1000 1207 OFFCURVE",
"1053 1035 OFFCURVE",
"1053 795 CURVE SMOOTH",
"1053 570 OFFCURVE",
"1011 366 OFFCURVE",
"917 219 CURVE SMOOTH",
"823 71 OFFCURVE",
"676 -20 OFFCURVE",
"465 -20 CURVE SMOOTH"
);
},
{
closed = 1;
nodes = (
"660 711 OFFCURVE",
"731 765 OFFCURVE",
"772 848 CURVE",
"771 1023 OFFCURVE",
"748 1147 OFFCURVE",
"710 1228 CURVE SMOOTH",
"672 1308 OFFCURVE",
"617 1346 OFFCURVE",
"553 1346 CURVE SMOOTH",
"436 1346 OFFCURVE",
"369 1231 OFFCURVE",
"369 999 CURVE SMOOTH",
"369 810 OFFCURVE",
"433 711 OFFCURVE",
"561 711 CURVE SMOOTH"
);
}
);
width = 1145;
}
);
unicode = 0039;
},
{
glyphname = colon;
lastChange = "2014-07-27 09:37:32 +0530";
layers = (
{
layerId = "7D009F26-9523-4D0C-936A-45D9328E47A0";
name = Regular;
paths = (
{
closed = 1;
nodes = (
"166 178 OFFCURVE",
"180 213 OFFCURVE",
"204 234 CURVE SMOOTH",
"227 255 OFFCURVE",
"259 264 OFFCURVE",
"295 264 CURVE SMOOTH",
"330 264 OFFCURVE",
"362 255 OFFCURVE",
"386 234 CURVE SMOOTH",
"409 213 OFFCURVE",
"424 178 OFFCURVE",
"424 125 CURVE SMOOTH",
"424 73 OFFCURVE",
"409 37 OFFCURVE",
"386 16 CURVE SMOOTH",
"362 -5 OFFCURVE",
"330 -14 OFFCURVE",
"295 -14 CURVE SMOOTH",
"259 -14 OFFCURVE",
"227 -5 OFFCURVE",
"204 16 CURVE SMOOTH",
"180 37 OFFCURVE",
"166 73 OFFCURVE",
"166 125 CURVE SMOOTH"
);
},
{
closed = 1;
nodes = (
"166 1022 OFFCURVE",
"180 1057 OFFCURVE",
"204 1078 CURVE SMOOTH",
"227 1099 OFFCURVE",
"259 1108 OFFCURVE",
"295 1108 CURVE SMOOTH",
"330 1108 OFFCURVE",
"362 1099 OFFCURVE",
"386 1078 CURVE SMOOTH",
"409 1057 OFFCURVE",
"424 1022 OFFCURVE",
"424 969 CURVE SMOOTH",
"424 917 OFFCURVE",
"409 882 OFFCURVE",
"386 860 CURVE SMOOTH",
"362 838 OFFCURVE",
"330 829 OFFCURVE",
"295 829 CURVE SMOOTH",
"259 829 OFFCURVE",
"227 838 OFFCURVE",
"204 860 CURVE SMOOTH",
"180 882 OFFCURVE",
"166 917 OFFCURVE",
"166 969 CURVE SMOOTH"
);
}
);
width = 588;
},
{
layerId = "29AE4022-23C2-49D3-A156-B9EDF5C2AEE5";
name = Bold;
paths = (
{
closed = 1;
nodes = (
"143 210 OFFCURVE",
"162 251 OFFCURVE",
"192 276 CURVE SMOOTH",
"222 301 OFFCURVE",
"264 311 OFFCURVE",
"311 311 CURVE SMOOTH",
"356 311 OFFCURVE",
"398 301 OFFCURVE",
"429 276 CURVE SMOOTH",
"460 251 OFFCURVE",
"479 210 OFFCURVE",
"479 147 CURVE SMOOTH",
"479 86 OFFCURVE",
"460 45 OFFCURVE",
"429 20 CURVE SMOOTH",
"398 -5 OFFCURVE",
"356 -16 OFFCURVE",
"311 -16 CURVE SMOOTH",
"264 -16 OFFCURVE",
"222 -5 OFFCURVE",
"192 20 CURVE SMOOTH",
"162 45 OFFCURVE",
"143 86 OFFCURVE",
"143 147 CURVE SMOOTH"
);
},
{
closed = 1;
nodes = (
"143 1015 OFFCURVE",
"162 1056 OFFCURVE",
"192 1081 CURVE SMOOTH",
"222 1106 OFFCURVE",
"264 1116 OFFCURVE",
"311 1116 CURVE SMOOTH",
"356 1116 OFFCURVE",
"398 1106 OFFCURVE",
"429 1081 CURVE SMOOTH",
"460 1056 OFFCURVE",
"479 1015 OFFCURVE",
"479 952 CURVE SMOOTH",
"479 891 OFFCURVE",
"460 849 OFFCURVE",
"429 824 CURVE SMOOTH",
"398 799 OFFCURVE",
"356 788 OFFCURVE",
"311 788 CURVE SMOOTH",
"264 788 OFFCURVE",
"222 799 OFFCURVE",
"192 824 CURVE SMOOTH",
"162 849 OFFCURVE",
"143 891 OFFCURVE",
"143 952 CURVE SMOOTH"
);
}
);
width = 623;
}
);
unicode = 003A;
},
{
glyphname = semicolon;
lastChange = "2014-07-27 09:37:46 +0530";
layers = (
{
layerId = "7D009F26-9523-4D0C-936A-45D9328E47A0";
name = Regular;
paths = (
{
closed = 1;
nodes = (
"397 -1 OFFCURVE",
"375 -84 OFFCURVE",
"321 -153 CURVE SMOOTH",
"267 -222 OFFCURVE",
"184 -279 OFFCURVE",
"61 -315 CURVE",
"61 -229 LINE",
"196 -186 OFFCURVE",
"256 -125 OFFCURVE",
"256 -45 CURVE SMOOTH",
"256 -18 OFFCURVE",
"240 -1 OFFCURVE",
"217 13 CURVE SMOOTH",
"206 20 OFFCURVE",
"194 26 OFFCURVE",
"181 33 CURVE SMOOTH",
"156 46 OFFCURVE",
"132 64 OFFCURVE",
"117 92 CURVE SMOOTH",
"110 105 OFFCURVE",
"106 122 OFFCURVE",
"106 143 CURVE SMOOTH",
"106 222 OFFCURVE",
"164 264 OFFCURVE",
"240 264 CURVE SMOOTH",
"283 264 OFFCURVE",
"321 249 OFFCURVE",
"350 219 CURVE SMOOTH",
"379 189 OFFCURVE",
"397 143 OFFCURVE",
"397 86 CURVE SMOOTH"
);
},
{
closed = 1;
nodes = (
"129 1022 OFFCURVE",
"143 1057 OFFCURVE",
"167 1078 CURVE SMOOTH",
"190 1099 OFFCURVE",
"222 1108 OFFCURVE",
"258 1108 CURVE SMOOTH",
"293 1108 OFFCURVE",
"325 1099 OFFCURVE",
"349 1078 CURVE SMOOTH",
"372 1057 OFFCURVE",
"387 1022 OFFCURVE",
"387 969 CURVE SMOOTH",
"387 917 OFFCURVE",
"372 882 OFFCURVE",
"349 860 CURVE SMOOTH",
"325 838 OFFCURVE",
"293 829 OFFCURVE",
"258 829 CURVE SMOOTH",
"222 829 OFFCURVE",
"190 838 OFFCURVE",
"167 860 CURVE SMOOTH",
"143 882 OFFCURVE",
"129 917 OFFCURVE",
"129 969 CURVE SMOOTH"
);
}
);
width = 512;
},
{
layerId = "29AE4022-23C2-49D3-A156-B9EDF5C2AEE5";
name = Bold;
paths = (
{
closed = 1;
nodes = (
"459 -1 OFFCURVE",
"434 -84 OFFCURVE",
"375 -153 CURVE SMOOTH",
"316 -222 OFFCURVE",
"225 -279 OFFCURVE",
"92 -315 CURVE",
"92 -209 LINE",
"152 -188 OFFCURVE",
"197 -167 OFFCURVE",
"227 -142 CURVE SMOOTH",
"257 -118 OFFCURVE",
"272 -89 OFFCURVE",
"272 -49 CURVE SMOOTH",
"272 -24 OFFCURVE",
"256 -9 OFFCURVE",
"234 6 CURVE SMOOTH",
"223 13 OFFCURVE",
"211 21 OFFCURVE",
"198 29 CURVE SMOOTH",
"172 44 OFFCURVE",
"149 67 OFFCURVE",
"134 103 CURVE SMOOTH",
"127 120 OFFCURVE",
"123 143 OFFCURVE",
"123 170 CURVE SMOOTH",
"123 262 OFFCURVE",
"186 311 OFFCURVE",
"270 311 CURVE SMOOTH",
"386 311 OFFCURVE",
"459 226 OFFCURVE",
"459 86 CURVE SMOOTH"
);
},
{
closed = 1;
nodes = (
"143 1015 OFFCURVE",
"162 1056 OFFCURVE",
"192 1081 CURVE SMOOTH",
"222 1106 OFFCURVE",
"264 1116 OFFCURVE",
"311 1116 CURVE SMOOTH",
"356 1116 OFFCURVE",
"398 1106 OFFCURVE",
"429 1081 CURVE SMOOTH",
"460 1056 OFFCURVE",
"479 1015 OFFCURVE",
"479 952 CURVE SMOOTH",
"479 891 OFFCURVE",
"460 849 OFFCURVE",
"429 824 CURVE SMOOTH",
"398 799 OFFCURVE",
"356 788 OFFCURVE",
"311 788 CURVE SMOOTH",
"264 788 OFFCURVE",
"222 799 OFFCURVE",
"192 824 CURVE SMOOTH",
"162 849 OFFCURVE",
"143 891 OFFCURVE",
"143 952 CURVE SMOOTH"
);
}
);
width = 602;
}
);
unicode = 003B;
},
{
glyphname = less;
lastChange = "2014-07-27 09:38:11 +0530";
layers = (
{
layerId = "7D009F26-9523-4D0C-936A-45D9328E47A0";
name = Regular;
paths = (
{
closed = 1;
nodes = (
"133 696 LINE",
"133 768 LINE",
"1012 1241 LINE",
"1012 1104 LINE",
"324 731 LINE",
"1012 362 LINE",
"1012 225 LINE"
);
}
);
width = 1145;
},
{
layerId = "29AE4022-23C2-49D3-A156-B9EDF5C2AEE5";
name = Bold;
paths = (
{
closed = 1;
nodes = (
"133 690 LINE",
"133 774 LINE",
"1012 1253 LINE",
"1012 1092 LINE",
"352 731 LINE",
"1012 375 LINE",
"1012 213 LINE"
);
}
);
width = 1145;
}
);
unicode = 003C;
},
{
glyphname = equal;
lastChange = "2014-07-27 09:38:34 +0530";
layers = (
{
layerId = "7D009F26-9523-4D0C-936A-45D9328E47A0";
name = Regular;
paths = (
{
closed = 1;
nodes = (
"1012 590 LINE",
"1012 469 LINE",
"133 469 LINE",
"133 590 LINE"
);
},
{
closed = 1;
nodes = (
"1012 993 LINE",
"1012 872 LINE",
"133 872 LINE",
"133 993 LINE"
);
}
);
width = 1145;
},
{
layerId = "29AE4022-23C2-49D3-A156-B9EDF5C2AEE5";
name = Bold;
paths = (
{
closed = 1;
nodes = (
"1016 604 LINE",
"1016 461 LINE",
"129 461 LINE",
"129 604 LINE"
);
},
{
closed = 1;
nodes = (
"1016 1001 LINE",
"1016 858 LINE",
"129 858 LINE",
"129 1001 LINE"
);
}
);
width = 1145;
}
);
unicode = 003D;
},
{
glyphname = greater;
lastChange = "2014-07-27 09:39:00 +0530";
layers = (
{
layerId = "7D009F26-9523-4D0C-936A-45D9328E47A0";
name = Regular;
paths = (
{
closed = 1;
nodes = (
"133 225 LINE",
"133 362 LINE",
"821 731 LINE",
"133 1104 LINE",
"133 1241 LINE",
"1012 768 LINE",
"1012 696 LINE"
);
}
);
width = 1145;
},
{
layerId = "29AE4022-23C2-49D3-A156-B9EDF5C2AEE5";
name = Bold;
paths = (
{
closed = 1;
nodes = (
"133 213 LINE",
"133 375 LINE",
"793 731 LINE",
"133 1092 LINE",
"133 1253 LINE",
"1012 774 LINE",
"1012 690 LINE"
);
}
);
width = 1145;
}
);
unicode = 003E;
},
{
glyphname = question;
lastChange = "2014-07-27 09:39:18 +0530";
layers = (
{
layerId = "7D009F26-9523-4D0C-936A-45D9328E47A0";
name = Regular;
paths = (
{
closed = 1;
nodes = (
"522 412 LINE",
"397 412 LINE",
"397 723 LINE",
"516 771 OFFCURVE",
"595 836 OFFCURVE",
"644 910 CURVE SMOOTH",
"692 984 OFFCURVE",
"711 1066 OFFCURVE",
"711 1147 CURVE SMOOTH",
"711 1218 OFFCURVE",
"694 1277 OFFCURVE",
"658 1318 CURVE SMOOTH",
"622 1358 OFFCURVE",
"566 1382 OFFCURVE",
"487 1382 CURVE SMOOTH",
"402 1382 OFFCURVE",
"345 1352 OFFCURVE",
"309 1304 CURVE SMOOTH",
"273 1256 OFFCURVE",
"258 1191 OFFCURVE",
"258 1120 CURVE",
"209 1120 OFFCURVE",
"167 1132 OFFCURVE",
"137 1154 CURVE SMOOTH",
"107 1176 OFFCURVE",
"88 1209 OFFCURVE",
"88 1253 CURVE SMOOTH",
"88 1318 OFFCURVE",
"117 1376 OFFCURVE",
"181 1417 CURVE SMOOTH",
"244 1458 OFFCURVE",
"339 1483 OFFCURVE",
"471 1483 CURVE SMOOTH",
"600 1483 OFFCURVE",
"712 1449 OFFCURVE",
"792 1386 CURVE SMOOTH",
"872 1322 OFFCURVE",
"920 1229 OFFCURVE",
"920 1112 CURVE SMOOTH",
"920 1000 OFFCURVE",
"884 909 OFFCURVE",
"816 833 CURVE SMOOTH",
"748 757 OFFCURVE",
"649 695 OFFCURVE",
"522 643 CURVE"
);
},
{
closed = 1;
nodes = (
"328 178 OFFCURVE",
"342 213 OFFCURVE",
"366 234 CURVE SMOOTH",
"389 255 OFFCURVE",
"421 264 OFFCURVE",
"457 264 CURVE SMOOTH",
"492 264 OFFCURVE",
"524 255 OFFCURVE",
"548 234 CURVE SMOOTH",
"571 213 OFFCURVE",
"586 178 OFFCURVE",
"586 125 CURVE SMOOTH",
"586 73 OFFCURVE",
"571 37 OFFCURVE",
"548 16 CURVE SMOOTH",
"524 -5 OFFCURVE",
"492 -14 OFFCURVE",
"457 -14 CURVE SMOOTH",
"421 -14 OFFCURVE",
"389 -5 OFFCURVE",
"366 16 CURVE SMOOTH",
"342 37 OFFCURVE",
"328 73 OFFCURVE",
"328 125 CURVE SMOOTH"
);
}
);
width = 1024;
},
{
layerId = "29AE4022-23C2-49D3-A156-B9EDF5C2AEE5";
name = Bold;
paths = (
{
closed = 1;
nodes = (
"1014 997 OFFCURVE",
"980 912 OFFCURVE",
"912 840 CURVE SMOOTH",
"844 768 OFFCURVE",
"742 709 OFFCURVE",
"606 653 CURVE",
"565 467 LINE",
"440 467 LINE",
"399 719 LINE",
"516 766 OFFCURVE",
"588 831 OFFCURVE",
"632 904 CURVE SMOOTH",
"675 976 OFFCURVE",
"688 1058 OFFCURVE",
"688 1139 CURVE SMOOTH",
"688 1204 OFFCURVE",
"677 1259 OFFCURVE",
"651 1299 CURVE SMOOTH",
"625 1338 OFFCURVE",
"584 1360 OFFCURVE",
"528 1360 CURVE SMOOTH",
"467 1360 OFFCURVE",
"426 1330 OFFCURVE",
"401 1283 CURVE SMOOTH",
"376 1236 OFFCURVE",
"365 1171 OFFCURVE",
"365 1102 CURVE",
"281 1102 OFFCURVE",
"209 1114 OFFCURVE",
"158 1138 CURVE SMOOTH",
"106 1161 OFFCURVE",
"76 1197 OFFCURVE",
"76 1245 CURVE SMOOTH",
"76 1312 OFFCURVE",
"110 1371 OFFCURVE",
"182 1414 CURVE SMOOTH",
"253 1457 OFFCURVE",
"361 1483 OFFCURVE",
"512 1483 CURVE SMOOTH",
"656 1483 OFFCURVE",
"782 1448 OFFCURVE",
"871 1384 CURVE SMOOTH",
"960 1319 OFFCURVE",
"1014 1225 OFFCURVE",
"1014 1106 CURVE SMOOTH"
);
},
{
closed = 1;
nodes = (
"332 210 OFFCURVE",
"351 251 OFFCURVE",
"381 276 CURVE SMOOTH",
"411 301 OFFCURVE",
"453 311 OFFCURVE",
"500 311 CURVE SMOOTH",
"545 311 OFFCURVE",
"587 301 OFFCURVE",
"618 276 CURVE SMOOTH",
"649 251 OFFCURVE",
"668 210 OFFCURVE",
"668 147 CURVE SMOOTH",
"668 86 OFFCURVE",
"649 45 OFFCURVE",
"618 20 CURVE SMOOTH",
"587 -5 OFFCURVE",
"545 -16 OFFCURVE",
"500 -16 CURVE SMOOTH",
"453 -16 OFFCURVE",
"411 -5 OFFCURVE",
"381 20 CURVE SMOOTH",
"351 45 OFFCURVE",
"332 86 OFFCURVE",
"332 147 CURVE SMOOTH"
);
}
);
width = 1126;
}
);
unicode = 003F;
},
{
glyphname = at;
lastChange = "2014-07-27 09:39:39 +0530";
layers = (
{
layerId = "7D009F26-9523-4D0C-936A-45D9328E47A0";
name = Regular;
paths = (
{
closed = 1;
nodes = (
"1778 606 OFFCURVE",
"1725 444 OFFCURVE",
"1648 332 CURVE SMOOTH",
"1571 220 OFFCURVE",
"1471 158 OFFCURVE",
"1376 158 CURVE SMOOTH",
"1255 158 OFFCURVE",
"1174 227 OFFCURVE",
"1135 344 CURVE",
"1124 344 LINE",
"1096 291 OFFCURVE",
"1061 244 OFFCURVE",
"1017 211 CURVE SMOOTH",
"972 178 OFFCURVE",
"917 158 OFFCURVE",
"848 158 CURVE SMOOTH",
"765 158 OFFCURVE",
"687 186 OFFCURVE",
"631 243 CURVE SMOOTH",
"574 300 OFFCURVE",
"537 388 OFFCURVE",
"537 508 CURVE SMOOTH",
"537 581 OFFCURVE",
"553 670 OFFCURVE",
"589 755 CURVE SMOOTH",
"624 839 OFFCURVE",
"679 922 OFFCURVE",
"756 983 CURVE SMOOTH",
"833 1043 OFFCURVE",
"934 1083 OFFCURVE",
"1059 1083 CURVE SMOOTH",
"1147 1083 OFFCURVE",
"1210 1055 OFFCURVE",
"1251 1022 CURVE",
"1333 1065 LINE",
"1382 1065 LINE",
"1278 543 LINE",
"1276 527 OFFCURVE",
"1274 511 OFFCURVE",
"1271 495 CURVE",
"1267 468 OFFCURVE",
"1264 434 OFFCURVE",
"1264 406 CURVE SMOOTH",
"1264 358 OFFCURVE",
"1279 323 OFFCURVE",
"1302 300 CURVE SMOOTH",
"1325 276 OFFCURVE",
"1356 266 OFFCURVE",
"1389 266 CURVE SMOOTH",
"1449 266 OFFCURVE",
"1515 315 OFFCURVE",
"1566 408 CURVE SMOOTH",
"1617 500 OFFCURVE",
"1653 636 OFFCURVE",
"1653 809 CURVE SMOOTH",
"1653 988 OFFCURVE",
"1593 1125 OFFCURVE",
"1491 1218 CURVE SMOOTH",
"1389 1310 OFFCURVE",
"1244 1358 OFFCURVE",
"1073 1358 CURVE SMOOTH",
"940 1358 OFFCURVE",
"809 1320 OFFCURVE",
"694 1248 CURVE SMOOTH",
"579 1175 OFFCURVE",
"479 1070 OFFCURVE",
"408 936 CURVE SMOOTH",
"337 802 OFFCURVE",
"295 638 OFFCURVE",
"295 451 CURVE SMOOTH",
"295 223 OFFCURVE",
"365 65 OFFCURVE",
"477 -37 CURVE SMOOTH",
"588 -139 OFFCURVE",
"740 -184 OFFCURVE",
"905 -184 CURVE SMOOTH",
"1017 -184 OFFCURVE",
"1117 -163 OFFCURVE",
"1205 -131 CURVE SMOOTH",
"1292 -99 OFFCURVE",
"1366 -57 OFFCURVE",
"1425 -14 CURVE",
"1473 -88 LINE",
"1405 -139 OFFCURVE",
"1321 -189 OFFCURVE",
"1223 -227 CURVE SMOOTH",
"1125 -265 OFFCURVE",
"1012 -291 OFFCURVE",
"885 -291 CURVE SMOOTH",
"665 -291 OFFCURVE",
"477 -231 OFFCURVE",
"345 -108 CURVE SMOOTH",
"212 15 OFFCURVE",
"133 198 OFFCURVE",
"133 446 CURVE SMOOTH",
"133 639 OFFCURVE",
"176 816 OFFCURVE",
"256 967 CURVE SMOOTH",
"335 1118 OFFCURVE",
"449 1242 OFFCURVE",
"590 1328 CURVE SMOOTH",
"731 1414 OFFCURVE",
"898 1462 OFFCURVE",
"1085 1462 CURVE SMOOTH",
"1314 1462 OFFCURVE",
"1488 1390 OFFCURVE",
"1604 1272 CURVE SMOOTH",
"1720 1154 OFFCURVE",
"1778 988 OFFCURVE",
"1778 803 CURVE SMOOTH"
);
},
{
closed = 1;
nodes = (
"727 335 OFFCURVE",
"791 266 OFFCURVE",
"883 266 CURVE SMOOTH",
"952 266 OFFCURVE",
"1002 299 OFFCURVE",
"1037 347 CURVE SMOOTH",
"1072 395 OFFCURVE",
"1092 459 OFFCURVE",
"1104 522 CURVE SMOOTH",
"1182 938 LINE",
"1165 977 OFFCURVE",
"1116 999 OFFCURVE",
"1067 999 CURVE SMOOTH",
"986 999 OFFCURVE",
"920 960 OFFCURVE",
"870 903 CURVE SMOOTH",
"820 846 OFFCURVE",
"784 768 OFFCURVE",
"761 691 CURVE SMOOTH",
"737 614 OFFCURVE",
"727 538 OFFCURVE",
"727 479 CURVE SMOOTH"
);
}
);
width = 1886;
},
{
layerId = "29AE4022-23C2-49D3-A156-B9EDF5C2AEE5";
name = Bold;
paths = (
{
closed = 1;
nodes = (
"1806 599 OFFCURVE",
"1752 438 OFFCURVE",
"1672 328 CURVE SMOOTH",
"1592 218 OFFCURVE",
"1487 158 OFFCURVE",
"1384 158 CURVE SMOOTH",
"1263 158 OFFCURVE",
"1178 213 OFFCURVE",
"1133 350 CURVE",
"1120 350 LINE",
"1092 297 OFFCURVE",
"1056 249 OFFCURVE",
"1011 214 CURVE SMOOTH",
"966 179 OFFCURVE",
"910 158 OFFCURVE",
"838 158 CURVE SMOOTH",
"753 158 OFFCURVE",
"672 186 OFFCURVE",
"613 243 CURVE SMOOTH",
"553 300 OFFCURVE",
"516 388 OFFCURVE",
"516 508 CURVE SMOOTH",
"516 581 OFFCURVE",
"533 670 OFFCURVE",
"571 755 CURVE SMOOTH",
"609 839 OFFCURVE",
"666 922 OFFCURVE",
"748 983 CURVE SMOOTH",
"830 1043 OFFCURVE",
"935 1083 OFFCURVE",
"1067 1083 CURVE SMOOTH",
"1162 1083 OFFCURVE",
"1229 1055 OFFCURVE",
"1272 1022 CURVE",
"1358 1065 LINE",
"1407 1065 LINE",
"1321 553 LINE SMOOTH",
"1318 537 OFFCURVE",
"1315 510 OFFCURVE",
"1312 483 CURVE SMOOTH",
"1309 456 OFFCURVE",
"1307 430 OFFCURVE",
"1307 414 CURVE SMOOTH",
"1307 358 OFFCURVE",
"1320 323 OFFCURVE",
"1339 303 CURVE SMOOTH",
"1358 282 OFFCURVE",
"1382 276 OFFCURVE",
"1405 276 CURVE SMOOTH",
"1460 276 OFFCURVE",
"1518 322 OFFCURVE",
"1563 410 CURVE SMOOTH",
"1608 497 OFFCURVE",
"1640 627 OFFCURVE",
"1640 795 CURVE SMOOTH",
"1640 982 OFFCURVE",
"1580 1123 OFFCURVE",
"1480 1217 CURVE SMOOTH",
"1379 1311 OFFCURVE",
"1236 1358 OFFCURVE",
"1071 1358 CURVE SMOOTH",
"942 1358 OFFCURVE",
"814 1321 OFFCURVE",
"700 1252 CURVE SMOOTH",
"586 1183 OFFCURVE",
"488 1081 OFFCURVE",
"417 953 CURVE SMOOTH",
"346 824 OFFCURVE",
"305 667 OFFCURVE",
"305 487 CURVE SMOOTH",
"305 246 OFFCURVE",
"382 77 OFFCURVE",
"506 -31 CURVE SMOOTH",
"629 -139 OFFCURVE",
"799 -186 OFFCURVE",
"983 -186 CURVE SMOOTH",
"1094 -186 OFFCURVE",
"1200 -164 OFFCURVE",
"1295 -132 CURVE SMOOTH",
"1390 -100 OFFCURVE",
"1472 -57 OFFCURVE",
"1536 -14 CURVE",
"1585 -92 LINE",
"1513 -147 OFFCURVE",
"1421 -196 OFFCURVE",
"1314 -232 CURVE SMOOTH",
"1206 -268 OFFCURVE",
"1085 -291 OFFCURVE",
"954 -291 CURVE SMOOTH",
"798 -291 OFFCURVE",
"653 -263 OFFCURVE",
"527 -204 CURVE SMOOTH",
"401 -145 OFFCURVE",
"295 -58 OFFCURVE",
"221 59 CURVE SMOOTH",
"147 176 OFFCURVE",
"104 323 OFFCURVE",
"104 500 CURVE SMOOTH",
"104 683 OFFCURVE",
"151 852 OFFCURVE",
"233 994 CURVE SMOOTH",
"315 1136 OFFCURVE",
"434 1253 OFFCURVE",
"579 1335 CURVE SMOOTH",
"724 1417 OFFCURVE",
"896 1462 OFFCURVE",
"1085 1462 CURVE SMOOTH",
"1322 1462 OFFCURVE",
"1503 1390 OFFCURVE",
"1624 1272 CURVE SMOOTH",
"1744 1154 OFFCURVE",
"1806 988 OFFCURVE",
"1806 803 CURVE SMOOTH"
);
},
{
closed = 1;
nodes = (
"768 351 OFFCURVE",
"820 276 OFFCURVE",
"899 276 CURVE SMOOTH",
"958 276 OFFCURVE",
"999 307 OFFCURVE",
"1028 353 CURVE SMOOTH",
"1056 399 OFFCURVE",
"1074 458 OFFCURVE",
"1085 518 CURVE SMOOTH",
"1167 936 LINE",
"1159 955 OFFCURVE",
"1143 969 OFFCURVE",
"1123 979 CURVE SMOOTH",
"1103 989 OFFCURVE",
"1080 993 OFFCURVE",
"1059 993 CURVE SMOOTH",
"990 993 OFFCURVE",
"935 955 OFFCURVE",
"892 899 CURVE SMOOTH",
"848 842 OFFCURVE",
"818 766 OFFCURVE",
"798 691 CURVE SMOOTH",
"777 616 OFFCURVE",
"768 542 OFFCURVE",
"768 487 CURVE SMOOTH"
);
}
);
width = 1886;
}
);
unicode = 0040;
},
{
glyphname = bracketleft;
lastChange = "2014-07-27 09:40:08 +0530";
layers = (
{
layerId = "7D009F26-9523-4D0C-936A-45D9328E47A0";
name = Regular;
paths = (
{
closed = 1;
nodes = (
"205 -262 LINE",
"205 1556 LINE",
"662 1556 LINE",
"662 1470 LINE",
"573 1470 LINE SMOOTH",
"528 1470 OFFCURVE",
"486 1465 OFFCURVE",
"455 1445 CURVE SMOOTH",
"424 1424 OFFCURVE",
"406 1387 OFFCURVE",
"406 1323 CURVE SMOOTH",
"406 -29 LINE SMOOTH",
"406 -93 OFFCURVE",
"424 -130 OFFCURVE",
"455 -150 CURVE SMOOTH",
"486 -171 OFFCURVE",
"528 -176 OFFCURVE",
"573 -176 CURVE SMOOTH",
"662 -176 LINE",
"662 -262 LINE"
);
}
);
width = 735;
},
{
layerId = "29AE4022-23C2-49D3-A156-B9EDF5C2AEE5";
name = Bold;
paths = (
{
closed = 1;
nodes = (
"205 -262 LINE",
"205 1556 LINE",
"772 1556 LINE",
"772 1448 LINE",
"684 1448 LINE SMOOTH",
"639 1448 OFFCURVE",
"596 1443 OFFCURVE",
"566 1423 CURVE SMOOTH",
"536 1402 OFFCURVE",
"516 1365 OFFCURVE",
"516 1300 CURVE SMOOTH",
"516 -6 LINE SMOOTH",
"516 -70 OFFCURVE",
"536 -108 OFFCURVE",
"566 -128 CURVE SMOOTH",
"596 -149 OFFCURVE",
"639 -154 OFFCURVE",
"684 -154 CURVE SMOOTH",
"772 -154 LINE",
"772 -262 LINE"
);
}
);
width = 848;
}
);
unicode = 005B;
},
{
glyphname = backslash;
lastChange = "2014-07-27 09:40:21 +0530";
layers = (
{
layerId = "7D009F26-9523-4D0C-936A-45D9328E47A0";
name = Regular;
paths = (
{
closed = 1;
nodes = (
"0 1556 LINE",
"119 1556 LINE",
"590 -248 LINE",
"469 -248 LINE"
);
}
);
width = 590;
},
{
layerId = "29AE4022-23C2-49D3-A156-B9EDF5C2AEE5";
name = Bold;
paths = (
{
closed = 1;
nodes = (
"0 1556 LINE",
"145 1556 LINE",
"590 -248 LINE",
"442 -248 LINE"
);
}
);
width = 590;
}
);
unicode = 005C;
},
{
glyphname = bracketright;
lastChange = "2014-07-27 09:40:38 +0530";
layers = (
{
layerId = "7D009F26-9523-4D0C-936A-45D9328E47A0";
name = Regular;
paths = (
{
closed = 1;
nodes = (
"76 -262 LINE",
"76 -176 LINE",
"164 -176 LINE SMOOTH",
"211 -176 OFFCURVE",
"253 -171 OFFCURVE",
"283 -150 CURVE SMOOTH",
"313 -130 OFFCURVE",
"332 -93 OFFCURVE",
"332 -29 CURVE SMOOTH",
"332 1323 LINE SMOOTH",
"332 1387 OFFCURVE",
"313 1424 OFFCURVE",
"283 1445 CURVE SMOOTH",
"253 1465 OFFCURVE",
"211 1470 OFFCURVE",
"164 1470 CURVE SMOOTH",
"76 1470 LINE",
"76 1556 LINE",
"532 1556 LINE",
"532 -262 LINE"
);
}
);
width = 737;
},
{
layerId = "29AE4022-23C2-49D3-A156-B9EDF5C2AEE5";
name = Bold;
paths = (
{
closed = 1;
nodes = (
"643 1556 LINE",
"643 -262 LINE",
"76 -262 LINE",
"76 -154 LINE",
"164 -154 LINE SMOOTH",
"211 -154 OFFCURVE",
"253 -149 OFFCURVE",
"283 -128 CURVE SMOOTH",
"313 -108 OFFCURVE",
"332 -70 OFFCURVE",
"332 -6 CURVE SMOOTH",
"332 1300 LINE SMOOTH",
"332 1365 OFFCURVE",
"313 1402 OFFCURVE",
"283 1423 CURVE SMOOTH",
"253 1443 OFFCURVE",
"211 1448 OFFCURVE",
"164 1448 CURVE SMOOTH",
"76 1448 LINE",
"76 1556 LINE"
);
}
);
width = 848;
}
);
unicode = 005D;
},
{
glyphname = asciicircum;
lastChange = "2014-07-27 09:40:50 +0530";
layers = (
{
layerId = "7D009F26-9523-4D0C-936A-45D9328E47A0";
name = Regular;
paths = (
{
closed = 1;
nodes = (
"535 1462 LINE",
"606 1462 LINE",
"1038 545 LINE",
"901 545 LINE",
"569 1274 LINE",
"242 545 LINE",
"104 545 LINE"
);
}
);
width = 1145;
},
{
layerId = "29AE4022-23C2-49D3-A156-B9EDF5C2AEE5";
name = Bold;
paths = (
{
closed = 1;
nodes = (
"526 1462 LINE",
"614 1462 LINE",
"1049 537 LINE",
"889 537 LINE",
"569 1239 LINE",
"254 537 LINE",
"94 537 LINE"
);
}
);
width = 1145;
}
);
unicode = 005E;
},
{
glyphname = underscore;
lastChange = "2014-07-27 09:41:09 +0530";
layers = (
{
layerId = "7D009F26-9523-4D0C-936A-45D9328E47A0";
name = Regular;
paths = (
{
closed = 1;
nodes = (
"950 -291 LINE",
"-10 -291 LINE",
"-10 -170 LINE",
"950 -170 LINE"
);
}
);
width = 940;
},
{
layerId = "29AE4022-23C2-49D3-A156-B9EDF5C2AEE5";
name = Bold;
paths = (
{
closed = 1;
nodes = (
"950 -291 LINE",
"-10 -291 LINE",
"-10 -170 LINE",
"950 -170 LINE"
);
}
);
width = 940;
}
);
unicode = 005F;
},
{
glyphname = grave;
lastChange = "2014-07-27 09:41:23 +0530";
layers = (
{
layerId = "7D009F26-9523-4D0C-936A-45D9328E47A0";
name = Regular;
paths = (
{
closed = 1;
nodes = (
"791 1241 LINE",
"713 1241 LINE",
"658 1278 OFFCURVE",
"591 1337 OFFCURVE",
"531 1396 CURVE SMOOTH",
"471 1455 OFFCURVE",
"418 1512 OFFCURVE",
"393 1548 CURVE",
"393 1569 LINE",
"612 1569 LINE",
"633 1524 OFFCURVE",
"663 1468 OFFCURVE",
"695 1414 CURVE SMOOTH",
"727 1360 OFFCURVE",
"762 1307 OFFCURVE",
"791 1268 CURVE"
);
}
);
width = 1182;
},
{
layerId = "29AE4022-23C2-49D3-A156-B9EDF5C2AEE5";
name = Bold;
paths = (
{
closed = 1;
nodes = (
"713 1241 LINE",
"649 1278 OFFCURVE",
"566 1337 OFFCURVE",
"494 1396 CURVE SMOOTH",
"421 1455 OFFCURVE",
"357 1512 OFFCURVE",
"332 1548 CURVE",
"332 1569 LINE",
"653 1569 LINE",
"674 1524 OFFCURVE",
"710 1468 OFFCURVE",
"747 1414 CURVE SMOOTH",
"783 1360 OFFCURVE",
"823 1307 OFFCURVE",
"852 1268 CURVE",
"852 1241 LINE"
);
}
);
width = 1182;
}
);
unicode = 0060;
},
{
glyphname = braceleft;
lastChange = "2014-07-27 09:41:42 +0530";
layers = (
{
layerId = "7D009F26-9523-4D0C-936A-45D9328E47A0";
name = Regular;
paths = (
{
closed = 1;
nodes = (
"639 -262 LINE SMOOTH",
"543 -262 OFFCURVE",
"468 -233 OFFCURVE",
"419 -182 CURVE SMOOTH",
"370 -131 OFFCURVE",
"344 -58 OFFCURVE",
"344 33 CURVE SMOOTH",
"344 389 LINE SMOOTH",
"344 473 OFFCURVE",
"318 526 OFFCURVE",
"274 559 CURVE SMOOTH",
"230 591 OFFCURVE",
"170 603 OFFCURVE",
"102 606 CURVE",
"102 692 LINE",
"170 695 OFFCURVE",
"230 706 OFFCURVE",
"274 739 CURVE SMOOTH",
"318 771 OFFCURVE",
"344 824 OFFCURVE",
"344 907 CURVE SMOOTH",
"344 1264 LINE SMOOTH",
"344 1451 OFFCURVE",
"444 1556 OFFCURVE",
"639 1556 CURVE SMOOTH",
"774 1556 LINE",
"774 1468 LINE",
"713 1468 LINE SMOOTH",
"592 1468 OFFCURVE",
"545 1396 OFFCURVE",
"545 1253 CURVE SMOOTH",
"545 903 LINE SMOOTH",
"545 770 OFFCURVE",
"470 676 OFFCURVE",
"317 651 CURVE",
"317 649 LINE",
"474 622 OFFCURVE",
"545 531 OFFCURVE",
"545 395 CURVE SMOOTH",
"545 41 LINE SMOOTH",
"545 -99 OFFCURVE",
"592 -174 OFFCURVE",
"713 -174 CURVE SMOOTH",
"774 -174 LINE",
"774 -262 LINE"
);
}
);
width = 877;
},
{
layerId = "29AE4022-23C2-49D3-A156-B9EDF5C2AEE5";
name = Bold;
paths = (
{
closed = 1;
nodes = (
"649 -256 LINE SMOOTH",
"534 -256 OFFCURVE",
"447 -227 OFFCURVE",
"388 -174 CURVE SMOOTH",
"329 -122 OFFCURVE",
"299 -46 OFFCURVE",
"299 47 CURVE SMOOTH",
"299 397 LINE SMOOTH",
"299 476 OFFCURVE",
"273 522 OFFCURVE",
"230 550 CURVE SMOOTH",
"187 578 OFFCURVE",
"128 587 OFFCURVE",
"61 590 CURVE",
"61 715 LINE",
"128 718 OFFCURVE",
"187 726 OFFCURVE",
"230 754 CURVE SMOOTH",
"273 782 OFFCURVE",
"299 829 OFFCURVE",
"299 905 CURVE SMOOTH",
"299 1257 LINE SMOOTH",
"299 1449 OFFCURVE",
"418 1556 OFFCURVE",
"649 1556 CURVE SMOOTH",
"844 1556 LINE",
"844 1448 LINE",
"764 1448 LINE SMOOTH",
"705 1448 OFFCURVE",
"670 1430 OFFCURVE",
"648 1397 CURVE SMOOTH",
"626 1364 OFFCURVE",
"618 1313 OFFCURVE",
"618 1249 CURVE SMOOTH",
"618 901 LINE SMOOTH",
"618 777 OFFCURVE",
"552 698 OFFCURVE",
"393 662 CURVE",
"393 645 LINE",
"550 606 OFFCURVE",
"618 527 OFFCURVE",
"618 403 CURVE SMOOTH",
"618 53 LINE SMOOTH",
"618 -11 OFFCURVE",
"626 -61 OFFCURVE",
"648 -95 CURVE SMOOTH",
"670 -129 OFFCURVE",
"705 -147 OFFCURVE",
"764 -147 CURVE SMOOTH",
"844 -147 LINE",
"844 -256 LINE"
);
}
);
width = 905;
}
);
unicode = 007B;
},
{
glyphname = bar;
lastChange = "2014-07-27 09:42:06 +0530";
layers = (
{
layerId = "7D009F26-9523-4D0C-936A-45D9328E47A0";
name = Regular;
paths = (
{
closed = 1;
nodes = (
"633 -492 LINE",
"510 -492 LINE",
"510 1556 LINE",
"633 1556 LINE"
);
}
);
width = 1145;
},
{
layerId = "29AE4022-23C2-49D3-A156-B9EDF5C2AEE5";
name = Bold;
paths = (
{
closed = 1;
nodes = (
"645 -492 LINE",
"498 -492 LINE",
"498 1556 LINE",
"645 1556 LINE"
);
}
);
width = 1145;
}
);
unicode = 007C;
},
{
glyphname = braceright;
lastChange = "2014-07-27 09:42:21 +0530";
layers = (
{
layerId = "7D009F26-9523-4D0C-936A-45D9328E47A0";
name = Regular;
paths = (
{
closed = 1;
nodes = (
"102 -174 LINE",
"164 -174 LINE SMOOTH",
"285 -174 OFFCURVE",
"332 -99 OFFCURVE",
"332 41 CURVE SMOOTH",
"332 395 LINE SMOOTH",
"332 531 OFFCURVE",
"402 622 OFFCURVE",
"559 649 CURVE",
"559 651 LINE",
"407 676 OFFCURVE",
"332 770 OFFCURVE",
"332 903 CURVE SMOOTH",
"332 1253 LINE SMOOTH",
"332 1396 OFFCURVE",
"285 1468 OFFCURVE",
"164 1468 CURVE SMOOTH",
"102 1468 LINE",
"102 1556 LINE",
"238 1556 LINE SMOOTH",
"431 1556 OFFCURVE",
"532 1451 OFFCURVE",
"532 1264 CURVE SMOOTH",
"532 907 LINE SMOOTH",
"532 824 OFFCURVE",
"559 771 OFFCURVE",
"603 739 CURVE SMOOTH",
"646 706 OFFCURVE",
"706 695 OFFCURVE",
"774 692 CURVE",
"774 606 LINE",
"706 603 OFFCURVE",
"646 591 OFFCURVE",
"603 559 CURVE SMOOTH",
"559 526 OFFCURVE",
"532 473 OFFCURVE",
"532 389 CURVE SMOOTH",
"532 33 LINE SMOOTH",
"532 -58 OFFCURVE",
"506 -131 OFFCURVE",
"457 -182 CURVE SMOOTH",
"408 -233 OFFCURVE",
"334 -262 OFFCURVE",
"238 -262 CURVE SMOOTH",
"102 -262 LINE"
);
}
);
width = 877;
},
{
layerId = "29AE4022-23C2-49D3-A156-B9EDF5C2AEE5";
name = Bold;
paths = (
{
closed = 1;
nodes = (
"61 -256 LINE",
"61 -147 LINE",
"141 -147 LINE SMOOTH",
"200 -147 OFFCURVE",
"236 -129 OFFCURVE",
"258 -95 CURVE SMOOTH",
"280 -61 OFFCURVE",
"287 -11 OFFCURVE",
"287 53 CURVE SMOOTH",
"287 403 LINE SMOOTH",
"287 527 OFFCURVE",
"355 606 OFFCURVE",
"512 645 CURVE",
"512 662 LINE",
"353 698 OFFCURVE",
"287 777 OFFCURVE",
"287 901 CURVE SMOOTH",
"287 1249 LINE SMOOTH",
"287 1313 OFFCURVE",
"280 1364 OFFCURVE",
"258 1397 CURVE SMOOTH",
"236 1430 OFFCURVE",
"200 1448 OFFCURVE",
"141 1448 CURVE SMOOTH",
"61 1448 LINE",
"61 1556 LINE",
"256 1556 LINE SMOOTH",
"487 1556 OFFCURVE",
"606 1449 OFFCURVE",
"606 1257 CURVE SMOOTH",
"606 905 LINE SMOOTH",
"606 829 OFFCURVE",
"632 782 OFFCURVE",
"675 754 CURVE SMOOTH",
"718 726 OFFCURVE",
"777 718 OFFCURVE",
"844 715 CURVE",
"844 590 LINE",
"777 587 OFFCURVE",
"718 578 OFFCURVE",
"675 550 CURVE SMOOTH",
"632 522 OFFCURVE",
"606 476 OFFCURVE",
"606 397 CURVE SMOOTH",
"606 47 LINE SMOOTH",
"606 -46 OFFCURVE",
"576 -122 OFFCURVE",
"517 -174 CURVE SMOOTH",
"458 -227 OFFCURVE",
"371 -256 OFFCURVE",
"256 -256 CURVE SMOOTH"
);
}
);
width = 905;
}
);
unicode = 007D;
},
{
glyphname = asciitilde;
lastChange = "2014-07-27 09:42:40 +0530";
layers = (
{
layerId = "7D009F26-9523-4D0C-936A-45D9328E47A0";
name = Regular;
paths = (
{
closed = 1;
nodes = (
"736 551 OFFCURVE",
"693 570 OFFCURVE",
"651 595 CURVE SMOOTH",
"609 620 OFFCURVE",
"570 652 OFFCURVE",
"539 680 CURVE SMOOTH",
"508 708 OFFCURVE",
"479 735 OFFCURVE",
"451 755 CURVE SMOOTH",
"422 775 OFFCURVE",
"393 788 OFFCURVE",
"362 788 CURVE SMOOTH",
"282 788 OFFCURVE",
"248 712 OFFCURVE",
"233 551 CURVE",
"113 551 LINE",
"121 636 OFFCURVE",
"135 726 OFFCURVE",
"172 794 CURVE SMOOTH",
"209 862 OFFCURVE",
"270 909 OFFCURVE",
"371 909 CURVE SMOOTH",
"416 909 OFFCURVE",
"462 890 OFFCURVE",
"505 863 CURVE SMOOTH",
"548 836 OFFCURVE",
"586 802 OFFCURVE",
"618 774 CURVE SMOOTH",
"647 747 OFFCURVE",
"675 722 OFFCURVE",
"703 703 CURVE SMOOTH",
"730 684 OFFCURVE",
"758 672 OFFCURVE",
"786 672 CURVE SMOOTH",
"862 672 OFFCURVE",
"892 757 OFFCURVE",
"911 909 CURVE",
"1034 909 LINE",
"1025 824 OFFCURVE",
"1009 734 OFFCURVE",
"971 666 CURVE SMOOTH",
"933 598 OFFCURVE",
"873 551 OFFCURVE",
"776 551 CURVE SMOOTH"
);
}
);
width = 1149;
},
{
layerId = "29AE4022-23C2-49D3-A156-B9EDF5C2AEE5";
name = Bold;
paths = (
{
closed = 1;
nodes = (
"492 685 OFFCURVE",
"456 699 OFFCURVE",
"426 708 CURVE SMOOTH",
"396 716 OFFCURVE",
"369 719 OFFCURVE",
"340 719 CURVE SMOOTH",
"303 719 OFFCURVE",
"262 705 OFFCURVE",
"223 684 CURVE SMOOTH",
"183 663 OFFCURVE",
"145 633 OFFCURVE",
"113 598 CURVE",
"113 756 LINE",
"179 828 OFFCURVE",
"261 864 OFFCURVE",
"360 864 CURVE SMOOTH",
"399 864 OFFCURVE",
"430 861 OFFCURVE",
"467 853 CURVE SMOOTH",
"503 844 OFFCURVE",
"545 828 OFFCURVE",
"608 801 CURVE SMOOTH",
"657 780 OFFCURVE",
"693 765 OFFCURVE",
"724 757 CURVE SMOOTH",
"755 748 OFFCURVE",
"781 745 OFFCURVE",
"809 745 CURVE SMOOTH",
"848 745 OFFCURVE",
"887 759 OFFCURVE",
"927 781 CURVE SMOOTH",
"966 803 OFFCURVE",
"1004 833 OFFCURVE",
"1036 866 CURVE",
"1036 709 LINE",
"971 636 OFFCURVE",
"888 600 OFFCURVE",
"788 600 CURVE SMOOTH",
"749 600 OFFCURVE",
"719 603 OFFCURVE",
"683 612 CURVE SMOOTH",
"646 621 OFFCURVE",
"604 637 OFFCURVE",
"541 664 CURVE SMOOTH"
);
}
);
width = 1149;
}
);
unicode = 007E;
},
{
glyphname = cent;
lastChange = "2014-07-27 09:43:08 +0530";
layers = (
{
layerId = "7D009F26-9523-4D0C-936A-45D9328E47A0";
name = Regular;
paths = (
{
closed = 1;
nodes = (
"584 180 LINE",
"460 193 OFFCURVE",
"355 239 OFFCURVE",
"280 328 CURVE SMOOTH",
"205 416 OFFCURVE",
"162 550 OFFCURVE",
"162 739 CURVE SMOOTH",
"162 942 OFFCURVE",
"209 1081 OFFCURVE",
"285 1171 CURVE SMOOTH",
"361 1261 OFFCURVE",
"467 1302 OFFCURVE",
"584 1313 CURVE",
"584 1462 LINE",
"686 1462 LINE",
"686 1313 LINE",
"765 1306 OFFCURVE",
"847 1288 OFFCURVE",
"910 1254 CURVE SMOOTH",
"973 1220 OFFCURVE",
"1016 1170 OFFCURVE",
"1016 1106 CURVE SMOOTH",
"1016 1011 OFFCURVE",
"955 977 OFFCURVE",
"834 977 CURVE",
"834 1033 OFFCURVE",
"822 1086 OFFCURVE",
"798 1127 CURVE SMOOTH",
"774 1167 OFFCURVE",
"737 1197 OFFCURVE",
"686 1206 CURVE",
"686 297 LINE",
"742 297 OFFCURVE",
"800 306 OFFCURVE",
"852 319 CURVE SMOOTH",
"904 331 OFFCURVE",
"951 347 OFFCURVE",
"983 362 CURVE",
"983 250 LINE",
"912 213 OFFCURVE",
"807 179 OFFCURVE",
"686 176 CURVE",
"686 0 LINE",
"584 0 LINE"
);
},
{
closed = 1;
nodes = (
"360 497 OFFCURVE",
"431 350 OFFCURVE",
"584 309 CURVE",
"584 1206 LINE",
"519 1194 OFFCURVE",
"463 1158 OFFCURVE",
"423 1086 CURVE SMOOTH",
"383 1013 OFFCURVE",
"360 902 OFFCURVE",
"360 741 CURVE SMOOTH"
);
}
);
width = 1145;
},
{
layerId = "29AE4022-23C2-49D3-A156-B9EDF5C2AEE5";
name = Bold;
paths = (
{
closed = 1;
nodes = (
"571 170 LINE",
"434 179 OFFCURVE",
"321 224 OFFCURVE",
"242 313 CURVE SMOOTH",
"162 402 OFFCURVE",
"117 538 OFFCURVE",
"117 733 CURVE SMOOTH",
"117 937 OFFCURVE",
"165 1076 OFFCURVE",
"246 1167 CURVE SMOOTH",
"326 1258 OFFCURVE",
"440 1300 OFFCURVE",
"571 1311 CURVE",
"571 1462 LINE",
"698 1462 LINE",
"698 1311 LINE",
"815 1304 OFFCURVE",
"907 1279 OFFCURVE",
"968 1241 CURVE SMOOTH",
"1029 1203 OFFCURVE",
"1061 1153 OFFCURVE",
"1061 1098 CURVE SMOOTH",
"1061 1054 OFFCURVE",
"1048 1010 OFFCURVE",
"1009 978 CURVE SMOOTH",
"969 946 OFFCURVE",
"904 924 OFFCURVE",
"797 924 CURVE",
"797 981 OFFCURVE",
"791 1038 OFFCURVE",
"776 1083 CURVE SMOOTH",
"760 1128 OFFCURVE",
"735 1162 OFFCURVE",
"698 1178 CURVE",
"698 322 LINE",
"767 323 OFFCURVE",
"829 343 OFFCURVE",
"879 372 CURVE SMOOTH",
"929 400 OFFCURVE",
"967 440 OFFCURVE",
"991 487 CURVE",
"1026 467 OFFCURVE",
"1042 430 OFFCURVE",
"1042 393 CURVE SMOOTH",
"1042 346 OFFCURVE",
"1015 295 OFFCURVE",
"959 253 CURVE SMOOTH",
"903 211 OFFCURVE",
"817 178 OFFCURVE",
"698 170 CURVE",
"698 0 LINE",
"571 0 LINE"
);
},
{
closed = 1;
nodes = (
"430 524 OFFCURVE",
"472 395 OFFCURVE",
"571 346 CURVE",
"571 1174 LINE",
"527 1154 OFFCURVE",
"492 1114 OFFCURVE",
"468 1044 CURVE SMOOTH",
"443 974 OFFCURVE",
"430 874 OFFCURVE",
"430 735 CURVE SMOOTH"
);
}
);
width = 1145;
}
);
unicode = 00A2;
},
{
glyphname = multiply;
lastChange = "2014-07-27 09:43:41 +0530";
layers = (
{
layerId = "7D009F26-9523-4D0C-936A-45D9328E47A0";
name = Regular;
paths = (
{
closed = 1;
nodes = (
"571 647 LINE",
"231 307 LINE",
"145 395 LINE",
"485 735 LINE",
"145 1073 LINE",
"231 1159 LINE",
"571 819 LINE",
"911 1161 LINE",
"997 1073 LINE",
"657 733 LINE",
"997 393 LINE",
"911 307 LINE"
);
}
);
width = 1145;
},
{
layerId = "29AE4022-23C2-49D3-A156-B9EDF5C2AEE5";
name = Bold;
paths = (
{
closed = 1;
nodes = (
"571 631 LINE",
"270 328 LINE",
"166 432 LINE",
"467 735 LINE",
"166 1036 LINE",
"270 1139 LINE",
"571 838 LINE",
"872 1141 LINE",
"977 1036 LINE",
"674 733 LINE",
"977 430 LINE",
"874 328 LINE"
);
}
);
width = 1145;
}
);
unicode = 00D7;
},
{
glyphname = divide;
lastChange = "2014-07-27 09:43:57 +0530";
layers = (
{
layerId = "7D009F26-9523-4D0C-936A-45D9328E47A0";
name = Regular;
paths = (
{
closed = 1;
nodes = (
"1012 672 LINE",
"133 672 LINE",
"133 793 LINE",
"1012 793 LINE"
);
},
{
closed = 1;
nodes = (
"469 1163 OFFCURVE",
"480 1192 OFFCURVE",
"499 1209 CURVE SMOOTH",
"518 1226 OFFCURVE",
"544 1233 OFFCURVE",
"573 1233 CURVE SMOOTH",
"602 1233 OFFCURVE",
"628 1226 OFFCURVE",
"648 1209 CURVE SMOOTH",
"667 1192 OFFCURVE",
"678 1163 OFFCURVE",
"678 1120 CURVE SMOOTH",
"678 1079 OFFCURVE",
"667 1051 OFFCURVE",
"648 1033 CURVE SMOOTH",
"628 1015 OFFCURVE",
"602 1008 OFFCURVE",
"573 1008 CURVE SMOOTH",
"544 1008 OFFCURVE",
"518 1015 OFFCURVE",
"499 1033 CURVE SMOOTH",
"480 1051 OFFCURVE",
"469 1079 OFFCURVE",
"469 1120 CURVE SMOOTH"
);
},
{
closed = 1;
nodes = (
"469 387 OFFCURVE",
"480 416 OFFCURVE",
"499 433 CURVE SMOOTH",
"518 450 OFFCURVE",
"544 457 OFFCURVE",
"573 457 CURVE SMOOTH",
"602 457 OFFCURVE",
"628 450 OFFCURVE",
"648 433 CURVE SMOOTH",
"667 416 OFFCURVE",
"678 387 OFFCURVE",
"678 344 CURVE SMOOTH",
"678 303 OFFCURVE",
"667 273 OFFCURVE",
"648 256 CURVE SMOOTH",
"628 239 OFFCURVE",
"602 231 OFFCURVE",
"573 231 CURVE SMOOTH",
"513 231 OFFCURVE",
"469 260 OFFCURVE",
"469 344 CURVE SMOOTH"
);
}
);
width = 1145;
},
{
layerId = "29AE4022-23C2-49D3-A156-B9EDF5C2AEE5";
name = Bold;
paths = (
{
closed = 1;
nodes = (
"459 1167 OFFCURVE",
"471 1198 OFFCURVE",
"492 1218 CURVE SMOOTH",
"512 1237 OFFCURVE",
"541 1245 OFFCURVE",
"573 1245 CURVE SMOOTH",
"605 1245 OFFCURVE",
"634 1237 OFFCURVE",
"655 1218 CURVE",
"675 1198 OFFCURVE",
"688 1167 OFFCURVE",
"688 1120 CURVE SMOOTH",
"688 1075 OFFCURVE",
"675 1043 OFFCURVE",
"655 1023 CURVE SMOOTH",
"634 1003 OFFCURVE",
"605 995 OFFCURVE",
"573 995 CURVE SMOOTH",
"508 995 OFFCURVE",
"459 1028 OFFCURVE",
"459 1120 CURVE SMOOTH"
);
},
{
closed = 1;
nodes = (
"459 391 OFFCURVE",
"471 422 OFFCURVE",
"492 442 CURVE SMOOTH",
"512 461 OFFCURVE",
"541 469 OFFCURVE",
"573 469 CURVE SMOOTH",
"605 469 OFFCURVE",
"634 461 OFFCURVE",
"655 442 CURVE",
"675 422 OFFCURVE",
"688 391 OFFCURVE",
"688 344 CURVE SMOOTH",
"688 299 OFFCURVE",
"675 267 OFFCURVE",
"655 247 CURVE SMOOTH",
"634 227 OFFCURVE",
"605 219 OFFCURVE",
"573 219 CURVE SMOOTH",
"508 219 OFFCURVE",
"459 252 OFFCURVE",
"459 344 CURVE SMOOTH"
);
},
{
closed = 1;
nodes = (
"1012 659 LINE",
"133 659 LINE",
"133 805 LINE",
"1012 805 LINE"
);
}
);
width = 1145;
}
);
unicode = 00F7;
},
{
glyphname = apostrophe;
lastChange = "2014-07-16 17:54:58 +0530";
layers = (
{
layerId = "7D009F26-9523-4D0C-936A-45D9328E47A0";
name = Regular;
paths = (
{
closed = 1;
nodes = (
"218 771 LINE SMOOTH",
"218 728 OFFCURVE",
"214 695 OFFCURVE",
"206 665 CURVE SMOOTH",
"198 635 OFFCURVE",
"187 610 OFFCURVE",
"171 583 CURVE",
"97 583 LINE",
"133 635 OFFCURVE",
"154 690 OFFCURVE",
"154 739 CURVE",
"101 739 LINE",
"101 858 LINE",
"218 858 LINE"
);
}
);
width = 314;
},
{
layerId = "29AE4022-23C2-49D3-A156-B9EDF5C2AEE5";
name = Bold;
width = 600;
}
);
unicode = 02BC;
},
{
glyphname = candrabinduinverteddeva;
lastChange = "2014-07-16 17:54:58 +0530";
layers = (
{
anchors = (
{
name = _class0;
position = "{-120, 666}";
}
);
layerId = "7D009F26-9523-4D0C-936A-45D9328E47A0";
name = Regular;
paths = (
{
closed = 1;
nodes = (
"-178 846 LINE",
"-92 846 LINE",
"-92 759 LINE",
"-178 759 LINE"
);
},
{
closed = 1;
nodes = (
"-27 992 OFFCURVE",
"62 914 OFFCURVE",
"81 806 CURVE",
"8 806 LINE",
"-4 878 OFFCURVE",
"-64 932 OFFCURVE",
"-132 932 CURVE SMOOTH",
"-199 932 OFFCURVE",
"-259 878 OFFCURVE",
"-272 806 CURVE",
"-345 806 LINE",
"-325 914 OFFCURVE",
"-236 992 OFFCURVE",
"-132 992 CURVE SMOOTH"
);
}
);
width = 0;
},
{
layerId = "29AE4022-23C2-49D3-A156-B9EDF5C2AEE5";
name = Bold;
width = 600;
}
);
unicode = 0900;
},
{
glyphname = candrabindudeva;
lastChange = "2014-07-17 18:45:31 +0530";
layers = (
{
anchors = (
{
name = _class0;
position = "{-120, 666}";
}
);
background = {
paths = (
{
closed = 1;
nodes = (
"-640 1891 OFFCURVE",
"-655 1872 OFFCURVE",
"-655 1837 CURVE",
"-655 1691 OFFCURVE",
"-516 1486 OFFCURVE",
"-302 1486 CURVE SMOOTH",
"-147 1486 OFFCURVE",
"-25 1609 OFFCURVE",
"-25 1762 CURVE",
"-25 1824 OFFCURVE",
"-57 1865 OFFCURVE",
"-120 1886 CURVE",
"-141 1701 OFFCURVE",
"-227 1619 OFFCURVE",
"-343 1619 CURVE SMOOTH",
"-464 1619 OFFCURVE",
"-555 1708 OFFCURVE",
"-614 1904 CURVE"
);
}
);
};
components = (
{
name = ecandrasigndeva;
transform = "{1, 0, 0, 1, 0, 0}";
}
);
layerId = "7D009F26-9523-4D0C-936A-45D9328E47A0";
name = Regular;
paths = (
{
closed = 1;
nodes = (
"-298 1759 OFFCURVE",
"-254 1803 OFFCURVE",
"-254 1857 CURVE SMOOTH",
"-254 1910 OFFCURVE",
"-298 1954 OFFCURVE",
"-352 1954 CURVE SMOOTH",
"-405 1954 OFFCURVE",
"-449 1910 OFFCURVE",
"-449 1857 CURVE SMOOTH",
"-449 1803 OFFCURVE",
"-405 1759 OFFCURVE",
"-352 1759 CURVE SMOOTH"
);
}
);
width = 0;
},
{
components = (
{
name = ecandrasigndeva;
transform = "{1, 0, 0, 1, 0, 0}";
}
);
layerId = "29AE4022-23C2-49D3-A156-B9EDF5C2AEE5";
name = Bold;
paths = (
{
closed = 1;
nodes = (
"-435 1966 OFFCURVE",
"-490 1912 OFFCURVE",
"-490 1846 CURVE SMOOTH",
"-490 1780 OFFCURVE",
"-435 1725 OFFCURVE",
"-368 1725 CURVE SMOOTH",
"-302 1725 OFFCURVE",
"-248 1780 OFFCURVE",
"-248 1846 CURVE SMOOTH",
"-248 1912 OFFCURVE",
"-302 1966 OFFCURVE",
"-368 1966 CURVE SMOOTH"
);
}
);
width = 0;
}
);
unicode = 0901;
},
{
glyphname = visargadeva;
lastChange = "2014-07-16 19:14:48 +0530";
layers = (
{
layerId = "7D009F26-9523-4D0C-936A-45D9328E47A0";
name = Regular;
paths = (
{
closed = 1;
nodes = (
"231 1017 OFFCURVE",
"182 968 OFFCURVE",
"182 908 CURVE SMOOTH",
"182 848 OFFCURVE",
"231 799 OFFCURVE",
"291 799 CURVE SMOOTH",
"351 799 OFFCURVE",
"401 848 OFFCURVE",
"401 908 CURVE SMOOTH",
"401 968 OFFCURVE",
"351 1017 OFFCURVE",
"291 1017 CURVE SMOOTH"
);
},
{
closed = 1;
nodes = (
"231 347 OFFCURVE",
"182 298 OFFCURVE",
"182 238 CURVE SMOOTH",
"182 178 OFFCURVE",
"231 129 OFFCURVE",
"291 129 CURVE SMOOTH",
"351 129 OFFCURVE",
"401 178 OFFCURVE",
"401 238 CURVE SMOOTH",
"401 298 OFFCURVE",
"351 347 OFFCURVE",
"291 347 CURVE SMOOTH"
);
}
);
width = 573;
},
{
layerId = "29AE4022-23C2-49D3-A156-B9EDF5C2AEE5";
name = Bold;
paths = (
{
closed = 1;
nodes = (
"219 1039 OFFCURVE",
"155 974 OFFCURVE",
"155 894 CURVE SMOOTH",
"155 815 OFFCURVE",
"219 750 OFFCURVE",
"299 750 CURVE SMOOTH",
"378 750 OFFCURVE",
"444 815 OFFCURVE",
"444 894 CURVE SMOOTH",
"444 974 OFFCURVE",
"378 1039 OFFCURVE",
"299 1039 CURVE SMOOTH"
);
},
{
closed = 1;
nodes = (
"219 392 OFFCURVE",
"155 328 OFFCURVE",
"155 248 CURVE SMOOTH",
"155 169 OFFCURVE",
"219 104 OFFCURVE",
"299 104 CURVE SMOOTH",
"378 104 OFFCURVE",
"444 169 OFFCURVE",
"444 248 CURVE SMOOTH",
"444 328 OFFCURVE",
"378 392 OFFCURVE",
"299 392 CURVE SMOOTH"
);
}
);
width = 653;
}
);
unicode = 0903;
},
{
glyphname = ashortdeva;
lastChange = "2014-07-16 17:55:42 +0530";
layers = (
{
components = (
{
name = adeva;
transform = "{1, 0, 0, 1, 0, 0}";
}
);
layerId = "7D009F26-9523-4D0C-936A-45D9328E47A0";
name = Regular;
paths = (
{
closed = 1;
nodes = (
"347 1934 OFFCURVE",
"340 1912 OFFCURVE",
"340 1880 CURVE",
"340 1729 OFFCURVE",
"491 1601 OFFCURVE",
"915 1557 CURVE SMOOTH",
"1146 1535 OFFCURVE",
"1212 1511 OFFCURVE",
"1212 1413 CURVE SMOOTH",
"1212 1388 OFFCURVE",
"1204 1349 OFFCURVE",
"1185 1311 CURVE",
"1337 1311 LINE",
"1291 1598 OFFCURVE",
"1130 1701 OFFCURVE",
"809 1731 CURVE SMOOTH",
"533 1760 OFFCURVE",
"442 1818 OFFCURVE",
"358 1956 CURVE"
);
}
);
width = 1550;
},
{
components = (
{
name = adeva;
transform = "{1, 0, 0, 1, 0, 0}";
}
);
layerId = "29AE4022-23C2-49D3-A156-B9EDF5C2AEE5";
name = Bold;
paths = (
{
closed = 1;
nodes = (
"310 1922 OFFCURVE",
"300 1896 OFFCURVE",
"300 1852 CURVE",
"300 1687 OFFCURVE",
"492 1521 OFFCURVE",
"975 1494 CURVE SMOOTH",
"1162 1482 OFFCURVE",
"1208 1461 OFFCURVE",
"1208 1403 CURVE SMOOTH",
"1208 1378 OFFCURVE",
"1200 1339 OFFCURVE",
"1181 1301 CURVE",
"1417 1301 LINE",
"1337 1548 OFFCURVE",
"1171 1694 OFFCURVE",
"874 1740 CURVE SMOOTH",
"532 1791 OFFCURVE",
"427 1834 OFFCURVE",
"338 1956 CURVE"
);
}
);
width = 1610;
}
);
unicode = 0904;
},
{
color = 1;
glyphname = adeva;
lastChange = "2014-07-22 19:19:08 +0530";
layers = (
{
background = {
paths = (
{
closed = 1;
nodes = (
"285 1335 OFFCURVE",
"177 1234 OFFCURVE",
"177 1137 CURVE SMOOTH",
"177 1065 OFFCURVE",
"233 1017 OFFCURVE",
"323 1017 CURVE",
"323 1135 OFFCURVE",
"407 1224 OFFCURVE",
"547 1224 CURVE SMOOTH",
"665 1224 OFFCURVE",
"746 1161 OFFCURVE",
"746 1039 CURVE SMOOTH",
"746 898 OFFCURVE",
"638 812 OFFCURVE",
"388 799 CURVE",
"382 789 LINE",
"463 632 LINE",
"548 642 OFFCURVE",
"620 659 OFFCURVE",
"679 683 CURVE",
"768 643 OFFCURVE",
"827 554 OFFCURVE",
"827 443 CURVE SMOOTH",
"827 319 OFFCURVE",
"730 224 OFFCURVE",
"578 224 CURVE SMOOTH",
"379 224 OFFCURVE",
"217 385 OFFCURVE",
"154 756 CURVE",
"113 752 OFFCURVE",
"90 734 OFFCURVE",
"90 666 CURVE SMOOTH",
"90 489 OFFCURVE",
"248 62 OFFCURVE",
"627 62 CURVE SMOOTH",
"830 62 OFFCURVE",
"962 198 OFFCURVE",
"962 383 CURVE SMOOTH",
"962 460 OFFCURVE",
"940 531 OFFCURVE",
"903 593 CURVE",
"909 600 LINE",
"955 582 OFFCURVE",
"1002 573 OFFCURVE",
"1047 573 CURVE SMOOTH",
"1090 573 OFFCURVE",
"1133 582 OFFCURVE",
"1173 601 CURVE",
"1182 595 LINE",
"1182 19 LINE",
"1333 -19 LINE",
"1342 -12 LINE",
"1342 1197 LINE",
"1600 1197 LINE",
"1606 1206 LINE",
"1550 1330 LINE",
"969 1330 LINE",
"963 1321 LINE",
"1019 1197 LINE",
"1182 1197 LINE",
"1182 907 LINE SMOOTH",
"1182 770 OFFCURVE",
"1084 696 OFFCURVE",
"957 696 CURVE SMOOTH",
"905 696 OFFCURVE",
"847 709 OFFCURVE",
"790 735 CURVE",
"788 747 LINE",
"858 803 OFFCURVE",
"892 879 OFFCURVE",
"892 973 CURVE SMOOTH",
"892 1181 OFFCURVE",
"724 1335 OFFCURVE",
"481 1335 CURVE SMOOTH"
);
}
);
};
layerId = "7D009F26-9523-4D0C-936A-45D9328E47A0";
name = Regular;
paths = (
{
closed = 1;
nodes = (
"285 1335 OFFCURVE",
"177 1234 OFFCURVE",
"177 1137 CURVE SMOOTH",
"177 1065 OFFCURVE",
"233 1017 OFFCURVE",
"323 1017 CURVE",
"323 1135 OFFCURVE",
"407 1224 OFFCURVE",
"547 1224 CURVE SMOOTH",
"665 1224 OFFCURVE",
"746 1161 OFFCURVE",
"746 1039 CURVE SMOOTH",
"746 898 OFFCURVE",
"638 812 OFFCURVE",
"388 799 CURVE",
"382 789 LINE",
"463 632 LINE",
"548 642 OFFCURVE",
"620 659 OFFCURVE",
"679 683 CURVE",
"768 643 OFFCURVE",
"827 554 OFFCURVE",
"827 443 CURVE SMOOTH",
"827 319 OFFCURVE",
"730 224 OFFCURVE",
"578 224 CURVE SMOOTH",
"379 224 OFFCURVE",
"217 385 OFFCURVE",
"154 756 CURVE",
"113 752 OFFCURVE",
"90 734 OFFCURVE",
"90 666 CURVE SMOOTH",
"90 489 OFFCURVE",
"248 62 OFFCURVE",
"627 62 CURVE SMOOTH",
"830 62 OFFCURVE",
"962 198 OFFCURVE",
"962 383 CURVE SMOOTH",
"962 460 OFFCURVE",
"940 531 OFFCURVE",
"903 593 CURVE",
"909 600 LINE",
"955 582 OFFCURVE",
"1002 573 OFFCURVE",
"1047 573 CURVE SMOOTH",
"1090 573 OFFCURVE",
"1133 582 OFFCURVE",
"1173 601 CURVE",
"1182 595 LINE",
"1182 19 LINE",
"1333 -19 LINE",
"1342 -12 LINE",
"1342 1197 LINE",
"1600 1197 LINE",
"1606 1206 LINE",
"1550 1330 LINE",
"969 1330 LINE",
"963 1321 LINE",
"1019 1197 LINE",
"1182 1197 LINE",
"1182 907 LINE SMOOTH",
"1182 770 OFFCURVE",
"1084 696 OFFCURVE",
"957 696 CURVE SMOOTH",
"905 696 OFFCURVE",
"847 709 OFFCURVE",
"790 735 CURVE",
"788 747 LINE",
"858 803 OFFCURVE",
"892 879 OFFCURVE",
"892 973 CURVE SMOOTH",
"892 1181 OFFCURVE",
"724 1335 OFFCURVE",
"481 1335 CURVE SMOOTH"
);
}
);
width = 1550;
},
{
layerId = "29AE4022-23C2-49D3-A156-B9EDF5C2AEE5";
name = Bold;
paths = (
{
closed = 1;
nodes = (
"272 1335 OFFCURVE",
"157 1219 OFFCURVE",
"157 1107 CURVE SMOOTH",
"157 1011 OFFCURVE",
"245 947 OFFCURVE",
"383 947 CURVE",
"383 1082 OFFCURVE",
"460 1184 OFFCURVE",
"585 1184 CURVE SMOOTH",
"672 1184 OFFCURVE",
"726 1134 OFFCURVE",
"726 1036 CURVE SMOOTH",
"726 906 OFFCURVE",
"630 816 OFFCURVE",
"403 800 CURVE",
"388 775 LINE",
"493 562 LINE",
"583 573 OFFCURVE",
"659 589 OFFCURVE",
"721 612 CURVE",
"772 570 OFFCURVE",
"804 507 OFFCURVE",
"804 433 CURVE SMOOTH",
"804 331 OFFCURVE",
"716 252 OFFCURVE",
"582 252 CURVE SMOOTH",
"384 252 OFFCURVE",
"251 425 OFFCURVE",
"194 776 CURVE",
"106 769 OFFCURVE",
"79 729 OFFCURVE",
"79 660 CURVE SMOOTH",
"79 479 OFFCURVE",
"262 2 OFFCURVE",
"667 2 CURVE SMOOTH",
"873 2 OFFCURVE",
"1012 138 OFFCURVE",
"1012 320 CURVE SMOOTH",
"1012 394 OFFCURVE",
"994 464 OFFCURVE",
"962 527 CURVE",
"968 534 LINE",
"1014 516 OFFCURVE",
"1060 507 OFFCURVE",
"1107 507 CURVE SMOOTH",
"1129 507 OFFCURVE",
"1151 509 OFFCURVE",
"1173 513 CURVE",
"1182 506 LINE",
"1182 -21 LINE",
"1400 -57 LINE",
"1422 -39 LINE",
"1422 1137 LINE",
"1646 1137 LINE",
"1663 1160 LINE",
"1610 1330 LINE",
"983 1330 LINE",
"966 1307 LINE",
"1019 1137 LINE",
"1182 1137 LINE",
"1182 917 LINE SMOOTH",
"1182 780 OFFCURVE",
"1084 706 OFFCURVE",
"957 706 CURVE SMOOTH",
"935 706 OFFCURVE",
"913 708 OFFCURVE",
"889 713 CURVE",
"886 723 LINE",
"924 773 OFFCURVE",
"942 833 OFFCURVE",
"942 906 CURVE SMOOTH",
"942 1143 OFFCURVE",
"753 1335 OFFCURVE",
"482 1335 CURVE SMOOTH"
);
}
);
width = 1610;
}
);
unicode = 0905;
},
{
glyphname = aadeva;
lastChange = "2014-07-17 14:41:04 +0530";
layers = (
{
components = (
{
name = adeva;
transform = "{1, 0, 0, 1, 0, 0}";
}
);
layerId = "7D009F26-9523-4D0C-936A-45D9328E47A0";
name = Regular;
paths = (
{
closed = 1;
nodes = (
"1452 1330 LINE",
"1446 1321 LINE",
"1502 1197 LINE",
"1665 1197 LINE",
"1665 19 LINE",
"1816 -19 LINE",
"1825 -12 LINE",
"1825 1197 LINE",
"2083 1197 LINE",
"2089 1206 LINE",
"2033 1330 LINE"
);
}
);
width = 2033;
},
{
components = (
{
name = adeva;
transform = "{1, 0, 0, 1, 0, 0}";
}
);
layerId = "29AE4022-23C2-49D3-A156-B9EDF5C2AEE5";
name = Bold;
paths = (
{
closed = 1;
nodes = (
"1464 1330 LINE",
"1447 1307 LINE",
"1500 1137 LINE",
"1706 1137 LINE",
"1706 -21 LINE",
"1924 -57 LINE",
"1946 -39 LINE",
"1946 1137 LINE",
"2189 1137 LINE",
"2206 1160 LINE",
"2153 1330 LINE"
);
}
);
width = 2153;
}
);
unicode = 0906;
},
{
color = 1;
glyphname = ideva;
lastChange = "2014-07-18 07:12:44 +0530";
layers = (
{
background = {
paths = (
{
closed = 1;
nodes = (
"-50 1330 LINE",
"-56 1321 LINE",
"0 1197 LINE",
"648 1197 LINE",
"648 1054 LINE SMOOTH",
"648 1049 OFFCURVE",
"645 1046 OFFCURVE",
"640 1046 CURVE SMOOTH",
"307 1046 LINE SMOOTH",
"175 1046 OFFCURVE",
"114 981 OFFCURVE",
"114 897 CURVE SMOOTH",
"114 760 OFFCURVE",
"274 552 OFFCURVE",
"457 552 CURVE SMOOTH",
"516 552 OFFCURVE",
"667 574 OFFCURVE",
"713 574 CURVE SMOOTH",
"765 574 OFFCURVE",
"795 547 OFFCURVE",
"795 498 CURVE SMOOTH",
"795 392.689 OFFCURVE",
"664.151 290.032 OFFCURVE",
"419.911 290.614 CURVE",
"380.396 376.123 OFFCURVE",
"333.605 427 OFFCURVE",
"266 427 CURVE SMOOTH",
"214 427 OFFCURVE",
"155 397 OFFCURVE",
"155 320 CURVE SMOOTH",
"155 226.723 OFFCURVE",
"250.528 135.151 OFFCURVE",
"425.828 128.783 CURVE",
"494.094 -80.959 OFFCURVE",
"601.038 -163 OFFCURVE",
"701 -163 CURVE SMOOTH",
"769 -163 OFFCURVE",
"824 -125 OFFCURVE",
"824 -62 CURVE SMOOTH",
"824 -40 OFFCURVE",
"817 -15 OFFCURVE",
"802 13 CURVE",
"772 3 OFFCURVE",
"746 -3 OFFCURVE",
"704 -3 CURVE SMOOTH",
"608.779 -3 OFFCURVE",
"548.258 28.471 OFFCURVE",
"493.439 129.109 CURVE",
"722.938 136.995 OFFCURVE",
"886 277.39 OFFCURVE",
"886 434 CURVE SMOOTH",
"886 561 OFFCURVE",
"784 741 OFFCURVE",
"630 741 CURVE SMOOTH",
"566 741 OFFCURVE",
"430 710 OFFCURVE",
"368 710 CURVE SMOOTH",
"299 710 OFFCURVE",
"256 749 OFFCURVE",
"256 810 CURVE SMOOTH",
"256 865 OFFCURVE",
"291 905 OFFCURVE",
"389 905 CURVE SMOOTH",
"794 905 LINE",
"802 913 LINE",
"802 1197 LINE",
"1056 1197 LINE",
"1062 1206 LINE",
"1006 1330 LINE"
);
}
);
};
layerId = "7D009F26-9523-4D0C-936A-45D9328E47A0";
name = Regular;
paths = (
{
closed = 1;
nodes = (
"-50 1330 LINE",
"-56 1321 LINE",
"0 1197 LINE",
"648 1197 LINE",
"648 1034 LINE SMOOTH",
"648 1029 OFFCURVE",
"645 1026 OFFCURVE",
"640 1026 CURVE SMOOTH",
"307 1026 LINE SMOOTH",
"175 1026 OFFCURVE",
"114 961 OFFCURVE",
"114 877 CURVE SMOOTH",
"114 740 OFFCURVE",
"274 532 OFFCURVE",
"457 532 CURVE SMOOTH",
"516 532 OFFCURVE",
"667 554 OFFCURVE",
"713 554 CURVE SMOOTH",
"765 554 OFFCURVE",
"795 525 OFFCURVE",
"795 481 CURVE SMOOTH",
"795 386 OFFCURVE",
"654 310 OFFCURVE",
"420 311 CURVE",
"380 396 OFFCURVE",
"334 447 OFFCURVE",
"266 447 CURVE SMOOTH",
"214 447 OFFCURVE",
"155 416 OFFCURVE",
"155 341 CURVE SMOOTH",
"155 244 OFFCURVE",
"254 155 OFFCURVE",
"426 149 CURVE",
"494 -61 OFFCURVE",
"601 -143 OFFCURVE",
"701 -143 CURVE SMOOTH",
"769 -143 OFFCURVE",
"824 -105 OFFCURVE",
"824 -42 CURVE SMOOTH",
"824 -20 OFFCURVE",
"817 5 OFFCURVE",
"802 33 CURVE",
"772 23 OFFCURVE",
"746 17 OFFCURVE",
"704 17 CURVE SMOOTH",
"609 17 OFFCURVE",
"548 48 OFFCURVE",
"493 149 CURVE",
"729 159 OFFCURVE",
"886 276 OFFCURVE",
"886 421 CURVE SMOOTH",
"886 538 OFFCURVE",
"784 721 OFFCURVE",
"630 721 CURVE SMOOTH",
"566 721 OFFCURVE",
"430 690 OFFCURVE",
"368 690 CURVE SMOOTH",
"299 690 OFFCURVE",
"256 729 OFFCURVE",
"256 790 CURVE SMOOTH",
"256 845 OFFCURVE",
"291 885 OFFCURVE",
"389 885 CURVE SMOOTH",
"794 885 LINE",
"802 893 LINE",
"802 1197 LINE",
"1056 1197 LINE",
"1062 1206 LINE",
"1006 1330 LINE"
);
}
);
width = 1006;
},
{
background = {
paths = (
{
closed = 1;
nodes = (
"862 845 LINE",
"882 865 LINE",
"882 1137 LINE",
"1112 1137 LINE",
"1129 1160 LINE",
"1076 1330 LINE",
"-36 1330 LINE",
"-53 1307 LINE",
"0 1137 LINE",
"648 1137 LINE",
"648 1056 LINE SMOOTH",
"648 1043 OFFCURVE",
"641 1036 OFFCURVE",
"628 1036 CURVE SMOOTH",
"307 1036 LINE SMOOTH",
"168 1036 OFFCURVE",
"104 972 OFFCURVE",
"104 886 CURVE SMOOTH",
"104 737 OFFCURVE",
"296 502 OFFCURVE",
"500 502 CURVE SMOOTH",
"562 502 OFFCURVE",
"673 524 OFFCURVE",
"713 524 CURVE SMOOTH",
"743 524 OFFCURVE",
"765 511 OFFCURVE",
"765 473 CURVE SMOOTH",
"765 393.484 OFFCURVE",
"665.833 305.42 OFFCURVE",
"473.033 300.496 CURVE",
"419.339 384.38 OFFCURVE",
"356.933 437 OFFCURVE",
"273 437 CURVE SMOOTH",
"194 437 OFFCURVE",
"145 389 OFFCURVE",
"145 314 CURVE SMOOTH",
"145 204.125 OFFCURVE",
"249.911 98.585 OFFCURVE",
"437.128 80.5354 CURVE",
"517.624 -153.616 OFFCURVE",
"637.691 -233 OFFCURVE",
"741 -233 CURVE SMOOTH",
"827 -233 OFFCURVE",
"894 -178 OFFCURVE",
"894 -94 CURVE SMOOTH",
"894 -67 OFFCURVE",
"887 -39 OFFCURVE",
"872 -7 CURVE",
"842 -17 OFFCURVE",
"816 -23 OFFCURVE",
"773 -23 CURVE SMOOTH",
"685.169 -23 OFFCURVE",
"625.673 1.40009 OFFCURVE",
"574.961 80.2264 CURVE",
"792.973 93.5261 OFFCURVE",
"946 213.128 OFFCURVE",
"946 373 CURVE SMOOTH",
"946 538 OFFCURVE",
"785 745 OFFCURVE",
"631 745 CURVE SMOOTH",
"571 745 OFFCURVE",
"431 714 OFFCURVE",
"390 714 CURVE SMOOTH",
"350 714 OFFCURVE",
"326 743 OFFCURVE",
"326 780 CURVE SMOOTH",
"326 821 OFFCURVE",
"354 845 OFFCURVE",
"469 845 CURVE SMOOTH"
);
}
);
};
layerId = "29AE4022-23C2-49D3-A156-B9EDF5C2AEE5";
name = Bold;
paths = (
{
closed = 1;
nodes = (
"862 835 LINE",
"882 855 LINE",
"882 1137 LINE",
"1112 1137 LINE",
"1129 1160 LINE",
"1076 1330 LINE",
"-36 1330 LINE",
"-53 1307 LINE",
"0 1137 LINE",
"648 1137 LINE",
"648 1046 LINE SMOOTH",
"648 1033 OFFCURVE",
"641 1026 OFFCURVE",
"628 1026 CURVE SMOOTH",
"307 1026 LINE SMOOTH",
"168 1026 OFFCURVE",
"104 962 OFFCURVE",
"104 876 CURVE SMOOTH",
"104 727 OFFCURVE",
"296 492 OFFCURVE",
"500 492 CURVE SMOOTH",
"562 492 OFFCURVE",
"673 514 OFFCURVE",
"712 514 CURVE SMOOTH",
"741 514 OFFCURVE",
"765 501 OFFCURVE",
"765 465 CURVE SMOOTH",
"765 390 OFFCURVE",
"663 315 OFFCURVE",
"473 310 CURVE",
"419 394 OFFCURVE",
"357 447 OFFCURVE",
"273 447 CURVE SMOOTH",
"194 447 OFFCURVE",
"145 399 OFFCURVE",
"145 324 CURVE SMOOTH",
"145 214 OFFCURVE",
"250 109 OFFCURVE",
"437 91 CURVE",
"518 -144 OFFCURVE",
"638 -223 OFFCURVE",
"741 -223 CURVE SMOOTH",
"827 -223 OFFCURVE",
"894 -168 OFFCURVE",
"894 -84 CURVE SMOOTH",
"894 -57 OFFCURVE",
"887 -29 OFFCURVE",
"872 3 CURVE",
"842 -7 OFFCURVE",
"816 -13 OFFCURVE",
"773 -13 CURVE SMOOTH",
"685 -13 OFFCURVE",
"626 11 OFFCURVE",
"575 90 CURVE",
"799 104 OFFCURVE",
"946 216 OFFCURVE",
"946 367 CURVE SMOOTH",
"946 526 OFFCURVE",
"785 735 OFFCURVE",
"631 735 CURVE SMOOTH",
"571 735 OFFCURVE",
"431 704 OFFCURVE",
"390 704 CURVE SMOOTH",
"350 704 OFFCURVE",
"326 733 OFFCURVE",
"326 770 CURVE SMOOTH",
"326 811 OFFCURVE",
"354 835 OFFCURVE",
"469 835 CURVE SMOOTH"
);
}
);
width = 1076;
}
);
unicode = 0907;
},
{
glyphname = iideva;
lastChange = "2014-07-17 06:31:51 +0530";
layers = (
{
components = (
{
name = ideva;
transform = "{1, 0, 0, 1, 0, 0}";
}
);
layerId = "7D009F26-9523-4D0C-936A-45D9328E47A0";
name = Regular;
paths = (
{
closed = 1;
nodes = (
"593 1854 OFFCURVE",
"490 1733 OFFCURVE",
"490 1593 CURVE SMOOTH",
"490 1464 OFFCURVE",
"579 1337 OFFCURVE",
"705 1264 CURVE",
"805 1286 LINE",
"698 1351 OFFCURVE",
"628 1434 OFFCURVE",
"628 1540 CURVE SMOOTH",
"628 1642 OFFCURVE",
"692 1715 OFFCURVE",
"802 1715 CURVE SMOOTH",
"856 1715 OFFCURVE",
"920 1697 OFFCURVE",
"977 1648 CURVE",
"980 1658 OFFCURVE",
"981 1668 OFFCURVE",
"981 1678 CURVE SMOOTH",
"981 1768 OFFCURVE",
"887 1854 OFFCURVE",
"753 1854 CURVE SMOOTH"
);
}
);
width = 1006;
},
{
components = (
{
name = ideva;
transform = "{1, 0, 0, 1, 0, 0}";
}
);
layerId = "29AE4022-23C2-49D3-A156-B9EDF5C2AEE5";
name = Bold;
paths = (
{
closed = 1;
nodes = (
"592 1854 OFFCURVE",
"490 1740 OFFCURVE",
"490 1593 CURVE SMOOTH",
"490 1455 OFFCURVE",
"581 1322 OFFCURVE",
"785 1204 CURVE",
"915 1226 LINE",
"780 1297 OFFCURVE",
"708 1386 OFFCURVE",
"708 1485 CURVE SMOOTH",
"708 1579 OFFCURVE",
"772 1655 OFFCURVE",
"882 1655 CURVE SMOOTH",
"936 1655 OFFCURVE",
"1000 1637 OFFCURVE",
"1057 1588 CURVE",
"1060 1598 OFFCURVE",
"1061 1608 OFFCURVE",
"1061 1619 CURVE SMOOTH",
"1061 1738 OFFCURVE",
"943 1854 OFFCURVE",
"767 1854 CURVE SMOOTH"
);
}
);
width = 1076;
}
);
unicode = 0908;
},
{
color = 1;
glyphname = udeva;
lastChange = "2014-07-17 08:34:28 +0530";
layers = (
{
background = {
paths = (
{
closed = 1;
nodes = (
"-50 1330 LINE",
"-56 1321 LINE",
"0 1197 LINE",
"574 1197 LINE SMOOTH",
"695 1197 OFFCURVE",
"751 1111 OFFCURVE",
"751 1029 CURVE SMOOTH",
"751 913 OFFCURVE",
"623 830 OFFCURVE",
"375 828 CURVE",
"369 819 LINE",
"437 655 LINE",
"523.936 655 OFFCURVE",
"599.664 666.299 OFFCURVE",
"663.029 686.862 CURVE",
"760.374 649.533 OFFCURVE",
"829 564.241 OFFCURVE",
"829 458 CURVE SMOOTH",
"829 310 OFFCURVE",
"720 222 OFFCURVE",
"570 222 CURVE SMOOTH",
"355 222 OFFCURVE",
"187 414 OFFCURVE",
"116 806 CURVE",
"68 801 OFFCURVE",
"49 771 OFFCURVE",
"49 708 CURVE SMOOTH",
"49 524 OFFCURVE",
"216 52 OFFCURVE",
"625 52 CURVE SMOOTH",
"828 52 OFFCURVE",
"967 196 OFFCURVE",
"967 384 CURVE SMOOTH",
"967 528.67 OFFCURVE",
"888.352 656.783 OFFCURVE",
"773.991 740.468 CURVE",
"849.636 793.112 OFFCURVE",
"890 866.94 OFFCURVE",
"890 953 CURVE SMOOTH",
"890 1030 OFFCURVE",
"859 1109 OFFCURVE",
"792 1187 CURVE",
"796 1197 LINE",
"1128 1197 LINE",
"1134 1206 LINE",
"1078 1330 LINE"
);
}
);
};
layerId = "7D009F26-9523-4D0C-936A-45D9328E47A0";
name = Regular;
paths = (
{
closed = 1;
nodes = (
"-50 1330 LINE",
"-56 1321 LINE",
"0 1197 LINE",
"574 1197 LINE SMOOTH",
"695 1197 OFFCURVE",
"751 1110 OFFCURVE",
"751 1031 CURVE SMOOTH",
"751 908 OFFCURVE",
"616 830 OFFCURVE",
"375 828 CURVE",
"369 819 LINE",
"437 655 LINE",
"523.936 655 OFFCURVE",
"599.664 666.299 OFFCURVE",
"663.029 686.862 CURVE",
"760 650 OFFCURVE",
"829 574 OFFCURVE",
"829 463 CURVE SMOOTH",
"829 323 OFFCURVE",
"720 232 OFFCURVE",
"570 232 CURVE SMOOTH",
"355 232 OFFCURVE",
"187 421 OFFCURVE",
"116 806 CURVE",
"68 801 OFFCURVE",
"49 770 OFFCURVE",
"49 710 CURVE SMOOTH",
"49 527 OFFCURVE",
"222 62 OFFCURVE",
"615 62 CURVE SMOOTH",
"833 62 OFFCURVE",
"967 206 OFFCURVE",
"967 393 CURVE SMOOTH",
"967 535 OFFCURVE",
"889 658 OFFCURVE",
"773.991 740.468 CURVE",
"852 795 OFFCURVE",
"890 869 OFFCURVE",
"890 953 CURVE SMOOTH",
"890 1030 OFFCURVE",
"859 1109 OFFCURVE",
"792 1187 CURVE",
"796 1197 LINE",
"1128 1197 LINE",
"1134 1206 LINE",
"1078 1330 LINE"
);
}
);
width = 1078;
},
{
background = {
paths = (
{
closed = 1;
nodes = (
"-36 1330 LINE",
"-53 1307 LINE",
"0 1137 LINE",
"574 1137 LINE SMOOTH",
"676 1137 OFFCURVE",
"741 1088 OFFCURVE",
"741 1014 CURVE SMOOTH",
"741 914 OFFCURVE",
"624 834 OFFCURVE",
"391 828 CURVE SMOOTH",
"375 828 OFFCURVE",
"369 819 OFFCURVE",
"375 805 CURVE SMOOTH",
"477 565 LINE",
"585.387 565 OFFCURVE",
"678.189 580.7 OFFCURVE",
"753.484 608.963 CURVE",
"793.534 571.879 OFFCURVE",
"819 519.184 OFFCURVE",
"819 458 CURVE SMOOTH",
"819 317 OFFCURVE",
"711 237 OFFCURVE",
"580 237 CURVE SMOOTH",
"379 237 OFFCURVE",
"216 427 OFFCURVE",
"156 826 CURVE",
"66 818 OFFCURVE",
"39 779 OFFCURVE",
"39 704 CURVE SMOOTH",
"39 509 OFFCURVE",
"221 -8 OFFCURVE",
"665 -8 CURVE SMOOTH",
"886 -8 OFFCURVE",
"1037 144 OFFCURVE",
"1037 344 CURVE SMOOTH",
"1037 476.411 OFFCURVE",
"974.31 595.625 OFFCURVE",
"879.485 680.734 CURVE",
"945.149 736.486 OFFCURVE",
"980 809.439 OFFCURVE",
"980 893 CURVE SMOOTH",
"980 966 OFFCURVE",
"953 1046 OFFCURVE",
"887 1127 CURVE",
"892 1137 LINE",
"1214 1137 LINE",
"1231 1160 LINE",
"1178 1330 LINE"
);
}
);
};
layerId = "29AE4022-23C2-49D3-A156-B9EDF5C2AEE5";
name = Bold;
paths = (
{
closed = 1;
nodes = (
"-36 1330 LINE",
"-53 1307 LINE",
"0 1137 LINE",
"574 1137 LINE SMOOTH",
"676 1137 OFFCURVE",
"741 1089 OFFCURVE",
"741 1012 CURVE SMOOTH",
"741 914 OFFCURVE",
"635 841 OFFCURVE",
"391 828 CURVE",
"375 805 LINE",
"477 565 LINE",
"585.387 565 OFFCURVE",
"678.189 580.7 OFFCURVE",
"753.484 608.963 CURVE",
"798 570 OFFCURVE",
"819 523 OFFCURVE",
"819 464 CURVE SMOOTH",
"819 329 OFFCURVE",
"711 247 OFFCURVE",
"579 247 CURVE SMOOTH",
"383 247 OFFCURVE",
"217 428 OFFCURVE",
"156 826 CURVE",
"63 818 OFFCURVE",
"39 775 OFFCURVE",
"39 706 CURVE SMOOTH",
"39 513 OFFCURVE",
"226 2 OFFCURVE",
"656 2 CURVE SMOOTH",
"890 2 OFFCURVE",
"1037 154 OFFCURVE",
"1037 353 CURVE SMOOTH",
"1037 483 OFFCURVE",
"974 598 OFFCURVE",
"879.485 680.734 CURVE",
"947 738 OFFCURVE",
"980 812 OFFCURVE",
"980 893 CURVE SMOOTH",
"980 966 OFFCURVE",
"953 1046 OFFCURVE",
"887 1127 CURVE",
"892 1137 LINE",
"1214 1137 LINE",
"1231 1160 LINE",
"1178 1330 LINE"
);
}
);
width = 1178;
}
);
unicode = 0909;
},
{
glyphname = uudeva;
lastChange = "2014-07-16 18:29:26 +0530";
layers = (
{
components = (
{
name = udeva;
transform = "{1, 0, 0, 1, 0, 0}";
}
);
layerId = "7D009F26-9523-4D0C-936A-45D9328E47A0";
name = Regular;
paths = (
{
closed = 1;
nodes = (
"993 829 OFFCURVE",
"913 763 OFFCURVE",
"788 622 CURVE",
"912 509 LINE",
"1002 638 OFFCURVE",
"1082 703 OFFCURVE",
"1162 703 CURVE SMOOTH",
"1248 703 OFFCURVE",
"1299 629 OFFCURVE",
"1299 520 CURVE SMOOTH",
"1299 386 OFFCURVE",
"1220 269 OFFCURVE",
"1098 213 CURVE",
"1129 155 OFFCURVE",
"1184 116 OFFCURVE",
"1248 116 CURVE",
"1362 116 OFFCURVE",
"1440 256 OFFCURVE",
"1440 408 CURVE",
"1440 635 OFFCURVE",
"1281 829 OFFCURVE",
"1099 829 CURVE SMOOTH"
);
},
{
closed = 1;
nodes = (
"950 1330 LINE",
"944 1321 LINE",
"1000 1197 LINE",
"1531 1197 LINE",
"1537 1206 LINE",
"1481 1330 LINE"
);
}
);
width = 1481;
},
{
components = (
{
name = udeva;
transform = "{1, 0, 0, 1, 0, 0}";
}
);
layerId = "29AE4022-23C2-49D3-A156-B9EDF5C2AEE5";
name = Bold;
paths = (
{
closed = 1;
nodes = (
"1056 789 OFFCURVE",
"961 724 OFFCURVE",
"818 542 CURVE",
"1002 379 LINE",
"1086 523 OFFCURVE",
"1172 605 OFFCURVE",
"1235 605 CURVE SMOOTH",
"1272 605 OFFCURVE",
"1299 576 OFFCURVE",
"1299 505 CURVE SMOOTH",
"1299 382 OFFCURVE",
"1218 265 OFFCURVE",
"1098 213 CURVE",
"1150 115 OFFCURVE",
"1240 56 OFFCURVE",
"1328 56 CURVE SMOOTH",
"1425 56 OFFCURVE",
"1520 167 OFFCURVE",
"1520 338 CURVE SMOOTH",
"1520 568 OFFCURVE",
"1318 789 OFFCURVE",
"1148 789 CURVE SMOOTH"
);
},
{
closed = 1;
nodes = (
"940 1330 LINE",
"1000 1137 LINE",
"1597 1137 LINE",
"1614 1160 LINE",
"1561 1330 LINE"
);
}
);
width = 1561;
}
);
unicode = 090A;
},
{
glyphname = rvocalicdeva;
lastChange = "2014-07-16 18:29:38 +0530";
layers = (
{
layerId = "7D009F26-9523-4D0C-936A-45D9328E47A0";
name = Regular;
paths = (
{
closed = 1;
nodes = (
"-50 1330 LINE",
"-56 1321 LINE",
"0 1197 LINE",
"794 1197 LINE",
"794 763 LINE",
"784 759 LINE",
"514 970 OFFCURVE",
"428 1019 OFFCURVE",
"321 1019 CURVE SMOOTH",
"176 1019 OFFCURVE",
"94 931 OFFCURVE",
"94 859 CURVE SMOOTH",
"94 811 OFFCURVE",
"130 765 OFFCURVE",
"194 725 CURVE",
"246 809 OFFCURVE",
"329 869 OFFCURVE",
"406 869 CURVE SMOOTH",
"464.986 869 OFFCURVE",
"503.656 862.228 OFFCURVE",
"740.013 686.16 CURVE",
"547.071 562.032 OFFCURVE",
"376.741 426.637 OFFCURVE",
"221 288 CURVE",
"221 276 LINE",
"348 158 LINE",
"483 282 OFFCURVE",
"625 403 OFFCURVE",
"784 517 CURVE",
"794 512 LINE",
"794 19 LINE",
"945 -19 LINE",
"954 -12 LINE",
"954 566.786 LINE",
"1098.44 573.084 OFFCURVE",
"1231.06 616.719 OFFCURVE",
"1326.61 678.005 CURVE",
"1441.41 525.63 OFFCURVE",
"1458 482.026 OFFCURVE",
"1458 421 CURVE SMOOTH",
"1458 338 OFFCURVE",
"1362 270 OFFCURVE",
"1240 270 CURVE",
"1250 188 OFFCURVE",
"1306 136 OFFCURVE",
"1386 136 CURVE SMOOTH",
"1490 136 OFFCURVE",
"1588 224 OFFCURVE",
"1588 354 CURVE SMOOTH",
"1588 462.132 OFFCURVE",
"1534.19 566.848 OFFCURVE",
"1399.72 735.248 CURVE",
"1448.6 782.709 OFFCURVE",
"1477 835.683 OFFCURVE",
"1477 888 CURVE SMOOTH",
"1477 968 OFFCURVE",
"1409 1045 OFFCURVE",
"1317 1045 CURVE SMOOTH",
"1235 1045 OFFCURVE",
"1193 985 OFFCURVE",
"1193 934 CURVE SMOOTH",
"1193 894.526 OFFCURVE",
"1201.79 863.843 OFFCURVE",
"1236.06 808.025 CURVE",
"1155.59 752.783 OFFCURVE",
"1064.57 722.437 OFFCURVE",
"954 713.131 CURVE",
"954 1197 LINE",
"1761 1197 LINE",
"1767 1206 LINE",
"1711 1330 LINE"
);
}
);
width = 1711;
},
{
layerId = "29AE4022-23C2-49D3-A156-B9EDF5C2AEE5";
name = Bold;
paths = (
{
closed = 1;
nodes = (
"-36 1330 LINE",
"-53 1307 LINE",
"0 1137 LINE",
"794 1137 LINE",
"794 770 LINE",
"784 766 LINE",
"528 969 OFFCURVE",
"433 1019 OFFCURVE",
"321 1019 CURVE SMOOTH",
"176 1019 OFFCURVE",
"94 931 OFFCURVE",
"94 859 CURVE SMOOTH",
"94 787 OFFCURVE",
"162 723 OFFCURVE",
"274 665 CURVE",
"324 731 OFFCURVE",
"403 779 OFFCURVE",
"476 779 CURVE SMOOTH",
"525.654 779 OFFCURVE",
"560.911 774.201 OFFCURVE",
"711.812 667.658 CURVE",
"534.286 550.83 OFFCURVE",
"376.087 424.872 OFFCURVE",
"231 296 CURVE",
"231 268 LINE",
"428 98 LINE",
"540 201 OFFCURVE",
"657 302 OFFCURVE",
"784 398 CURVE",
"794 393 LINE",
"794 -21 LINE",
"1012 -57 LINE",
"1034 -39 LINE",
"1034 506.777 LINE",
"1166.23 512.479 OFFCURVE",
"1288.56 549.154 OFFCURVE",
"1381.61 602.587 CURVE",
"1447.07 508.573 OFFCURVE",
"1458 470.523 OFFCURVE",
"1458 421 CURVE SMOOTH",
"1458 338 OFFCURVE",
"1362 270 OFFCURVE",
"1240 270 CURVE",
"1258 152 OFFCURVE",
"1346 76 OFFCURVE",
"1466 76 CURVE SMOOTH",
"1582 76 OFFCURVE",
"1668 175 OFFCURVE",
"1668 294 CURVE SMOOTH",
"1668 402.169 OFFCURVE",
"1614.15 506.92 OFFCURVE",
"1479.59 675.42 CURVE",
"1528.55 723.51 OFFCURVE",
"1557 777.645 OFFCURVE",
"1557 832 CURVE SMOOTH",
"1557 943 OFFCURVE",
"1455 1055 OFFCURVE",
"1336 1055 CURVE SMOOTH",
"1226 1055 OFFCURVE",
"1193 977 OFFCURVE",
"1193 924 CURVE SMOOTH",
"1193 888.959 OFFCURVE",
"1202.34 854.73 OFFCURVE",
"1233.94 806.574 CURVE",
"1174.31 766.06 OFFCURVE",
"1108.88 739.133 OFFCURVE",
"1034 724.234 CURVE",
"1034 1137 LINE",
"1807 1137 LINE",
"1824 1160 LINE",
"1771 1330 LINE"
);
}
);
width = 1771;
}
);
unicode = 090B;
},
{
color = 1;
glyphname = lvocalicdeva;
lastChange = "2014-07-17 08:38:16 +0530";
layers = (
{
background = {
paths = (
{
closed = 1;
nodes = (
"-50 1330 LINE",
"-56 1321 LINE",
"0 1197 LINE",
"924 1197 LINE",
"924 880.621 LINE",
"849.471 862.82 OFFCURVE",
"770.848 816.268 OFFCURVE",
"701.802 737.235 CURVE",
"586.249 860.003 OFFCURVE",
"488.353 904 OFFCURVE",
"383 904 CURVE SMOOTH",
"208 904 OFFCURVE",
"102 778 OFFCURVE",
"102 607 CURVE SMOOTH",
"102 302 OFFCURVE",
"438 -8 OFFCURVE",
"553 -8 CURVE SMOOTH",
"579 -8 OFFCURVE",
"602 9 OFFCURVE",
"611 34 CURVE",
"383 188 OFFCURVE",
"258 399 OFFCURVE",
"258 555 CURVE SMOOTH",
"258 677 OFFCURVE",
"335 768 OFFCURVE",
"441 768 CURVE SMOOTH",
"512.025 768 OFFCURVE",
"578.785 736.323 OFFCURVE",
"648.414 666.313 CURVE",
"617.995 619.512 OFFCURVE",
"590.675 564.882 OFFCURVE",
"568 502 CURVE",
"701 418 LINE",
"711 421 LINE",
"810 657 OFFCURVE",
"943 749 OFFCURVE",
"1054 751 CURVE SMOOTH",
"1136 752 OFFCURVE",
"1198 704 OFFCURVE",
"1198 602 CURVE SMOOTH",
"1198 511 OFFCURVE",
"1138 429 OFFCURVE",
"1038 313 CURVE SMOOTH",
"975 241 OFFCURVE",
"876 133 OFFCURVE",
"876 37 CURVE SMOOTH",
"876 -78 OFFCURVE",
"1018 -210 OFFCURVE",
"1181 -210 CURVE SMOOTH",
"1310 -210 OFFCURVE",
"1416 -127 OFFCURVE",
"1416 -46 CURVE SMOOTH",
"1416 8 OFFCURVE",
"1369 53 OFFCURVE",
"1331 67 CURVE",
"1276 -36 OFFCURVE",
"1161 -84 OFFCURVE",
"1086 -84 CURVE SMOOTH",
"1038 -84 OFFCURVE",
"1005 -65 OFFCURVE",
"1005 -23 CURVE SMOOTH",
"1005 44 OFFCURVE",
"1086 114 OFFCURVE",
"1199 251 CURVE SMOOTH",
"1295 368 OFFCURVE",
"1320 434 OFFCURVE",
"1320 522 CURVE SMOOTH",
"1320 700.034 OFFCURVE",
"1208.22 836.849 OFFCURVE",
"1074 876.97 CURVE",
"1074 1197 LINE",
"1461 1197 LINE",
"1467 1206 LINE",
"1411 1330 LINE"
);
}
);
};
layerId = "7D009F26-9523-4D0C-936A-45D9328E47A0";
name = Regular;
paths = (
{
closed = 1;
nodes = (
"-50 1330 LINE",
"-56 1321 LINE",
"0 1197 LINE",
"924 1197 LINE",
"924 901 LINE",
"849 883 OFFCURVE",
"771 836 OFFCURVE",
"702 757 CURVE",
"586 880 OFFCURVE",
"488 924 OFFCURVE",
"383 924 CURVE SMOOTH",
"208 924 OFFCURVE",
"102 799 OFFCURVE",
"102 625 CURVE SMOOTH",
"102 314 OFFCURVE",
"438 -8 OFFCURVE",
"553 -8 CURVE SMOOTH",
"579 -8 OFFCURVE",
"602 9 OFFCURVE",
"611 34 CURVE",
"379 197 OFFCURVE",
"258 417 OFFCURVE",
"258 574 CURVE SMOOTH",
"258 697 OFFCURVE",
"333 788 OFFCURVE",
"445 788 CURVE SMOOTH",
"511 788 OFFCURVE",
"579 756 OFFCURVE",
"648 686 CURVE",
"618 640 OFFCURVE",
"591 585 OFFCURVE",
"568 522 CURVE",
"701 438 LINE",
"711 441 LINE",
"812 682 OFFCURVE",
"948 770 OFFCURVE",
"1054 771 CURVE SMOOTH",
"1136 772 OFFCURVE",
"1198 722 OFFCURVE",
"1198 626 CURVE SMOOTH",
"1198 533 OFFCURVE",
"1141 451 OFFCURVE",
"1038 333 CURVE SMOOTH",
"975 261 OFFCURVE",
"876 153 OFFCURVE",
"876 57 CURVE SMOOTH",
"876 -58 OFFCURVE",
"1018 -190 OFFCURVE",
"1181 -190 CURVE SMOOTH",
"1310 -190 OFFCURVE",
"1416 -107 OFFCURVE",
"1416 -26 CURVE SMOOTH",
"1416 28 OFFCURVE",
"1369 73 OFFCURVE",
"1331 87 CURVE",
"1276 -16 OFFCURVE",
"1161 -64 OFFCURVE",
"1086 -64 CURVE SMOOTH",
"1038 -64 OFFCURVE",
"1005 -45 OFFCURVE",
"1005 -3 CURVE SMOOTH",
"1005 68 OFFCURVE",
"1103 152 OFFCURVE",
"1199 271 CURVE SMOOTH",
"1294 388 OFFCURVE",
"1320 452 OFFCURVE",
"1320 540 CURVE SMOOTH",
"1320 718 OFFCURVE",
"1212 855 OFFCURVE",
"1074 897 CURVE",
"1074 1197 LINE",
"1461 1197 LINE",
"1467 1206 LINE",
"1411 1330 LINE"
);
}
);
width = 1411;
},
{
background = {
paths = (
{
closed = 1;
nodes = (
"-36 1330 LINE",
"-53 1307 LINE",
"0 1137 LINE",
"924 1137 LINE",
"924 879.858 LINE",
"851.148 862.552 OFFCURVE",
"777.922 820.32 OFFCURVE",
"712.962 750.16 CURVE",
"595.5 861.051 OFFCURVE",
"492.039 904 OFFCURVE",
"383 904 CURVE SMOOTH",
"208 904 OFFCURVE",
"102 780 OFFCURVE",
"102 603 CURVE SMOOTH",
"102 304 OFFCURVE",
"427 -68 OFFCURVE",
"614 -68 CURVE SMOOTH",
"658 -68 OFFCURVE",
"693 -34 OFFCURVE",
"701 14 CURVE",
"467 156 OFFCURVE",
"338 350 OFFCURVE",
"338 497 CURVE SMOOTH",
"338 604 OFFCURVE",
"407 688 OFFCURVE",
"501 688 CURVE SMOOTH",
"547.075 688 OFFCURVE",
"591.355 674.669 OFFCURVE",
"635.787 646.191 CURVE",
"610.554 604.051 OFFCURVE",
"587.701 556.077 OFFCURVE",
"568 502 CURVE",
"770 365 LINE",
"797 374 LINE",
"888 587 OFFCURVE",
"1016 671 OFFCURVE",
"1113 671 CURVE SMOOTH",
"1163 671 OFFCURVE",
"1198 648 OFFCURVE",
"1198 590 CURVE SMOOTH",
"1198 513 OFFCURVE",
"1137 427 OFFCURVE",
"1038 313 CURVE SMOOTH",
"975 240 OFFCURVE",
"876 136 OFFCURVE",
"876 33 CURVE SMOOTH",
"876 -108 OFFCURVE",
"1063 -270 OFFCURVE",
"1255 -270 CURVE SMOOTH",
"1393 -270 OFFCURVE",
"1496 -187 OFFCURVE",
"1496 -106 CURVE SMOOTH",
"1496 -42 OFFCURVE",
"1430 39 OFFCURVE",
"1331 67 CURVE",
"1275 -31 OFFCURVE",
"1170 -74 OFFCURVE",
"1119 -74 CURVE SMOOTH",
"1089 -74 OFFCURVE",
"1075 -59 OFFCURVE",
"1075 -36 CURVE SMOOTH",
"1075 16 OFFCURVE",
"1147 54 OFFCURVE",
"1275 210 CURVE SMOOTH",
"1370 326 OFFCURVE",
"1397 391 OFFCURVE",
"1397 477 CURVE SMOOTH",
"1397 648.933 OFFCURVE",
"1289.03 790.633 OFFCURVE",
"1154 853.707 CURVE",
"1154 1137 LINE",
"1527 1137 LINE",
"1544 1160 LINE",
"1491 1330 LINE"
);
}
);
};
layerId = "29AE4022-23C2-49D3-A156-B9EDF5C2AEE5";
name = Bold;
paths = (
{
closed = 1;
nodes = (
"-36 1330 LINE",
"-53 1307 LINE",
"0 1137 LINE",
"924 1137 LINE",
"924 900 LINE",
"851 883 OFFCURVE",
"778 840 OFFCURVE",
"713 770 CURVE",
"596 881 OFFCURVE",
"491 924 OFFCURVE",
"386 924 CURVE SMOOTH",
"207 924 OFFCURVE",
"102 800 OFFCURVE",
"102 623 CURVE SMOOTH",
"102 324 OFFCURVE",
"399 -48 OFFCURVE",
"561 -48 CURVE SMOOTH",
"612 -48 OFFCURVE",
"643 -12 OFFCURVE",
"651 34 CURVE",
"451 173 OFFCURVE",
"338 370 OFFCURVE",
"338 514 CURVE SMOOTH",
"338 624 OFFCURVE",
"404 708 OFFCURVE",
"505 708 CURVE SMOOTH",
"545 708 OFFCURVE",
"591 695 OFFCURVE",
"636 666 CURVE",
"611 624 OFFCURVE",
"588 576 OFFCURVE",
"568 522 CURVE",
"770 385 LINE",
"797 394 LINE",
"888 607 OFFCURVE",
"1016 691 OFFCURVE",
"1113 691 CURVE SMOOTH",
"1163 691 OFFCURVE",
"1198 668 OFFCURVE",
"1198 610 CURVE SMOOTH",
"1198 533 OFFCURVE",
"1137 447 OFFCURVE",
"1038 333 CURVE SMOOTH",
"975 260 OFFCURVE",
"876 156 OFFCURVE",
"876 53 CURVE SMOOTH",
"876 -88 OFFCURVE",
"1063 -250 OFFCURVE",
"1255 -250 CURVE SMOOTH",
"1393 -250 OFFCURVE",
"1496 -167 OFFCURVE",
"1496 -86 CURVE SMOOTH",
"1496 -22 OFFCURVE",
"1430 59 OFFCURVE",
"1331 87 CURVE",
"1275 -11 OFFCURVE",
"1170 -54 OFFCURVE",
"1119 -54 CURVE SMOOTH",
"1089 -54 OFFCURVE",
"1075 -39 OFFCURVE",
"1075 -16 CURVE SMOOTH",
"1075 36 OFFCURVE",
"1147 74 OFFCURVE",
"1275 230 CURVE SMOOTH",
"1370 346 OFFCURVE",
"1397 411 OFFCURVE",
"1397 497 CURVE SMOOTH",
"1397 669 OFFCURVE",
"1289 811 OFFCURVE",
"1154 874 CURVE",
"1154 1137 LINE",
"1527 1137 LINE",
"1544 1160 LINE",
"1491 1330 LINE"
);
}
);
width = 1491;
}
);
unicode = 090C;
},
{
glyphname = eshortdeva;
lastChange = "2014-07-16 18:29:54 +0530";
layers = (
{
components = (
{
name = edeva;
transform = "{1, 0, 0, 1, 0, 0}";
}
);
layerId = "7D009F26-9523-4D0C-936A-45D9328E47A0";
name = Regular;
paths = (
{
closed = 1;
nodes = (
"-73 1934 OFFCURVE",
"-80 1912 OFFCURVE",
"-80 1880 CURVE",
"-80 1729 OFFCURVE",
"65 1601 OFFCURVE",
"475 1557 CURVE SMOOTH",
"706 1535 OFFCURVE",
"772 1511 OFFCURVE",
"772 1413 CURVE SMOOTH",
"772 1388 OFFCURVE",
"764 1349 OFFCURVE",
"745 1311 CURVE",
"897 1311 LINE",
"851 1598 OFFCURVE",
"690 1701 OFFCURVE",
"369 1731 CURVE SMOOTH",
"105 1760 OFFCURVE",
"18 1818 OFFCURVE",
"-62 1956 CURVE"
);
}
);
width = 1126;
},
{
components = (
{
name = edeva;
transform = "{1, 0, 0, 1, 0, 0}";
}
);
layerId = "29AE4022-23C2-49D3-A156-B9EDF5C2AEE5";
name = Bold;
paths = (
{
closed = 1;
nodes = (
"-90 1922 OFFCURVE",
"-100 1896 OFFCURVE",
"-100 1852 CURVE",
"-100 1687 OFFCURVE",
"80 1521 OFFCURVE",
"535 1494 CURVE SMOOTH",
"722 1482 OFFCURVE",
"768 1461 OFFCURVE",
"768 1403 CURVE SMOOTH",
"768 1378 OFFCURVE",
"760 1339 OFFCURVE",
"741 1301 CURVE",
"977 1301 LINE",
"897 1548 OFFCURVE",
"731 1694 OFFCURVE",
"434 1740 CURVE SMOOTH",
"116 1791 OFFCURVE",
"19 1834 OFFCURVE",
"-62 1956 CURVE"
);
}
);
width = 1206;
}
);
unicode = 090E;
},
{
glyphname = edeva;
lastChange = "2014-07-16 18:29:54 +0530";
layers = (
{
layerId = "7D009F26-9523-4D0C-936A-45D9328E47A0";
name = Regular;
paths = (
{
closed = 1;
nodes = (
"-50 1330 LINE",
"-56 1321 LINE",
"0 1197 LINE",
"123 1197 LINE",
"123 787 LINE SMOOTH",
"123 526 OFFCURVE",
"276 454 OFFCURVE",
"686 265 CURVE SMOOTH",
"889 176 OFFCURVE",
"909 149 OFFCURVE",
"909 95 CURVE SMOOTH",
"909 39 OFFCURVE",
"868 -14 OFFCURVE",
"779 -59 CURVE",
"808 -105 OFFCURVE",
"856 -134 OFFCURVE",
"915 -134 CURVE SMOOTH",
"1001 -134 OFFCURVE",
"1066 -73 OFFCURVE",
"1066 39 CURVE SMOOTH",
"1066 146 OFFCURVE",
"991 243 OFFCURVE",
"642 402 CURVE SMOOTH",
"383 523 OFFCURVE",
"283 546 OFFCURVE",
"283 671 CURVE SMOOTH",
"283.92 1197 LINE",
"748 1197 LINE",
"748 781 LINE SMOOTH",
"748 711 OFFCURVE",
"712 649 OFFCURVE",
"640 621 CURVE",
"682 576 OFFCURVE",
"731 544 OFFCURVE",
"785 544 CURVE SMOOTH",
"860 544 OFFCURVE",
"908 607 OFFCURVE",
"908 707 CURVE SMOOTH",
"908 1197 LINE",
"1176 1197 LINE",
"1182 1206 LINE",
"1126 1330 LINE"
);
}
);
width = 1126;
},
{
layerId = "29AE4022-23C2-49D3-A156-B9EDF5C2AEE5";
name = Bold;
paths = (
{
closed = 1;
nodes = (
"-36 1330 LINE",
"-53 1307 LINE",
"0 1137 LINE",
"123 1137 LINE",
"123 767 LINE SMOOTH",
"123 507 OFFCURVE",
"271 437 OFFCURVE",
"686 245 CURVE SMOOTH",
"887 152 OFFCURVE",
"899 128 OFFCURVE",
"899 75 CURVE SMOOTH",
"899 19 OFFCURVE",
"856 -34 OFFCURVE",
"759 -79 CURVE",
"802 -162 OFFCURVE",
"876 -215 OFFCURVE",
"966 -215 CURVE SMOOTH",
"1068 -215 OFFCURVE",
"1136 -148 OFFCURVE",
"1136 -38 CURVE SMOOTH",
"1136 133 OFFCURVE",
"968 243 OFFCURVE",
"720 377 CURVE SMOOTH",
"413 543 OFFCURVE",
"363 540 OFFCURVE",
"363 651 CURVE SMOOTH",
"363.821 1137 LINE",
"748 1137 LINE",
"748 781 LINE SMOOTH",
"748 711 OFFCURVE",
"709 649 OFFCURVE",
"630 621 CURVE",
"693 540 OFFCURVE",
"763 484 OFFCURVE",
"845 484 CURVE SMOOTH",
"932 484 OFFCURVE",
"988 547 OFFCURVE",
"988 647 CURVE SMOOTH",
"988 1137 LINE",
"1242 1137 LINE",
"1259 1160 LINE",
"1206 1330 LINE"
);
}
);
width = 1206;
}
);
unicode = 090F;
},
{
glyphname = aideva;
lastChange = "2014-07-16 18:29:54 +0530";
layers = (
{
components = (
{
name = edeva;
transform = "{1, 0, 0, 1, 0, 0}";
}
);
layerId = "7D009F26-9523-4D0C-936A-45D9328E47A0";
name = Regular;
paths = (
{
closed = 1;
nodes = (
"66 1932 OFFCURVE",
"10 1861 OFFCURVE",
"10 1793 CURVE SMOOTH",
"10 1735 OFFCURVE",
"52 1680 OFFCURVE",
"129 1658 CURVE",
"158 1712 OFFCURVE",
"208 1751 OFFCURVE",
"283 1751 CURVE",
"391 1751 OFFCURVE",
"486 1682 OFFCURVE",
"810 1270 CURVE",
"895 1309 LINE",
"479 1859 OFFCURVE",
"322 1932 OFFCURVE",
"193 1932 CURVE SMOOTH"
);
}
);
width = 1126;
},
{
components = (
{
name = edeva;
transform = "{1, 0, 0, 1, 0, 0}";
}
);
layerId = "29AE4022-23C2-49D3-A156-B9EDF5C2AEE5";
name = Bold;
paths = (
{
closed = 1;
nodes = (
"65 1932 OFFCURVE",
"10 1861 OFFCURVE",
"10 1793 CURVE SMOOTH",
"10 1711 OFFCURVE",
"90 1624 OFFCURVE",
"209 1588 CURVE",
"236 1627 OFFCURVE",
"283 1658 OFFCURVE",
"349 1658 CURVE",
"453 1658 OFFCURVE",
"540 1592 OFFCURVE",
"840 1210 CURVE",
"975 1249 LINE",
"574 1780 OFFCURVE",
"387 1932 OFFCURVE",
"196 1932 CURVE SMOOTH"
);
}
);
width = 1206;
}
);
unicode = 0910;
},
{
glyphname = oshortdeva;
lastChange = "2014-07-16 19:09:21 +0530";
layers = (
{
components = (
{
name = aadeva;
transform = "{1, 0, 0, 1, 0, 0}";
}
);
layerId = "7D009F26-9523-4D0C-936A-45D9328E47A0";
name = Regular;
paths = (
{
closed = 1;
nodes = (
"854 1934 OFFCURVE",
"847 1912 OFFCURVE",
"847 1880 CURVE",
"847 1729 OFFCURVE",
"992 1601 OFFCURVE",
"1402 1557 CURVE SMOOTH",
"1633 1535 OFFCURVE",
"1699 1511 OFFCURVE",
"1699 1413 CURVE SMOOTH",
"1699 1388 OFFCURVE",
"1691 1349 OFFCURVE",
"1672 1311 CURVE",
"1824 1311 LINE",
"1778 1598 OFFCURVE",
"1617 1701 OFFCURVE",
"1296 1731 CURVE SMOOTH",
"1032 1760 OFFCURVE",
"945 1818 OFFCURVE",
"865 1956 CURVE"
);
}
);
width = 2033;
},
{
components = (
{
name = aadeva;
transform = "{1, 0, 0, 1, 0, 0}";
}
);
layerId = "29AE4022-23C2-49D3-A156-B9EDF5C2AEE5";
name = Bold;
paths = (
{
closed = 1;
nodes = (
"875 1922 OFFCURVE",
"865 1896 OFFCURVE",
"865 1852 CURVE",
"865 1687 OFFCURVE",
"1045 1521 OFFCURVE",
"1500 1494 CURVE SMOOTH",
"1687 1482 OFFCURVE",
"1733 1461 OFFCURVE",
"1733 1403 CURVE SMOOTH",
"1733 1378 OFFCURVE",
"1725 1339 OFFCURVE",
"1706 1301 CURVE",
"1942 1301 LINE",
"1862 1548 OFFCURVE",
"1696 1694 OFFCURVE",
"1399 1740 CURVE SMOOTH",
"1081 1791 OFFCURVE",
"984 1834 OFFCURVE",
"903 1956 CURVE"
);
}
);
width = 2153;
}
);
unicode = 0912;
},
{
glyphname = odeva;
lastChange = "2014-07-16 19:10:29 +0530";
layers = (
{
components = (
{
name = aadeva;
transform = "{1, 0, 0, 1, 0, 0}";
}
);
layerId = "7D009F26-9523-4D0C-936A-45D9328E47A0";
name = Regular;
paths = (
{
closed = 1;
nodes = (
"967 1932 OFFCURVE",
"911 1861 OFFCURVE",
"911 1793 CURVE SMOOTH",
"911 1735 OFFCURVE",
"953 1680 OFFCURVE",
"1030 1658 CURVE",
"1059 1712 OFFCURVE",
"1109 1751 OFFCURVE",
"1184 1751 CURVE",
"1294 1751 OFFCURVE",
"1391 1682 OFFCURVE",
"1721 1270 CURVE",
"1806 1309 LINE",
"1384 1859 OFFCURVE",
"1225 1932 OFFCURVE",
"1094 1932 CURVE SMOOTH"
);
}
);
width = 2033;
},
{
components = (
{
name = aadeva;
transform = "{1, 0, 0, 1, 0, 0}";
}
);
layerId = "29AE4022-23C2-49D3-A156-B9EDF5C2AEE5";
name = Bold;
paths = (
{
closed = 1;
nodes = (
"1023 1932 OFFCURVE",
"968 1861 OFFCURVE",
"968 1793 CURVE SMOOTH",
"968 1711 OFFCURVE",
"1048 1624 OFFCURVE",
"1167 1588 CURVE",
"1194 1627 OFFCURVE",
"1241 1658 OFFCURVE",
"1307 1658 CURVE",
"1415 1658 OFFCURVE",
"1506 1592 OFFCURVE",
"1818 1210 CURVE",
"1953 1249 LINE",
"1542 1780 OFFCURVE",
"1349 1932 OFFCURVE",
"1154 1932 CURVE SMOOTH"
);
}
);
width = 2153;
}
);
unicode = 0913;
},
{
glyphname = audeva;
lastChange = "2014-07-16 19:10:35 +0530";
layers = (
{
components = (
{
name = aadeva;
transform = "{1, 0, 0, 1, 0, 0}";
}
);
layerId = "7D009F26-9523-4D0C-936A-45D9328E47A0";
name = Regular;
paths = (
{
closed = 1;
nodes = (
"1267 2032 OFFCURVE",
"1218 1973 OFFCURVE",
"1218 1913 CURVE SMOOTH",
"1218 1859 OFFCURVE",
"1259 1822 OFFCURVE",
"1311 1801 CURVE",
"1336 1837 OFFCURVE",
"1374 1864 OFFCURVE",
"1418 1864 CURVE",
"1498 1864 OFFCURVE",
"1562 1809 OFFCURVE",
"1731 1270 CURVE",
"1816 1309 LINE",
"1637 1935 OFFCURVE",
"1488 2032 OFFCURVE",
"1364 2032 CURVE SMOOTH"
);
},
{
closed = 1;
nodes = (
"1018 1742 OFFCURVE",
"944 1693 OFFCURVE",
"944 1619 CURVE SMOOTH",
"944 1564 OFFCURVE",
"983 1511 OFFCURVE",
"1060 1488 CURVE",
"1087 1548 OFFCURVE",
"1134 1587 OFFCURVE",
"1204 1587 CURVE",
"1312 1587 OFFCURVE",
"1535 1468 OFFCURVE",
"1731 1270 CURVE",
"1816 1309 LINE",
"1587 1540 OFFCURVE",
"1271 1742 OFFCURVE",
"1101 1742 CURVE SMOOTH"
);
}
);
width = 2033;
},
{
components = (
{
name = aadeva;
transform = "{1, 0, 0, 1, 0, 0}";
}
);
guideLines = (
{
angle = 90;
position = "{2153, 917}";
}
);
layerId = "29AE4022-23C2-49D3-A156-B9EDF5C2AEE5";
name = Bold;
paths = (
{
closed = 1;
nodes = (
"1311 2032 OFFCURVE",
"1265 1973 OFFCURVE",
"1265 1911 CURVE SMOOTH",
"1265 1849 OFFCURVE",
"1312 1781 OFFCURVE",
"1438 1731 CURVE",
"1459 1755 OFFCURVE",
"1489 1774 OFFCURVE",
"1525 1774 CURVE",
"1597 1774 OFFCURVE",
"1659 1688 OFFCURVE",
"1828 1210 CURVE",
"1943 1249 LINE",
"1776 1836 OFFCURVE",
"1600 2032 OFFCURVE",
"1413 2032 CURVE SMOOTH"
);
},
{
closed = 1;
nodes = (
"1069 1742 OFFCURVE",
"991 1700 OFFCURVE",
"991 1612 CURVE SMOOTH",
"991 1534 OFFCURVE",
"1052 1463 OFFCURVE",
"1187 1424 CURVE",
"1212 1470 OFFCURVE",
"1256 1497 OFFCURVE",
"1321 1497 CURVE",
"1423 1497 OFFCURVE",
"1634 1390 OFFCURVE",
"1818 1210 CURVE",
"1943 1249 LINE",
"1645 1550 OFFCURVE",
"1316 1742 OFFCURVE",
"1148 1742 CURVE SMOOTH"
);
}
);
width = 2150;
}
);
unicode = 0914;
},
{
color = 1;
glyphname = kadeva;
lastChange = "2014-07-17 13:27:08 +0530";
layers = (
{
background = {
paths = (
{
closed = 1;
nodes = (
"-50 1330 LINE",
"-56 1321 LINE",
"0 1197 LINE",
"733 1197 LINE",
"733 856 LINE",
"723 853 LINE",
"635 951 OFFCURVE",
"515 987 OFFCURVE",
"420 987 CURVE SMOOTH",
"235 987 OFFCURVE",
"99 851 OFFCURVE",
"99 663 CURVE SMOOTH",
"99 408 OFFCURVE",
"348 189 OFFCURVE",
"554 189 CURVE SMOOTH",
"610 189 OFFCURVE",
"672 206 OFFCURVE",
"723 244 CURVE",
"733 239 LINE",
"733 19 LINE",
"884 -19 LINE",
"893 -12 LINE",
"893 495.889 LINE",
"906.596 684.939 OFFCURVE",
"1056.35 825 OFFCURVE",
"1187 825 CURVE SMOOTH",
"1277 825 OFFCURVE",
"1331 758 OFFCURVE",
"1331 635 CURVE SMOOTH",
"1331 489 OFFCURVE",
"1240 343 OFFCURVE",
"1107 273 CURVE",
"1149 222 OFFCURVE",
"1204 200 OFFCURVE",
"1248 200 CURVE SMOOTH",
"1351 200 OFFCURVE",
"1456 319 OFFCURVE",
"1456 528 CURVE SMOOTH",
"1456 790 OFFCURVE",
"1290 952 OFFCURVE",
"1115 952 CURVE SMOOTH",
"1033 952 OFFCURVE",
"956 915 OFFCURVE",
"903 859 CURVE",
"893 863 LINE",
"893 1197 LINE",
"1592 1197 LINE",
"1598 1206 LINE",
"1542 1330 LINE"
);
},
{
closed = 1;
nodes = (
"627 843 OFFCURVE",
"733 740 OFFCURVE",
"733 622 CURVE SMOOTH",
"733 538 LINE SMOOTH",
"733 414 OFFCURVE",
"612 328 OFFCURVE",
"489 328 CURVE SMOOTH",
"350 328 OFFCURVE",
"248 440 OFFCURVE",
"248 590 CURVE SMOOTH",
"248 737 OFFCURVE",
"347 843 OFFCURVE",
"488 843 CURVE SMOOTH"
);
}
);
};
layerId = "7D009F26-9523-4D0C-936A-45D9328E47A0";
name = Regular;
paths = (
{
closed = 1;
nodes = (
"-50 1330 LINE",
"-56 1321 LINE",
"0 1197 LINE",
"733 1197 LINE",
"733 856 LINE",
"723 853 LINE",
"635 951 OFFCURVE",
"515 987 OFFCURVE",
"420 987 CURVE SMOOTH",
"235 987 OFFCURVE",
"99 849 OFFCURVE",
"99 667 CURVE SMOOTH",
"99 421 OFFCURVE",
"349 219 OFFCURVE",
"552 219 CURVE SMOOTH",
"611 219 OFFCURVE",
"672 236 OFFCURVE",
"723 274 CURVE",
"733 269 LINE",
"733 19 LINE",
"884 -19 LINE",
"893 -12 LINE",
"893 496 LINE",
"893 678 OFFCURVE",
"1057 805 OFFCURVE",
"1188 805 CURVE SMOOTH",
"1277 805 OFFCURVE",
"1331 745 OFFCURVE",
"1331 634 CURVE SMOOTH",
"1331 492 OFFCURVE",
"1242 344 OFFCURVE",
"1107 273 CURVE",
"1149 222 OFFCURVE",
"1204 200 OFFCURVE",
"1248 200 CURVE SMOOTH",
"1351 200 OFFCURVE",
"1456 321 OFFCURVE",
"1456 524 CURVE SMOOTH",
"1456 779 OFFCURVE",
"1290 932 OFFCURVE",
"1117 932 CURVE SMOOTH",
"1032 932 OFFCURVE",
"956 895 OFFCURVE",
"903 839 CURVE",
"893 843 LINE",
"893 1197 LINE",
"1592 1197 LINE",
"1598 1206 LINE",
"1542 1330 LINE"
);
},
{
closed = 1;
nodes = (
"627 843 OFFCURVE",
"733 740 OFFCURVE",
"733 622 CURVE SMOOTH",
"733 568 LINE SMOOTH",
"733 444 OFFCURVE",
"614 358 OFFCURVE",
"486 358 CURVE SMOOTH",
"350 358 OFFCURVE",
"248 456 OFFCURVE",
"248 596 CURVE SMOOTH",
"248 734 OFFCURVE",
"347 843 OFFCURVE",
"489 843 CURVE SMOOTH"
);
}
);
width = 1542;
},
{
background = {
paths = (
{
closed = 1;
nodes = (
"-36 1330 LINE",
"-53 1307 LINE",
"0 1137 LINE",
"733 1137 LINE",
"733 873 LINE",
"723 868 LINE",
"631 953 OFFCURVE",
"521 987 OFFCURVE",
"426 987 CURVE SMOOTH",
"239 987 OFFCURVE",
"99 852 OFFCURVE",
"99 659 CURVE SMOOTH",
"99 390 OFFCURVE",
"372 149 OFFCURVE",
"597 149 CURVE SMOOTH",
"637 149 OFFCURVE",
"681 157 OFFCURVE",
"724 174 CURVE",
"733 168 LINE",
"733 -21 LINE",
"951 -57 LINE",
"973 -39 LINE",
"973 468 LINE SMOOTH",
"973 637 OFFCURVE",
"1098 765 OFFCURVE",
"1212 765 CURVE SMOOTH",
"1282 765 OFFCURVE",
"1331 719 OFFCURVE",
"1331 635 CURVE SMOOTH",
"1331 489 OFFCURVE",
"1240 343 OFFCURVE",
"1107 273 CURVE",
"1169 181 OFFCURVE",
"1252 140 OFFCURVE",
"1319 140 CURVE SMOOTH",
"1426 140 OFFCURVE",
"1536 247 OFFCURVE",
"1536 460 CURVE SMOOTH",
"1536 750 OFFCURVE",
"1330 946 OFFCURVE",
"1125 946 CURVE SMOOTH",
"1068 946 OFFCURVE",
"1022 930 OFFCURVE",
"982 899 CURVE",
"973 905 LINE",
"973 1137 LINE",
"1658 1137 LINE",
"1675 1160 LINE",
"1622 1330 LINE"
);
},
{
closed = 1;
nodes = (
"653 773 OFFCURVE",
"733 685 OFFCURVE",
"733 582 CURVE SMOOTH",
"733 538 LINE SMOOTH",
"733 426 OFFCURVE",
"633 348 OFFCURVE",
"528 348 CURVE SMOOTH",
"417 348 OFFCURVE",
"334 434 OFFCURVE",
"334 553 CURVE SMOOTH",
"334 676 OFFCURVE",
"422 773 OFFCURVE",
"540 773 CURVE SMOOTH"
);
}
);
};
layerId = "29AE4022-23C2-49D3-A156-B9EDF5C2AEE5";
name = Bold;
paths = (
{
closed = 1;
nodes = (
"-36 1330 LINE",
"-53 1307 LINE",
"0 1137 LINE",
"733 1137 LINE",
"733 873 LINE",
"723 868 LINE",
"631 953 OFFCURVE",
"521 987 OFFCURVE",
"427 987 CURVE SMOOTH",
"239 987 OFFCURVE",
"99 850 OFFCURVE",
"99 663 CURVE SMOOTH",
"99 403 OFFCURVE",
"366 179 OFFCURVE",
"588 179 CURVE SMOOTH",
"630 179 OFFCURVE",
"678 187 OFFCURVE",
"724 204 CURVE",
"733 198 LINE",
"733 -21 LINE",
"951 -57 LINE",
"973 -39 LINE",
"973 468 LINE SMOOTH",
"973 619 OFFCURVE",
"1096 735 OFFCURVE",
"1217 735 CURVE SMOOTH",
"1282 735 OFFCURVE",
"1331 703 OFFCURVE",
"1331 621 CURVE SMOOTH",
"1331 501 OFFCURVE",
"1241 341 OFFCURVE",
"1107 273 CURVE",
"1169 181 OFFCURVE",
"1252 140 OFFCURVE",
"1318 140 CURVE SMOOTH",
"1426 140 OFFCURVE",
"1536 248 OFFCURVE",
"1536 455 CURVE SMOOTH",
"1536 739 OFFCURVE",
"1330 926 OFFCURVE",
"1127 926 CURVE SMOOTH",
"1068 926 OFFCURVE",
"1022 910 OFFCURVE",
"982 879 CURVE",
"973 885 LINE",
"973 1137 LINE",
"1658 1137 LINE",
"1675 1160 LINE",
"1622 1330 LINE"
);
},
{
closed = 1;
nodes = (
"648 773 OFFCURVE",
"733 684 OFFCURVE",
"733 582 CURVE SMOOTH",
"733 568 LINE SMOOTH",
"733 456 OFFCURVE",
"627 378 OFFCURVE",
"520 378 CURVE SMOOTH",
"417 378 OFFCURVE",
"334 450 OFFCURVE",
"334 566 CURVE SMOOTH",
"334 681 OFFCURVE",
"417 773 OFFCURVE",
"533 773 CURVE SMOOTH"
);
}
);
width = 1622;
}
);
unicode = 0915;
},
{
color = 1;
glyphname = khadeva;
lastChange = "2014-07-17 09:08:13 +0530";
layers = (
{
background = {
paths = (
{
closed = 1;
nodes = (
"-50 1330 LINE",
"-56 1321 LINE",
"0 1197 LINE",
"313.312 1197 LINE",
"361.149 1098.18 OFFCURVE",
"383 997.456 OFFCURVE",
"383 910 CURVE SMOOTH",
"383 842.024 OFFCURVE",
"369.899 789.808 OFFCURVE",
"339.56 750.868 CURVE",
"291.92 770.244 OFFCURVE",
"247.283 779 OFFCURVE",
"210 779 CURVE SMOOTH",
"126 779 OFFCURVE",
"78 734 OFFCURVE",
"78 654 CURVE SMOOTH",
"78 406 OFFCURVE",
"545 -4 OFFCURVE",
"831 -4 CURVE SMOOTH",
"904 -4 OFFCURVE",
"946 23 OFFCURVE",
"963 86 CURVE",
"649.638 131.377 OFFCURVE",
"416.179 272.051 OFFCURVE",
"257.6 489.191 CURVE",
"454.622 543.751 OFFCURVE",
"517 686.717 OFFCURVE",
"517 836 CURVE SMOOTH",
"517 953 OFFCURVE",
"478 1074 OFFCURVE",
"426 1188 CURVE",
"432 1197 LINE",
"1198 1197 LINE",
"1198 859 LINE",
"1188 855 LINE",
"1115 941 OFFCURVE",
"1018 986 OFFCURVE",
"914 986 CURVE SMOOTH",
"751 986 OFFCURVE",
"638 875 OFFCURVE",
"638 713 CURVE SMOOTH",
"638 488 OFFCURVE",
"856 286 OFFCURVE",
"1047 286 CURVE SMOOTH",
"1095 286 OFFCURVE",
"1143 299 OFFCURVE",
"1188 327 CURVE",
"1198 322 LINE",
"1198 19 LINE",
"1349 -19 LINE",
"1358 -12 LINE",
"1358 1197 LINE",
"1616 1197 LINE",
"1622 1206 LINE",
"1566 1330 LINE"
);
},
{
closed = 1;
nodes = (
"1110 850 OFFCURVE",
"1198 748 OFFCURVE",
"1198 651 CURVE SMOOTH",
"1198 585 LINE SMOOTH",
"1198 469 OFFCURVE",
"1068 408 OFFCURVE",
"981 408 CURVE SMOOTH",
"863 408 OFFCURVE",
"778 510 OFFCURVE",
"778 639 CURVE SMOOTH",
"778 761 OFFCURVE",
"855 850 OFFCURVE",
"978 850 CURVE SMOOTH"
);
}
);
};
layerId = "7D009F26-9523-4D0C-936A-45D9328E47A0";
name = Regular;
paths = (
{
closed = 1;
nodes = (
"-50 1330 LINE",
"-56 1321 LINE",
"0 1197 LINE",
"313.312 1197 LINE",
"363 1094 OFFCURVE",
"383 994 OFFCURVE",
"383 910 CURVE SMOOTH",
"383 845 OFFCURVE",
"371 791 OFFCURVE",
"339.56 750.868 CURVE",
"295 769 OFFCURVE",
"250 779 OFFCURVE",
"210 779 CURVE SMOOTH",
"126 779 OFFCURVE",
"78 734 OFFCURVE",
"78 654 CURVE SMOOTH",
"78 406 OFFCURVE",
"545 -4 OFFCURVE",
"831 -4 CURVE SMOOTH",
"904 -4 OFFCURVE",
"946 23 OFFCURVE",
"963 86 CURVE",
"649.638 131.377 OFFCURVE",
"416.179 272.051 OFFCURVE",
"257.6 489.191 CURVE",
"455 544 OFFCURVE",
"517 687 OFFCURVE",
"517 836 CURVE SMOOTH",
"517 953 OFFCURVE",
"478 1074 OFFCURVE",
"426 1188 CURVE",
"432 1197 LINE",
"1198 1197 LINE",
"1198 859 LINE",
"1188 855 LINE",
"1115 941 OFFCURVE",
"1018 986 OFFCURVE",
"914 986 CURVE SMOOTH",
"751 986 OFFCURVE",
"638 873 OFFCURVE",
"638 717 CURVE SMOOTH",
"638 501 OFFCURVE",
"856 316 OFFCURVE",
"1046 316 CURVE SMOOTH",
"1096 316 OFFCURVE",
"1143 329 OFFCURVE",
"1188 357 CURVE",
"1198 352 LINE",
"1198 19 LINE",
"1349 -19 LINE",
"1358 -12 LINE",
"1358 1197 LINE",
"1616 1197 LINE",
"1622 1206 LINE",
"1566 1330 LINE"
);
},
{
closed = 1;
nodes = (
"1110 850 OFFCURVE",
"1198 748 OFFCURVE",
"1198 651 CURVE SMOOTH",
"1198 615 LINE SMOOTH",
"1198 520 OFFCURVE",
"1104 438 OFFCURVE",
"990 438 CURVE SMOOTH",
"880 438 OFFCURVE",
"778 514 OFFCURVE",
"778 645 CURVE SMOOTH",
"778 758 OFFCURVE",
"855 850 OFFCURVE",
"979 850 CURVE SMOOTH"
);
}
);
width = 1566;
},
{
background = {
paths = (
{
closed = 1;
nodes = (
"-36 1330 LINE",
"-53 1307 LINE",
"0 1137 LINE",
"339 1137 LINE",
"369 1058 OFFCURVE",
"383 980 OFFCURVE",
"383 910 CURVE SMOOTH",
"383 842 OFFCURVE",
"370 790 OFFCURVE",
"340 751 CURVE",
"292 770 OFFCURVE",
"247 779 OFFCURVE",
"209 779 CURVE SMOOTH",
"126 779 OFFCURVE",
"78 738 OFFCURVE",
"78 652 CURVE SMOOTH",
"78 378 OFFCURVE",
"564 -54 OFFCURVE",
"877 -54 CURVE SMOOTH",
"993 -54 OFFCURVE",
"1046 5 OFFCURVE",
"1063 96 CURVE",
"748 135 OFFCURVE",
"512 251 OFFCURVE",
"350 433 CURVE",
"537 490 OFFCURVE",
"597 630 OFFCURVE",
"597 776 CURVE SMOOTH",
"597 893 OFFCURVE",
"558 1014 OFFCURVE",
"506 1128 CURVE",
"512 1137 LINE",
"1248 1137 LINE",
"1248 887 LINE",
"1238 883 LINE",
"1171 947 OFFCURVE",
"1075 986 OFFCURVE",
"975 986 CURVE SMOOTH",
"805 986 OFFCURVE",
"688 874 OFFCURVE",
"688 700 CURVE SMOOTH",
"688 461 OFFCURVE",
"910 236 OFFCURVE",
"1127 236 CURVE SMOOTH",
"1163 236 OFFCURVE",
"1201 242 OFFCURVE",
"1239 255 CURVE",
"1248 248 LINE",
"1248 -21 LINE",
"1466 -57 LINE",
"1488 -39 LINE",
"1488 1137 LINE",
"1732 1137 LINE",
"1749 1160 LINE",
"1696 1330 LINE"
);
},
{
closed = 1;
nodes = (
"1177 784 OFFCURVE",
"1248 698 OFFCURVE",
"1248 611 CURVE SMOOTH",
"1248 604.197 LINE SMOOTH",
"1248 498 OFFCURVE",
"1167 428 OFFCURVE",
"1070 428 CURVE SMOOTH",
"956 428 OFFCURVE",
"895 502 OFFCURVE",
"895 603 CURVE SMOOTH",
"895 709 OFFCURVE",
"961 784 OFFCURVE",
"1065 784 CURVE SMOOTH"
);
}
);
};
layerId = "29AE4022-23C2-49D3-A156-B9EDF5C2AEE5";
name = Bold;
paths = (
{
closed = 1;
nodes = (
"-36 1330 LINE",
"-53 1307 LINE",
"0 1137 LINE",
"339 1137 LINE",
"369 1058 OFFCURVE",
"383 980 OFFCURVE",
"383 910 CURVE SMOOTH",
"383 842 OFFCURVE",
"370 790 OFFCURVE",
"340 751 CURVE",
"292 770 OFFCURVE",
"247 779 OFFCURVE",
"209 779 CURVE SMOOTH",
"126 779 OFFCURVE",
"78 738 OFFCURVE",
"78 652 CURVE SMOOTH",
"78 378 OFFCURVE",
"564 -54 OFFCURVE",
"877 -54 CURVE SMOOTH",
"993 -54 OFFCURVE",
"1046 5 OFFCURVE",
"1063 96 CURVE",
"748 135 OFFCURVE",
"512 251 OFFCURVE",
"350 433 CURVE",
"537 490 OFFCURVE",
"597 630 OFFCURVE",
"597 776 CURVE SMOOTH",
"597 893 OFFCURVE",
"558 1014 OFFCURVE",
"506 1128 CURVE",
"512 1137 LINE",
"1248 1137 LINE",
"1248 887 LINE",
"1238 883 LINE",
"1171 947 OFFCURVE",
"1075 986 OFFCURVE",
"975 986 CURVE SMOOTH",
"806 986 OFFCURVE",
"688 873 OFFCURVE",
"688 703 CURVE SMOOTH",
"688 469 OFFCURVE",
"910 256 OFFCURVE",
"1127 256 CURVE SMOOTH",
"1163 256 OFFCURVE",
"1201 262 OFFCURVE",
"1239 275 CURVE",
"1248 268 LINE",
"1248 -21 LINE",
"1466 -57 LINE",
"1488 -39 LINE",
"1488 1137 LINE",
"1732 1137 LINE",
"1749 1160 LINE",
"1696 1330 LINE"
);
},
{
closed = 1;
nodes = (
"1176 784 OFFCURVE",
"1248 699 OFFCURVE",
"1248 611 CURVE SMOOTH",
"1248 604 LINE SMOOTH",
"1248 511 OFFCURVE",
"1175 448 OFFCURVE",
"1076 448 CURVE SMOOTH",
"965 448 OFFCURVE",
"895 528 OFFCURVE",
"895 620 CURVE SMOOTH",
"895 709 OFFCURVE",
"961 784 OFFCURVE",
"1065 784 CURVE SMOOTH"
);
}
);
width = 1696;
}
);
unicode = 0916;
},
{
glyphname = gadeva;
lastChange = "2014-07-17 12:14:14 +0530";
layers = (
{
background = {
paths = (
{
closed = 1;
nodes = (
"-50 1330 LINE",
"-56 1321 LINE",
"0 1197 LINE",
"284 1197 LINE",
"284 636 LINE",
"169 636 LINE SMOOTH",
"113 636 OFFCURVE",
"90 613 OFFCURVE",
"90 573 CURVE SMOOTH",
"90 505 OFFCURVE",
"261 333 OFFCURVE",
"333 333 CURVE SMOOTH",
"408 333 OFFCURVE",
"439 368 OFFCURVE",
"439 514 CURVE SMOOTH",
"439 1197 LINE",
"874 1197 LINE",
"874 19 LINE",
"1025 -19 LINE",
"1034 -12 LINE",
"1034 1197 LINE",
"1291 1197 LINE",
"1297 1206 LINE",
"1241 1330 LINE"
);
}
);
};
layerId = "7D009F26-9523-4D0C-936A-45D9328E47A0";
name = Regular;
paths = (
{
closed = 1;
nodes = (
"-50 1330 LINE",
"-56 1321 LINE",
"0 1197 LINE",
"284 1197 LINE",
"284 666 LINE",
"169 666 LINE SMOOTH",
"113 666 OFFCURVE",
"90 643 OFFCURVE",
"90 603 CURVE SMOOTH",
"90 535 OFFCURVE",
"261 363 OFFCURVE",
"333 363 CURVE SMOOTH",
"408 363 OFFCURVE",
"439 398 OFFCURVE",
"439 544 CURVE SMOOTH",
"439 1197 LINE",
"874 1197 LINE",
"874 19 LINE",
"1025 -19 LINE",
"1034 -12 LINE",
"1034 1197 LINE",
"1291 1197 LINE",
"1297 1206 LINE",
"1241 1330 LINE"
);
}
);
width = 1241;
},
{
background = {
paths = (
{
closed = 0;
nodes = (
"284 646 LINE",
"169 646 LINE SMOOTH",
"99 646 OFFCURVE",
"70 619 OFFCURVE",
"70 573 CURVE SMOOTH",
"70 487 OFFCURVE",
"268 273 OFFCURVE",
"391 273 CURVE SMOOTH",
"479 273 OFFCURVE",
"519 314 OFFCURVE",
"519 484 CURVE SMOOTH"
);
}
);
};
layerId = "29AE4022-23C2-49D3-A156-B9EDF5C2AEE5";
name = Bold;
paths = (
{
closed = 1;
nodes = (
"-36 1330 LINE",
"-53 1307 LINE",
"0 1137 LINE",
"284 1137 LINE",
"284 676 LINE",
"169 676 LINE SMOOTH",
"99 676 OFFCURVE",
"70 649 OFFCURVE",
"70 603 CURVE SMOOTH",
"70 517 OFFCURVE",
"268 303 OFFCURVE",
"391 303 CURVE SMOOTH",
"479 303 OFFCURVE",
"519 344 OFFCURVE",
"519 514 CURVE SMOOTH",
"519 1137 LINE",
"874 1137 LINE",
"874 -21 LINE",
"1092 -57 LINE",
"1114 -39 LINE",
"1114 1137 LINE",
"1337 1137 LINE",
"1354 1160 LINE",
"1301 1330 LINE"
);
}
);
width = 1301;
}
);
unicode = 0917;
},
{
color = 1;
glyphname = ghadeva;
lastChange = "2014-07-18 10:53:25 +0530";
layers = (
{
background = {
paths = (
{
closed = 1;
nodes = (
"-50 1330 LINE",
"-56 1321 LINE",
"0 1197 LINE",
"127 1197 LINE",
"132 1187 LINE",
"108 1149 OFFCURVE",
"96 1105 OFFCURVE",
"96 1052 CURVE SMOOTH",
"96 926.747 OFFCURVE",
"175.021 833.717 OFFCURVE",
"320.966 750.733 CURVE",
"281.468 696.715 OFFCURVE",
"259 635.188 OFFCURVE",
"259 573 CURVE SMOOTH",
"259 381 OFFCURVE",
"442 191 OFFCURVE",
"674 191 CURVE SMOOTH",
"753 191 OFFCURVE",
"826 215 OFFCURVE",
"884 254 CURVE",
"894 249 LINE",
"894 19 LINE",
"1045 -19 LINE",
"1054 -12 LINE",
"1054 1197 LINE",
"1311 1197 LINE",
"1317 1206 LINE",
"1261 1330 LINE"
);
},
{
closed = 1;
nodes = (
"894 580 LINE SMOOTH",
"893 408 OFFCURVE",
"715 321 OFFCURVE",
"601 321 CURVE SMOOTH",
"469 321 OFFCURVE",
"391 394 OFFCURVE",
"391 512 CURVE SMOOTH",
"391 611 OFFCURVE",
"494 725 OFFCURVE",
"694 777 CURVE",
"698 788 LINE",
"586 918 LINE",
"501.139 898.895 OFFCURVE",
"427.136 858.866 OFFCURVE",
"371.093 806.858 CURVE",
"280.357 861.818 OFFCURVE",
"252 918.01 OFFCURVE",
"252 982 CURVE SMOOTH",
"252 1095 OFFCURVE",
"339 1197 OFFCURVE",
"464 1197 CURVE SMOOTH",
"894 1197 LINE"
);
}
);
};
layerId = "7D009F26-9523-4D0C-936A-45D9328E47A0";
name = Regular;
paths = (
{
closed = 1;
nodes = (
"-50 1330 LINE",
"-56 1321 LINE",
"0 1197 LINE",
"127 1197 LINE",
"132 1187 LINE",
"108 1149 OFFCURVE",
"96 1104 OFFCURVE",
"96 1054 CURVE SMOOTH",
"96 924 OFFCURVE",
"177 833 OFFCURVE",
"320.966 750.733 CURVE",
"281 697 OFFCURVE",
"259 635 OFFCURVE",
"259 573 CURVE SMOOTH",
"259 396 OFFCURVE",
"433 221 OFFCURVE",
"657 221 CURVE SMOOTH",
"740 221 OFFCURVE",
"820 245 OFFCURVE",
"884 284 CURVE",
"894 279 LINE",
"894 19 LINE",
"1045 -19 LINE",
"1054 -12 LINE",
"1054 1197 LINE",
"1311 1197 LINE",
"1317 1206 LINE",
"1261 1330 LINE"
);
},
{
closed = 1;
nodes = (
"894 610 LINE SMOOTH",
"892 438 OFFCURVE",
"707 351 OFFCURVE",
"576 351 CURVE SMOOTH",
"461 351 OFFCURVE",
"391 417 OFFCURVE",
"391 507 CURVE SMOOTH",
"391 617 OFFCURVE",
"497 725 OFFCURVE",
"694 777 CURVE",
"698 788 LINE",
"586 918 LINE",
"501.139 898.895 OFFCURVE",
"427.136 858.866 OFFCURVE",
"371.093 806.858 CURVE",
"282 861 OFFCURVE",
"252 916 OFFCURVE",
"252 982 CURVE SMOOTH",
"252 1095 OFFCURVE",
"339 1197 OFFCURVE",
"464 1197 CURVE SMOOTH",
"894 1197 LINE"
);
}
);
width = 1261;
},
{
background = {
paths = (
{
closed = 1;
nodes = (
"-36 1330 LINE",
"-53 1307 LINE",
"0 1137 LINE",
"100 1137 LINE",
"106 1128 LINE",
"99 1107 OFFCURVE",
"96 1086 OFFCURVE",
"96 1062 CURVE SMOOTH",
"96 924.211 OFFCURVE",
"174.802 814.317 OFFCURVE",
"304.454 725.912 CURVE",
"275.099 676.56 OFFCURVE",
"259 621.193 OFFCURVE",
"259 563 CURVE SMOOTH",
"259 359 OFFCURVE",
"458 141 OFFCURVE",
"718 141 CURVE SMOOTH",
"777 141 OFFCURVE",
"834 152 OFFCURVE",
"885 172 CURVE",
"894 166 LINE",
"894 -21 LINE",
"1112 -57 LINE",
"1134 -39 LINE",
"1134 1137 LINE",
"1357 1137 LINE",
"1374 1160 LINE",
"1321 1330 LINE"
);
},
{
closed = 1;
nodes = (
"894 590 LINE SMOOTH",
"892 423 OFFCURVE",
"722 341 OFFCURVE",
"606 341 CURVE SMOOTH",
"517 341 OFFCURVE",
"461 390 OFFCURVE",
"461 472 CURVE SMOOTH",
"461 561 OFFCURVE",
"561 663 OFFCURVE",
"757 713 CURVE",
"765 740 LINE",
"586 918 LINE",
"509.44 900.032 OFFCURVE",
"442.798 867.264 OFFCURVE",
"390.007 824.106 CURVE",
"348.737 864.015 OFFCURVE",
"332 905.812 OFFCURVE",
"332 950 CURVE SMOOTH",
"332 1047 OFFCURVE",
"413 1137 OFFCURVE",
"544 1137 CURVE SMOOTH",
"894 1137 LINE"
);
}
);
};
layerId = "29AE4022-23C2-49D3-A156-B9EDF5C2AEE5";
name = Bold;
paths = (
{
closed = 1;
nodes = (
"-36 1330 LINE",
"-53 1307 LINE",
"0 1137 LINE",
"100 1137 LINE",
"106 1128 LINE",
"99 1107 OFFCURVE",
"96 1087 OFFCURVE",
"96 1061 CURVE SMOOTH",
"96 925 OFFCURVE",
"175 814 OFFCURVE",
"304.454 725.912 CURVE",
"274 675 OFFCURVE",
"259 618 OFFCURVE",
"259 564 CURVE SMOOTH",
"259 374 OFFCURVE",
"447 171 OFFCURVE",
"703 171 CURVE SMOOTH",
"763 171 OFFCURVE",
"828 182 OFFCURVE",
"885 202 CURVE",
"894 196 LINE",
"894 -21 LINE",
"1112 -57 LINE",
"1134 -39 LINE",
"1134 1137 LINE",
"1357 1137 LINE",
"1374 1160 LINE",
"1321 1330 LINE"
);
},
{
closed = 1;
nodes = (
"894 620 LINE SMOOTH",
"889 452 OFFCURVE",
"734 371 OFFCURVE",
"609 371 CURVE SMOOTH",
"524 371 OFFCURVE",
"461 409 OFFCURVE",
"461 480 CURVE SMOOTH",
"461 568 OFFCURVE",
"559 662 OFFCURVE",
"757 713 CURVE",
"765 740 LINE",
"586 918 LINE",
"509.44 900.032 OFFCURVE",
"442.798 867.264 OFFCURVE",
"390.007 824.106 CURVE",
"350 863 OFFCURVE",
"332 904 OFFCURVE",
"332 950 CURVE SMOOTH",
"332 1047 OFFCURVE",
"413 1137 OFFCURVE",
"544 1137 CURVE SMOOTH",
"894 1137 LINE"
);
}
);
width = 1321;
}
);
unicode = 0918;
},
{
color = 1;
glyphname = ngadeva;
lastChange = "2014-07-18 07:12:37 +0530";
layers = (
{
background = {
paths = (
{
closed = 1;
nodes = (
"-50 1330 LINE",
"-56 1321 LINE",
"0 1197 LINE",
"688 1197 LINE",
"688 1054 LINE SMOOTH",
"688 1049 OFFCURVE",
"685 1046 OFFCURVE",
"680 1046 CURVE SMOOTH",
"377 1046 LINE SMOOTH",
"245 1046 OFFCURVE",
"184 982 OFFCURVE",
"184 892 CURVE SMOOTH",
"184 741 OFFCURVE",
"358 542 OFFCURVE",
"526 542 CURVE SMOOTH",
"575 542 OFFCURVE",
"692 559 OFFCURVE",
"739 559 CURVE SMOOTH",
"818 559 OFFCURVE",
"845 510 OFFCURVE",
"845 449 CURVE SMOOTH",
"845 319 OFFCURVE",
"723 225 OFFCURVE",
"586 225 CURVE SMOOTH",
"416 225 OFFCURVE",
"250 355 OFFCURVE",
"133 616 CURVE",
"102 600 OFFCURVE",
"89 574 OFFCURVE",
"91 535 CURVE SMOOTH",
"97 402 OFFCURVE",
"316 69 OFFCURVE",
"644 69 CURVE SMOOTH",
"825 69 OFFCURVE",
"950 193 OFFCURVE",
"950 372 CURVE SMOOTH",
"950 562 OFFCURVE",
"810 721 OFFCURVE",
"666 721 CURVE SMOOTH",
"614 721 OFFCURVE",
"502 700 OFFCURVE",
"444 700 CURVE SMOOTH",
"360 700 OFFCURVE",
"316 743 OFFCURVE",
"316 807 CURVE SMOOTH",
"316 865 OFFCURVE",
"352 905 OFFCURVE",
"459 905 CURVE SMOOTH",
"834 905 LINE",
"842 913 LINE",
"842 1197 LINE",
"1242 1197 LINE",
"1248 1206 LINE",
"1192 1330 LINE"
);
},
{
closed = 1;
nodes = (
"954 861 OFFCURVE",
"911 818 OFFCURVE",
"911 766 CURVE SMOOTH",
"911 713 OFFCURVE",
"954 670 OFFCURVE",
"1007 670 CURVE SMOOTH",
"1059 670 OFFCURVE",
"1102 713 OFFCURVE",
"1102 766 CURVE SMOOTH",
"1102 818 OFFCURVE",
"1059 861 OFFCURVE",
"1007 861 CURVE SMOOTH"
);
}
);
};
layerId = "7D009F26-9523-4D0C-936A-45D9328E47A0";
name = Regular;
paths = (
{
closed = 1;
nodes = (
"-50 1330 LINE",
"-56 1321 LINE",
"0 1197 LINE",
"688 1197 LINE",
"688 1034 LINE SMOOTH",
"688 1029 OFFCURVE",
"685 1026 OFFCURVE",
"680 1026 CURVE SMOOTH",
"377 1026 LINE SMOOTH",
"245 1026 OFFCURVE",
"184 962 OFFCURVE",
"184 872 CURVE SMOOTH",
"184 721 OFFCURVE",
"358 522 OFFCURVE",
"526 522 CURVE SMOOTH",
"575 522 OFFCURVE",
"693 539 OFFCURVE",
"739 539 CURVE SMOOTH",
"818 539 OFFCURVE",
"845 488 OFFCURVE",
"845 435 CURVE SMOOTH",
"845 325 OFFCURVE",
"728 255 OFFCURVE",
"596 255 CURVE SMOOTH",
"424 255 OFFCURVE",
"254 374 OFFCURVE",
"133 616 CURVE",
"103 601 OFFCURVE",
"88 572 OFFCURVE",
"91 535 CURVE SMOOTH",
"101 411 OFFCURVE",
"320 99 OFFCURVE",
"648 99 CURVE SMOOTH",
"837 99 OFFCURVE",
"950 202 OFFCURVE",
"950 361 CURVE SMOOTH",
"950 537 OFFCURVE",
"810 701 OFFCURVE",
"666 701 CURVE SMOOTH",
"614 701 OFFCURVE",
"502 680 OFFCURVE",
"444 680 CURVE SMOOTH",
"360 680 OFFCURVE",
"316 723 OFFCURVE",
"316 787 CURVE SMOOTH",
"316 845 OFFCURVE",
"352 885 OFFCURVE",
"459 885 CURVE SMOOTH",
"834 885 LINE",
"842 893 LINE",
"842 1197 LINE",
"1242 1197 LINE",
"1248 1206 LINE",
"1192 1330 LINE"
);
},
{
closed = 1;
nodes = (
"954 861 OFFCURVE",
"911 818 OFFCURVE",
"911 766 CURVE SMOOTH",
"911 713 OFFCURVE",
"954 670 OFFCURVE",
"1007 670 CURVE SMOOTH",
"1059 670 OFFCURVE",
"1102 713 OFFCURVE",
"1102 766 CURVE SMOOTH",
"1102 818 OFFCURVE",
"1059 861 OFFCURVE",
"1007 861 CURVE SMOOTH"
);
}
);
width = 1192;
},
{
background = {
paths = (
{
closed = 1;
nodes = (
"-36 1330 LINE",
"-53 1307 LINE",
"0 1137 LINE",
"688 1137 LINE",
"688 1056 LINE SMOOTH",
"688 1043 OFFCURVE",
"681 1036 OFFCURVE",
"668 1036 CURVE SMOOTH",
"357 1036 LINE SMOOTH",
"225 1036 OFFCURVE",
"164 977 OFFCURVE",
"164 891 CURVE SMOOTH",
"164 719 OFFCURVE",
"381 482 OFFCURVE",
"581 482 CURVE SMOOTH",
"635 482 OFFCURVE",
"739 499 OFFCURVE",
"773 499 CURVE SMOOTH",
"818 499 OFFCURVE",
"830 470 OFFCURVE",
"830 432 CURVE SMOOTH",
"830 316 OFFCURVE",
"722 240 OFFCURVE",
"596 240 CURVE SMOOTH",
"426 240 OFFCURVE",
"260 380 OFFCURVE",
"143 636 CURVE",
"95 617 OFFCURVE",
"68 588 OFFCURVE",
"71 535 CURVE SMOOTH",
"79 390 OFFCURVE",
"321 9 OFFCURVE",
"684 9 CURVE SMOOTH",
"883 9 OFFCURVE",
"1020 127 OFFCURVE",
"1020 322 CURVE SMOOTH",
"1020 531 OFFCURVE",
"863 726 OFFCURVE",
"691 726 CURVE SMOOTH",
"647 726 OFFCURVE",
"530 713 OFFCURVE",
"477 713 CURVE SMOOTH",
"402 713 OFFCURVE",
"376 739 OFFCURVE",
"376 783 CURVE SMOOTH",
"376 833 OFFCURVE",
"409 865 OFFCURVE",
"519 865 CURVE SMOOTH",
"902 865 LINE",
"922 885 LINE",
"922 1137 LINE",
"1308 1137 LINE",
"1325 1160 LINE",
"1272 1330 LINE"
);
},
{
closed = 1;
nodes = (
"1002 853 OFFCURVE",
"945 796 OFFCURVE",
"945 727 CURVE SMOOTH",
"945 658 OFFCURVE",
"1002 601 OFFCURVE",
"1072 601 CURVE SMOOTH",
"1141 601 OFFCURVE",
"1197 658 OFFCURVE",
"1197 727 CURVE SMOOTH",
"1197 796 OFFCURVE",
"1141 853 OFFCURVE",
"1072 853 CURVE SMOOTH"
);
}
);
};
layerId = "29AE4022-23C2-49D3-A156-B9EDF5C2AEE5";
name = Bold;
paths = (
{
closed = 1;
nodes = (
"-36 1330 LINE",
"-53 1307 LINE",
"0 1137 LINE",
"688 1137 LINE",
"688 1046 LINE SMOOTH",
"688 1033 OFFCURVE",
"681 1026 OFFCURVE",
"668 1026 CURVE SMOOTH",
"357 1026 LINE SMOOTH",
"225 1026 OFFCURVE",
"164 968 OFFCURVE",
"164 879 CURVE SMOOTH",
"164 710 OFFCURVE",
"381 472 OFFCURVE",
"581 472 CURVE SMOOTH",
"635 472 OFFCURVE",
"739 489 OFFCURVE",
"773 489 CURVE SMOOTH",
"817 489 OFFCURVE",
"830 460 OFFCURVE",
"830 425 CURVE SMOOTH",
"830 330 OFFCURVE",
"735 270 OFFCURVE",
"615 270 CURVE SMOOTH",
"440 270 OFFCURVE",
"266 397 OFFCURVE",
"143 636 CURVE",
"99 619 OFFCURVE",
"67 589 OFFCURVE",
"71 535 CURVE SMOOTH",
"81 398 OFFCURVE",
"324 39 OFFCURVE",
"694 39 CURVE SMOOTH",
"886 39 OFFCURVE",
"1020 136 OFFCURVE",
"1020 319 CURVE SMOOTH",
"1020 517 OFFCURVE",
"863 716 OFFCURVE",
"691 716 CURVE SMOOTH",
"647 716 OFFCURVE",
"530 703 OFFCURVE",
"477 703 CURVE SMOOTH",
"402 703 OFFCURVE",
"376 729 OFFCURVE",
"376 773 CURVE SMOOTH",
"376 823 OFFCURVE",
"409 855 OFFCURVE",
"519 855 CURVE SMOOTH",
"902 855 LINE",
"922 875 LINE",
"922 1137 LINE",
"1308 1137 LINE",
"1325 1160 LINE",
"1272 1330 LINE"
);
},
{
closed = 1;
nodes = (
"1002 853 OFFCURVE",
"945 796 OFFCURVE",
"945 727 CURVE SMOOTH",
"945 658 OFFCURVE",
"1002 601 OFFCURVE",
"1072 601 CURVE SMOOTH",
"1141 601 OFFCURVE",
"1197 658 OFFCURVE",
"1197 727 CURVE SMOOTH",
"1197 796 OFFCURVE",
"1141 853 OFFCURVE",
"1072 853 CURVE SMOOTH"
);
}
);
width = 1272;
}
);
unicode = 0919;
},
{
color = 1;
glyphname = cadeva;
lastChange = "2014-07-18 06:30:19 +0530";
layers = (
{
background = {
paths = (
{
closed = 1;
nodes = (
"-50 1330 LINE",
"-56 1321 LINE",
"0 1197 LINE",
"954 1197 LINE",
"954 590 LINE SMOOTH",
"954 438 OFFCURVE",
"804 303 OFFCURVE",
"635 303 CURVE SMOOTH",
"497 303 OFFCURVE",
"411 397 OFFCURVE",
"411 510 CURVE SMOOTH",
"411 652 OFFCURVE",
"540 780 OFFCURVE",
"741 780 CURVE SMOOTH",
"796 780 LINE",
"802 789 LINE",
"746 913 LINE",
"68 913 LINE",
"62 904 LINE",
"118 780 LINE",
"345 780 LINE",
"349 770 LINE",
"305 715 OFFCURVE",
"279 648 OFFCURVE",
"279 575 CURVE SMOOTH",
"279 381 OFFCURVE",
"463 181 OFFCURVE",
"699 181 CURVE SMOOTH",
"784 181 OFFCURVE",
"873 207 OFFCURVE",
"944 256 CURVE",
"954 251 LINE",
"954 19 LINE",
"1105 -19 LINE",
"1114 -12 LINE",
"1114 1197 LINE",
"1371 1197 LINE",
"1377 1206 LINE",
"1321 1330 LINE"
);
}
);
};
layerId = "7D009F26-9523-4D0C-936A-45D9328E47A0";
name = Regular;
paths = (
{
closed = 1;
nodes = (
"-50 1330 LINE",
"-56 1321 LINE",
"0 1197 LINE",
"954 1197 LINE",
"954 660 LINE SMOOTH",
"954 508 OFFCURVE",
"805 373 OFFCURVE",
"632 373 CURVE SMOOTH",
"497 373 OFFCURVE",
"411 456 OFFCURVE",
"411 565 CURVE SMOOTH",
"411 699 OFFCURVE",
"540 830 OFFCURVE",
"741 830 CURVE SMOOTH",
"796 830 LINE",
"802 839 LINE",
"746 963 LINE",
"68 963 LINE",
"62 954 LINE",
"118 830 LINE",
"345 830 LINE",
"349 820 LINE",
"305 765 OFFCURVE",
"279 697 OFFCURVE",
"279 627 CURVE SMOOTH",
"279 441 OFFCURVE",
"463 251 OFFCURVE",
"698 251 CURVE SMOOTH",
"785 251 OFFCURVE",
"873 277 OFFCURVE",
"944 326 CURVE",
"954 321 LINE",
"954 19 LINE",
"1105 -19 LINE",
"1114 -12 LINE",
"1114 1197 LINE",
"1371 1197 LINE",
"1377 1206 LINE",
"1321 1330 LINE"
);
}
);
width = 1321;
},
{
background = {
paths = (
{
closed = 1;
nodes = (
"-36 1330 LINE",
"-53 1307 LINE",
"0 1137 LINE",
"954 1137 LINE",
"954 590 LINE SMOOTH",
"954 453 OFFCURVE",
"806 333 OFFCURVE",
"652 333 CURVE SMOOTH",
"546 333 OFFCURVE",
"491 400 OFFCURVE",
"491 480 CURVE SMOOTH",
"491 607 OFFCURVE",
"612 720 OFFCURVE",
"801 720 CURVE SMOOTH",
"832 720 LINE",
"849 743 LINE",
"796 913 LINE",
"82 913 LINE",
"65 890 LINE",
"118 720 LINE",
"306 720 LINE",
"311 711 LINE",
"291 668 OFFCURVE",
"279 621 OFFCURVE",
"279 570 CURVE SMOOTH",
"279 361 OFFCURVE",
"476 141 OFFCURVE",
"749 141 CURVE SMOOTH",
"809 141 OFFCURVE",
"879 152 OFFCURVE",
"945 174 CURVE",
"954 167 LINE",
"954 -21 LINE",
"1172 -57 LINE",
"1194 -39 LINE",
"1194 1137 LINE",
"1417 1137 LINE",
"1434 1160 LINE",
"1381 1330 LINE"
);
}
);
};
layerId = "29AE4022-23C2-49D3-A156-B9EDF5C2AEE5";
name = Bold;
paths = (
{
closed = 1;
nodes = (
"-36 1330 LINE",
"-53 1307 LINE",
"0 1137 LINE",
"954 1137 LINE",
"954 650 LINE SMOOTH",
"954 513 OFFCURVE",
"807 393 OFFCURVE",
"651 393 CURVE SMOOTH",
"549 393 OFFCURVE",
"491 445 OFFCURVE",
"491 526 CURVE SMOOTH",
"491 644 OFFCURVE",
"612 760 OFFCURVE",
"801 760 CURVE SMOOTH",
"832 760 LINE",
"849 783 LINE",
"796 953 LINE",
"82 953 LINE",
"65 930 LINE",
"118 760 LINE",
"306 760 LINE",
"311 751 LINE",
"291 708 OFFCURVE",
"279 661 OFFCURVE",
"279 612 CURVE SMOOTH",
"279 411 OFFCURVE",
"476 201 OFFCURVE",
"748 201 CURVE SMOOTH",
"810 201 OFFCURVE",
"879 212 OFFCURVE",
"945 234 CURVE",
"954 227 LINE",
"954 -21 LINE",
"1172 -57 LINE",
"1194 -39 LINE",
"1194 1137 LINE",
"1417 1137 LINE",
"1434 1160 LINE",
"1381 1330 LINE"
);
}
);
width = 1381;
}
);
unicode = 091A;
},
{
glyphname = chadeva;
lastChange = "2014-07-16 18:34:19 +0530";
layers = (
{
layerId = "7D009F26-9523-4D0C-936A-45D9328E47A0";
name = Regular;
paths = (
{
closed = 1;
nodes = (
"1421 1197 LINE",
"1427 1206 LINE",
"1371 1330 LINE",
"-50 1330 LINE",
"-56 1321 LINE",
"0 1197 LINE",
"922 1197 LINE",
"922 1054.77 LINE",
"838.611 1033.84 OFFCURVE",
"775 961.345 OFFCURVE",
"775 856 CURVE SMOOTH",
"775 732.864 OFFCURVE",
"862.979 593.185 OFFCURVE",
"1031.11 465.002 CURVE",
"934.853 312.899 OFFCURVE",
"778.998 197 OFFCURVE",
"612 197 CURVE SMOOTH",
"493 197 OFFCURVE",
"401 256 OFFCURVE",
"401 360 CURVE SMOOTH",
"401 460 OFFCURVE",
"487 561 OFFCURVE",
"693 589 CURVE",
"697 599 LINE",
"586 728 LINE",
"506 720.461 OFFCURVE",
"437.403 691.869 OFFCURVE",
"384.691 650.528 CURVE",
"304.786 686.985 OFFCURVE",
"272 730.747 OFFCURVE",
"272 785 CURVE SMOOTH",
"272 878 OFFCURVE",
"368 947 OFFCURVE",
"564 947 CURVE",
"517 1039 OFFCURVE",
"437 1075 OFFCURVE",
"355 1075 CURVE SMOOTH",
"236 1075 OFFCURVE",
"116 999 OFFCURVE",
"116 860 CURVE SMOOTH",
"116 749.272 OFFCURVE",
"192.625 649.596 OFFCURVE",
"326.269 591.327 CURVE",
"289.417 542.599 OFFCURVE",
"269 485.367 OFFCURVE",
"269 427 CURVE SMOOTH",
"269 252 OFFCURVE",
"456 61 OFFCURVE",
"689 61 CURVE SMOOTH",
"994 61 OFFCURVE",
"1254 386 OFFCURVE",
"1254 692 CURVE SMOOTH",
"1254 865.631 OFFCURVE",
"1170.4 995.89 OFFCURVE",
"1062 1042.41 CURVE",
"1062 1197 LINE"
);
},
{
closed = 1;
nodes = (
"1130 700.434 OFFCURVE",
"1108.59 616.359 OFFCURVE",
"1071.34 537.922 CURVE",
"967.619 624.898 OFFCURVE",
"915 714.971 OFFCURVE",
"915 793 CURVE SMOOTH",
"915 876 OFFCURVE",
"975 932 OFFCURVE",
"1037 932 CURVE SMOOTH",
"1081 932 OFFCURVE",
"1130 903 OFFCURVE",
"1130 781 CURVE SMOOTH"
);
}
);
width = 1371;
},
{
layerId = "29AE4022-23C2-49D3-A156-B9EDF5C2AEE5";
name = Bold;
paths = (
{
closed = 1;
nodes = (
"1467 1137 LINE",
"1484 1160 LINE",
"1431 1330 LINE",
"-36 1330 LINE",
"-53 1307 LINE",
"0 1137 LINE",
"922 1137 LINE",
"922 1045.27 LINE",
"840.16 1026.24 OFFCURVE",
"775 959.729 OFFCURVE",
"775 844 CURVE SMOOTH",
"775 714.893 OFFCURVE",
"849.228 590.344 OFFCURVE",
"1020.8 452.489 CURVE",
"924.958 309.448 OFFCURVE",
"777.549 198 OFFCURVE",
"626 198 CURVE SMOOTH",
"522 198 OFFCURVE",
"471 251 OFFCURVE",
"471 318 CURVE SMOOTH",
"471 404 OFFCURVE",
"553 506 OFFCURVE",
"735 536 CURVE",
"744 562 LINE",
"586 728 LINE",
"507.173 720.571 OFFCURVE",
"439.418 695.429 OFFCURVE",
"387.021 657.071 CURVE",
"349.513 680.721 OFFCURVE",
"332 709.208 OFFCURVE",
"332 744 CURVE SMOOTH",
"332 827 OFFCURVE",
"428 897 OFFCURVE",
"624 897 CURVE",
"578 980 OFFCURVE",
"477 1065 OFFCURVE",
"350 1065 CURVE SMOOTH",
"230 1065 OFFCURVE",
"117 988 OFFCURVE",
"117 864 CURVE SMOOTH",
"117 751.357 OFFCURVE",
"201.881 647.863 OFFCURVE",
"313.302 579.608 CURVE",
"284.658 535.245 OFFCURVE",
"269 483.108 OFFCURVE",
"269 426 CURVE SMOOTH",
"269 207 OFFCURVE",
"502 11 OFFCURVE",
"745 11 CURVE SMOOTH",
"1065 11 OFFCURVE",
"1314 351 OFFCURVE",
"1314 635 CURVE SMOOTH",
"1314 785.548 OFFCURVE",
"1240.31 917.244 OFFCURVE",
"1142 990.266 CURVE",
"1142 1137 LINE"
);
},
{
closed = 1;
nodes = (
"975 816 OFFCURVE",
"1016 872 OFFCURVE",
"1070 872 CURVE SMOOTH",
"1119 872 OFFCURVE",
"1130 826 OFFCURVE",
"1130 773 CURVE SMOOTH",
"1130 700.629 OFFCURVE",
"1109.71 622.402 OFFCURVE",
"1074.67 547.651 CURVE",
"1001.6 618.705 OFFCURVE",
"975 681.729 OFFCURVE",
"975 742 CURVE SMOOTH"
);
}
);
width = 1431;
}
);
unicode = 091B;
},
{
color = 1;
glyphname = jadeva;
lastChange = "2014-07-17 09:12:47 +0530";
layers = (
{
background = {
paths = (
{
closed = 1;
nodes = (
"-50 1330 LINE",
"-56 1321 LINE",
"0 1197 LINE",
"1054 1197 LINE",
"1054 893 LINE",
"444 893 LINE",
"438 884 LINE",
"494 760 LINE",
"637 760 OFFCURVE",
"714 659 OFFCURVE",
"714 545 CURVE SMOOTH",
"714 427 OFFCURVE",
"625 359 OFFCURVE",
"519 359 CURVE SMOOTH",
"356 359 OFFCURVE",
"233 521 OFFCURVE",
"171 893 CURVE",
"116 887 OFFCURVE",
"99 858 OFFCURVE",
"100 796 CURVE SMOOTH",
"103 636 OFFCURVE",
"233 189 OFFCURVE",
"570 189 CURVE SMOOTH",
"729 189 OFFCURVE",
"852 302 OFFCURVE",
"852 471 CURVE SMOOTH",
"852 577 OFFCURVE",
"809 673 OFFCURVE",
"736 750 CURVE",
"741 760 LINE",
"1054 760 LINE",
"1054 19 LINE",
"1205 -19 LINE",
"1214 -12 LINE",
"1214 1197 LINE",
"1471 1197 LINE",
"1477 1206 LINE",
"1421 1330 LINE"
);
}
);
};
layerId = "7D009F26-9523-4D0C-936A-45D9328E47A0";
name = Regular;
paths = (
{
closed = 1;
nodes = (
"-50 1330 LINE",
"-56 1321 LINE",
"0 1197 LINE",
"1054 1197 LINE",
"1054 923 LINE",
"444 923 LINE",
"438 914 LINE",
"494 790 LINE",
"631 790 OFFCURVE",
"704 688 OFFCURVE",
"704 578 CURVE SMOOTH",
"704 456 OFFCURVE",
"615 389 OFFCURVE",
"511 389 CURVE SMOOTH",
"350 389 OFFCURVE",
"231 551 OFFCURVE",
"171 923 CURVE",
"116 917 OFFCURVE",
"99 888 OFFCURVE",
"100 826 CURVE SMOOTH",
"103 665 OFFCURVE",
"232 219 OFFCURVE",
"557 219 CURVE SMOOTH",
"719 219 OFFCURVE",
"842 329 OFFCURVE",
"842 505 CURVE SMOOTH",
"842 600 OFFCURVE",
"806 700 OFFCURVE",
"736 780 CURVE",
"741 790 LINE",
"1054 790 LINE",
"1054 19 LINE",
"1205 -19 LINE",
"1214 -12 LINE",
"1214 1197 LINE",
"1471 1197 LINE",
"1477 1206 LINE",
"1421 1330 LINE"
);
}
);
width = 1421;
},
{
background = {
paths = (
{
closed = 1;
nodes = (
"-36 1330 LINE",
"-53 1307 LINE",
"0 1137 LINE",
"1054 1137 LINE",
"1054 893 LINE",
"458 893 LINE",
"441 870 LINE",
"494 700 LINE",
"629 700 OFFCURVE",
"698 619 OFFCURVE",
"698 525 CURVE SMOOTH",
"698 425 OFFCURVE",
"621 369 OFFCURVE",
"531 369 CURVE SMOOTH",
"381 369 OFFCURVE",
"269 525 OFFCURVE",
"211 913 CURVE",
"113 904 OFFCURVE",
"89 861 OFFCURVE",
"90 781 CURVE SMOOTH",
"93 598 OFFCURVE",
"245 119 OFFCURVE",
"610 119 CURVE SMOOTH",
"777 119 OFFCURVE",
"912 236 OFFCURVE",
"912 411 CURVE SMOOTH",
"912 513 OFFCURVE",
"873 609 OFFCURVE",
"806 690 CURVE",
"811 700 LINE",
"1054 700 LINE",
"1054 -21 LINE",
"1272 -57 LINE",
"1294 -39 LINE",
"1294 1137 LINE",
"1517 1137 LINE",
"1534 1160 LINE",
"1481 1330 LINE"
);
}
);
};
layerId = "29AE4022-23C2-49D3-A156-B9EDF5C2AEE5";
name = Bold;
paths = (
{
closed = 1;
nodes = (
"-36 1330 LINE",
"-53 1307 LINE",
"0 1137 LINE",
"1054 1137 LINE",
"1054 923 LINE",
"458 923 LINE",
"441 900 LINE",
"494 730 LINE",
"622 730 OFFCURVE",
"688 649 OFFCURVE",
"688 556 CURVE SMOOTH",
"688 455 OFFCURVE",
"611 399 OFFCURVE",
"523 399 CURVE SMOOTH",
"374 399 OFFCURVE",
"267 557 OFFCURVE",
"211 943 CURVE",
"118 935 OFFCURVE",
"88 894 OFFCURVE",
"90 811 CURVE SMOOTH",
"94 625 OFFCURVE",
"245 149 OFFCURVE",
"596 149 CURVE SMOOTH",
"767 149 OFFCURVE",
"902 262 OFFCURVE",
"902 446 CURVE SMOOTH",
"902 539 OFFCURVE",
"867 640 OFFCURVE",
"806 720 CURVE",
"811 730 LINE",
"1054 730 LINE",
"1054 -21 LINE",
"1272 -57 LINE",
"1294 -39 LINE",
"1294 1137 LINE",
"1517 1137 LINE",
"1534 1160 LINE",
"1481 1330 LINE"
);
}
);
width = 1481;
}
);
unicode = 091C;
},
{
color = 1;
glyphname = jhadeva;
lastChange = "2014-07-18 07:13:06 +0530";
layers = (
{
background = {
paths = (
{
closed = 1;
nodes = (
"-50 1330 LINE",
"-56 1321 LINE",
"0 1197 LINE",
"618 1197 LINE",
"618 1054 LINE SMOOTH",
"618 1049 OFFCURVE",
"615 1046 OFFCURVE",
"610 1046 CURVE SMOOTH",
"307 1046 LINE SMOOTH",
"175 1046 OFFCURVE",
"114 981 OFFCURVE",
"114 897 CURVE SMOOTH",
"114 760 OFFCURVE",
"274 552 OFFCURVE",
"457 552 CURVE SMOOTH",
"516 552 OFFCURVE",
"667 574 OFFCURVE",
"713 574 CURVE SMOOTH",
"765 574 OFFCURVE",
"795 547 OFFCURVE",
"795 498 CURVE SMOOTH",
"795 395 OFFCURVE",
"662 290 OFFCURVE",
"426 290 CURVE",
"419.989 290.422 LINE",
"380.268 376.129 OFFCURVE",
"334.085 427 OFFCURVE",
"266 427 CURVE SMOOTH",
"214 427 OFFCURVE",
"155 397 OFFCURVE",
"155 320 CURVE SMOOTH",
"155 226.272 OFFCURVE",
"250.415 135.078 OFFCURVE",
"425.725 128.662 CURVE",
"493.725 -81.137 OFFCURVE",
"601.41 -163 OFFCURVE",
"700.999 -163 CURVE SMOOTH",
"768.999 -163 OFFCURVE",
"823.999 -125 OFFCURVE",
"823.999 -62 CURVE SMOOTH",
"823.999 -40 OFFCURVE",
"816.999 -15 OFFCURVE",
"801.999 13 CURVE",
"771.999 3 OFFCURVE",
"745.999 -3 OFFCURVE",
"703.999 -3 CURVE SMOOTH",
"608.937 -3 OFFCURVE",
"548.459 28.367 OFFCURVE",
"493.713 129.327 CURVE",
"723.362 136.962 OFFCURVE",
"885.999 277.444 OFFCURVE",
"885.999 434 CURVE SMOOTH",
"886 473 OFFCURVE",
"876 518 OFFCURVE",
"858 560 CURVE",
"865 568 LINE",
"909 552 OFFCURVE",
"954 543 OFFCURVE",
"996.999 543 CURVE SMOOTH",
"1043.96 543 OFFCURVE",
"1089.65 553.455 OFFCURVE",
"1132 575.909 CURVE",
"1132 19 LINE",
"1283 -19 LINE",
"1292 -12 LINE",
"1292 1197 LINE",
"1550 1197 LINE",
"1556 1206 LINE",
"1500 1330 LINE"
);
},
{
closed = 1;
nodes = (
"1132 877 LINE SMOOTH",
"1132 740 OFFCURVE",
"1034 666 OFFCURVE",
"906.999 666 CURVE SMOOTH",
"858.418 666 OFFCURVE",
"805.228 676.948 OFFCURVE",
"751.802 699.718 CURVE SMOOTH",
"716.623 725.224 OFFCURVE",
"675.59 741 OFFCURVE",
"629.999 741 CURVE SMOOTH",
"565.999 741 OFFCURVE",
"429.999 710 OFFCURVE",
"367.999 710 CURVE SMOOTH",
"298.999 710 OFFCURVE",
"255.999 749 OFFCURVE",
"255.999 810 CURVE SMOOTH",
"255.999 865 OFFCURVE",
"290.999 905 OFFCURVE",
"388.999 905 CURVE SMOOTH",
"764 905 LINE",
"772 913 LINE",
"771.999 1197 LINE",
"1132 1197 LINE"
);
}
);
};
layerId = "7D009F26-9523-4D0C-936A-45D9328E47A0";
name = Regular;
paths = (
{
closed = 1;
nodes = (
"-50 1330 LINE",
"-56 1321 LINE",
"0 1197 LINE",
"618 1197 LINE",
"618 1034 LINE SMOOTH",
"618 1029 OFFCURVE",
"615 1026 OFFCURVE",
"610 1026 CURVE SMOOTH",
"307 1026 LINE SMOOTH",
"175 1026 OFFCURVE",
"114 961 OFFCURVE",
"114 877 CURVE SMOOTH",
"114 740 OFFCURVE",
"274 532 OFFCURVE",
"457 532 CURVE SMOOTH",
"516 532 OFFCURVE",
"667 554 OFFCURVE",
"713 554 CURVE SMOOTH",
"765 554 OFFCURVE",
"795 525 OFFCURVE",
"795 482 CURVE SMOOTH",
"795 393 OFFCURVE",
"662 310 OFFCURVE",
"426 310 CURVE",
"420 310 LINE",
"380 396 OFFCURVE",
"334 447 OFFCURVE",
"266 447 CURVE SMOOTH",
"215 447 OFFCURVE",
"155 417 OFFCURVE",
"155 341 CURVE SMOOTH",
"155 244 OFFCURVE",
"252 155 OFFCURVE",
"426 149 CURVE",
"494 -61 OFFCURVE",
"601 -143 OFFCURVE",
"701 -143 CURVE SMOOTH",
"769 -143 OFFCURVE",
"824 -105 OFFCURVE",
"824 -42 CURVE SMOOTH",
"824 -20 OFFCURVE",
"817 5 OFFCURVE",
"802 33 CURVE",
"772 23 OFFCURVE",
"746 17 OFFCURVE",
"704 17 CURVE SMOOTH",
"609 17 OFFCURVE",
"548 48 OFFCURVE",
"494 149 CURVE",
"721 157 OFFCURVE",
"886 275 OFFCURVE",
"886 416 CURVE SMOOTH",
"886 451 OFFCURVE",
"876 498 OFFCURVE",
"858 540 CURVE",
"865 548 LINE",
"909 532 OFFCURVE",
"954 523 OFFCURVE",
"997 523 CURVE SMOOTH",
"1040 523 OFFCURVE",
"1087 532 OFFCURVE",
"1132 556 CURVE",
"1132 19 LINE",
"1283 -19 LINE",
"1292 -12 LINE",
"1292 1197 LINE",
"1550 1197 LINE",
"1556 1206 LINE",
"1500 1330 LINE"
);
},
{
closed = 1;
nodes = (
"1132 857 LINE SMOOTH",
"1132 720 OFFCURVE",
"1037 646 OFFCURVE",
"902 646 CURVE SMOOTH",
"855 646 OFFCURVE",
"806 655 OFFCURVE",
"753 682 CURVE SMOOTH",
"704 707 OFFCURVE",
"676 721 OFFCURVE",
"631 721 CURVE SMOOTH",
"565 721 OFFCURVE",
"430 690 OFFCURVE",
"368 690 CURVE SMOOTH",
"299 690 OFFCURVE",
"256 729 OFFCURVE",
"256 790 CURVE SMOOTH",
"256 845 OFFCURVE",
"291 885 OFFCURVE",
"389 885 CURVE SMOOTH",
"764 885 LINE",
"772 893 LINE",
"771.999 1197 LINE",
"1132 1197 LINE"
);
}
);
width = 1500;
},
{
background = {
paths = (
{
closed = 1;
nodes = (
"-36 1330 LINE",
"-53 1307 LINE",
"0 1137 LINE",
"618 1137 LINE",
"618 1056 LINE SMOOTH",
"618 1043 OFFCURVE",
"611 1036 OFFCURVE",
"598 1036 CURVE SMOOTH",
"307 1036 LINE SMOOTH",
"168 1036 OFFCURVE",
"104 972 OFFCURVE",
"104 886 CURVE SMOOTH",
"104 737 OFFCURVE",
"296 502 OFFCURVE",
"500 502 CURVE SMOOTH",
"562 502 OFFCURVE",
"673 524 OFFCURVE",
"713 524 CURVE SMOOTH",
"743 524 OFFCURVE",
"765 511 OFFCURVE",
"765 473 CURVE SMOOTH",
"765 393 OFFCURVE",
"666 305 OFFCURVE",
"473 300 CURVE",
"420 384 OFFCURVE",
"357 437 OFFCURVE",
"273 437 CURVE SMOOTH",
"194 437 OFFCURVE",
"145 389 OFFCURVE",
"145 314 CURVE SMOOTH",
"145 204 OFFCURVE",
"250 99 OFFCURVE",
"437 81 CURVE",
"518 -153 OFFCURVE",
"638 -233 OFFCURVE",
"741 -233 CURVE SMOOTH",
"827 -233 OFFCURVE",
"894 -178 OFFCURVE",
"894 -94 CURVE SMOOTH",
"894 -67 OFFCURVE",
"887 -39 OFFCURVE",
"872 -7 CURVE",
"842 -17 OFFCURVE",
"816 -23 OFFCURVE",
"773 -23 CURVE SMOOTH",
"686 -23 OFFCURVE",
"626 1 OFFCURVE",
"575 80 CURVE",
"793 93 OFFCURVE",
"946 213 OFFCURVE",
"946 373 CURVE SMOOTH",
"946 417 OFFCURVE",
"935 463 OFFCURVE",
"915 508 CURVE",
"922 515 LINE",
"975 494 OFFCURVE",
"1027 483 OFFCURVE",
"1076 483 CURVE SMOOTH",
"1094.95 483 OFFCURVE",
"1113.66 484.667 OFFCURVE",
"1132 488.098 CURVE",
"1132 -21 LINE",
"1350 -57 LINE",
"1372 -39 LINE",
"1372 1137 LINE",
"1596 1137 LINE",
"1613 1160 LINE",
"1560 1330 LINE"
);
},
{
closed = 1;
nodes = (
"1132 877 LINE SMOOTH",
"1132 740 OFFCURVE",
"1034 666 OFFCURVE",
"907 666 CURVE SMOOTH",
"864.964 666 OFFCURVE",
"819.477 674.197 OFFCURVE",
"773.372 691.157 CURVE",
"728.721 724.457 OFFCURVE",
"679.513 745 OFFCURVE",
"631 745 CURVE SMOOTH",
"571 745 OFFCURVE",
"431 714 OFFCURVE",
"390 714 CURVE SMOOTH",
"350 714 OFFCURVE",
"326 743 OFFCURVE",
"326 780 CURVE SMOOTH",
"326 821 OFFCURVE",
"354 845 OFFCURVE",
"469 845 CURVE SMOOTH",
"832 845 LINE",
"852 865 LINE",
"852 1137 LINE",
"1132 1137 LINE"
);
}
);
};
layerId = "29AE4022-23C2-49D3-A156-B9EDF5C2AEE5";
name = Bold;
paths = (
{
closed = 1;
nodes = (
"-36 1330 LINE",
"-53 1307 LINE",
"0 1137 LINE",
"618 1137 LINE",
"618 1046 LINE SMOOTH",
"618 1033 OFFCURVE",
"611 1026 OFFCURVE",
"598 1026 CURVE SMOOTH",
"307 1026 LINE SMOOTH",
"168 1026 OFFCURVE",
"104 962 OFFCURVE",
"104 876 CURVE SMOOTH",
"104 727 OFFCURVE",
"296 492 OFFCURVE",
"500 492 CURVE SMOOTH",
"562 492 OFFCURVE",
"674 514 OFFCURVE",
"712 514 CURVE SMOOTH",
"743 514 OFFCURVE",
"765 499 OFFCURVE",
"765 466 CURVE SMOOTH",
"765 396 OFFCURVE",
"668 326 OFFCURVE",
"473 320 CURVE",
"420 404 OFFCURVE",
"357 457 OFFCURVE",
"273 457 CURVE SMOOTH",
"194 457 OFFCURVE",
"145 409 OFFCURVE",
"145 334 CURVE SMOOTH",
"145 224 OFFCURVE",
"250 119 OFFCURVE",
"437 101 CURVE",
"518 -133 OFFCURVE",
"638 -213 OFFCURVE",
"741 -213 CURVE SMOOTH",
"827 -213 OFFCURVE",
"894 -158 OFFCURVE",
"894 -74 CURVE SMOOTH",
"894 -47 OFFCURVE",
"887 -19 OFFCURVE",
"872 13 CURVE",
"842 3 OFFCURVE",
"816 -3 OFFCURVE",
"773 -3 CURVE SMOOTH",
"686 -3 OFFCURVE",
"626 21 OFFCURVE",
"575 100 CURVE",
"792 113 OFFCURVE",
"946 217 OFFCURVE",
"946 366 CURVE SMOOTH",
"946 406 OFFCURVE",
"935 453 OFFCURVE",
"915 498 CURVE",
"922 505 LINE",
"975 484 OFFCURVE",
"1027 473 OFFCURVE",
"1076 473 CURVE SMOOTH",
"1096 473 OFFCURVE",
"1116 475 OFFCURVE",
"1132 478 CURVE",
"1132 -21 LINE",
"1350 -57 LINE",
"1372 -39 LINE",
"1372 1137 LINE",
"1596 1137 LINE",
"1613 1160 LINE",
"1560 1330 LINE"
);
},
{
closed = 1;
nodes = (
"1132 867 LINE SMOOTH",
"1132 730 OFFCURVE",
"1034 656 OFFCURVE",
"907 656 CURVE SMOOTH",
"868 656 OFFCURVE",
"823 663 OFFCURVE",
"773 681 CURVE",
"728 715 OFFCURVE",
"679 735 OFFCURVE",
"631 735 CURVE SMOOTH",
"571 735 OFFCURVE",
"431 704 OFFCURVE",
"390 704 CURVE SMOOTH",
"350 704 OFFCURVE",
"326 733 OFFCURVE",
"326 770 CURVE SMOOTH",
"326 811 OFFCURVE",
"354 835 OFFCURVE",
"469 835 CURVE SMOOTH",
"832 835 LINE",
"852 855 LINE",
"852 1137 LINE",
"1132 1137 LINE"
);
}
);
width = 1560;
}
);
unicode = 091D;
},
{
glyphname = nyadeva;
lastChange = "2014-07-17 09:14:35 +0530";
layers = (
{
background = {
paths = (
{
closed = 1;
nodes = (
"-50 1330 LINE",
"-56 1321 LINE",
"0 1197 LINE",
"1164 1197 LINE",
"1164 757 LINE SMOOTH",
"1164 647 OFFCURVE",
"1103 616 OFFCURVE",
"1044 616 CURVE SMOOTH",
"1000.45 616 OFFCURVE",
"959.278 632.586 OFFCURVE",
"911.346 684.004 CURVE",
"848.58 843.83 OFFCURVE",
"701.293 964 OFFCURVE",
"550 964 CURVE SMOOTH",
"427 964 OFFCURVE",
"351 885 OFFCURVE",
"351 810 CURVE SMOOTH",
"351 759 OFFCURVE",
"384 710 OFFCURVE",
"452 693 CURVE",
"502 783 OFFCURVE",
"564 812 OFFCURVE",
"635 812 CURVE SMOOTH",
"748 812 OFFCURVE",
"815 738 OFFCURVE",
"815 607 CURVE SMOOTH",
"815 455 OFFCURVE",
"725 327 OFFCURVE",
"549 327 CURVE SMOOTH",
"360 327 OFFCURVE",
"235 473 OFFCURVE",
"173 800 CURVE",
"123 800 OFFCURVE",
"107 768 OFFCURVE",
"107 716 CURVE SMOOTH",
"107 552 OFFCURVE",
"264 165 OFFCURVE",
"598 165 CURVE SMOOTH",
"814 165 OFFCURVE",
"937 317 OFFCURVE",
"942 531 CURVE",
"952 535 LINE",
"1001 484 OFFCURVE",
"1055 453 OFFCURVE",
"1112 453 CURVE SMOOTH",
"1128.93 453 OFFCURVE",
"1146.53 455.64 OFFCURVE",
"1164 460.97 CURVE",
"1164 19 LINE",
"1315 -19 LINE",
"1324 -12 LINE",
"1324 1197 LINE",
"1581 1197 LINE",
"1587 1206 LINE",
"1531 1330 LINE"
);
}
);
};
layerId = "7D009F26-9523-4D0C-936A-45D9328E47A0";
name = Regular;
paths = (
{
closed = 1;
nodes = (
"-50 1330 LINE",
"-56 1321 LINE",
"0 1197 LINE",
"1164 1197 LINE",
"1164 787 LINE SMOOTH",
"1164 677 OFFCURVE",
"1103 646 OFFCURVE",
"1044 646 CURVE SMOOTH",
"1000 646 OFFCURVE",
"959 663 OFFCURVE",
"911 714 CURVE",
"849 874 OFFCURVE",
"701 994 OFFCURVE",
"550 994 CURVE SMOOTH",
"427 994 OFFCURVE",
"351 915 OFFCURVE",
"351 840 CURVE SMOOTH",
"351 789 OFFCURVE",
"384 740 OFFCURVE",
"452 723 CURVE",
"502 813 OFFCURVE",
"564 842 OFFCURVE",
"635 842 CURVE SMOOTH",
"748 842 OFFCURVE",
"815 768 OFFCURVE",
"815 637 CURVE SMOOTH",
"815 485 OFFCURVE",
"725 357 OFFCURVE",
"549 357 CURVE SMOOTH",
"360 357 OFFCURVE",
"235 503 OFFCURVE",
"173 830 CURVE",
"123 830 OFFCURVE",
"107 798 OFFCURVE",
"107 746 CURVE SMOOTH",
"107 582 OFFCURVE",
"264 195 OFFCURVE",
"598 195 CURVE SMOOTH",
"814 195 OFFCURVE",
"937 347 OFFCURVE",
"942 561 CURVE",
"952 565 LINE",
"1001 514 OFFCURVE",
"1055 483 OFFCURVE",
"1112 483 CURVE SMOOTH",
"1129 483 OFFCURVE",
"1147 486 OFFCURVE",
"1164 491 CURVE",
"1164 19 LINE",
"1315 -19 LINE",
"1324 -12 LINE",
"1324 1197 LINE",
"1581 1197 LINE",
"1587 1206 LINE",
"1531 1330 LINE"
);
}
);
width = 1531;
},
{
layerId = "29AE4022-23C2-49D3-A156-B9EDF5C2AEE5";
name = Bold;
paths = (
{
closed = 1;
nodes = (
"-36 1330 LINE",
"-53 1307 LINE",
"0 1137 LINE",
"1174 1137 LINE",
"1174 757 LINE SMOOTH",
"1174 647 OFFCURVE",
"1096 616 OFFCURVE",
"1028 616 CURVE SMOOTH",
"1008.19 616 OFFCURVE",
"990.2 618.656 OFFCURVE",
"972.799 624.933 CURVE",
"901.98 815.922 OFFCURVE",
"717.448 964 OFFCURVE",
"536 964 CURVE SMOOTH",
"404 964 OFFCURVE",
"331 885 OFFCURVE",
"331 810 CURVE SMOOTH",
"331 735 OFFCURVE",
"388 656 OFFCURVE",
"512 633 CURVE",
"551 699 OFFCURVE",
"605 737 OFFCURVE",
"676 737 CURVE SMOOTH",
"748 737 OFFCURVE",
"795 697 OFFCURVE",
"795 597 CURVE SMOOTH",
"795 463 OFFCURVE",
"711 337 OFFCURVE",
"546 337 CURVE SMOOTH",
"364 337 OFFCURVE",
"240 490 OFFCURVE",
"183 830 CURVE",
"102 830 OFFCURVE",
"81 787 OFFCURVE",
"81 713 CURVE SMOOTH",
"81 496 OFFCURVE",
"266 115 OFFCURVE",
"642 115 CURVE SMOOTH",
"877 115 OFFCURVE",
"994 265 OFFCURVE",
"1003 441 CURVE",
"1012 446 LINE",
"1062 413 OFFCURVE",
"1114 393 OFFCURVE",
"1171 393 CURVE SMOOTH",
"1174 393.019 LINE",
"1174 -21 LINE",
"1392 -57 LINE",
"1414 -39 LINE",
"1414 1137 LINE",
"1637 1137 LINE",
"1654 1160 LINE",
"1601 1330 LINE"
);
}
);
width = 1601;
}
);
unicode = 091E;
},
{
glyphname = ttadeva;
lastChange = "2014-07-16 18:35:05 +0530";
layers = (
{
layerId = "7D009F26-9523-4D0C-936A-45D9328E47A0";
name = Regular;
paths = (
{
closed = 1;
nodes = (
"-50 1330 LINE",
"-56 1321 LINE",
"0 1197 LINE",
"638 1197 LINE",
"638 974 LINE SMOOTH",
"638 969 OFFCURVE",
"635 966 OFFCURVE",
"630 966 CURVE SMOOTH",
"507 966 LINE SMOOTH",
"215 966 OFFCURVE",
"51 800 OFFCURVE",
"51 593 CURVE SMOOTH",
"51 346 OFFCURVE",
"285 91 OFFCURVE",
"577 91 CURVE SMOOTH",
"779 91 OFFCURVE",
"936 201 OFFCURVE",
"936 320 CURVE SMOOTH",
"936 376 OFFCURVE",
"906 416 OFFCURVE",
"851 435 CURVE",
"799 308 OFFCURVE",
"668 222 OFFCURVE",
"512 222 CURVE SMOOTH",
"310 222 OFFCURVE",
"199 366 OFFCURVE",
"199 525 CURVE SMOOTH",
"199 687 OFFCURVE",
"334 819 OFFCURVE",
"563 819 CURVE SMOOTH",
"784 819 LINE",
"792 827 LINE",
"792 1197 LINE",
"1058 1197 LINE",
"1064 1206 LINE",
"1008 1330 LINE"
);
}
);
width = 1008;
},
{
layerId = "29AE4022-23C2-49D3-A156-B9EDF5C2AEE5";
name = Bold;
paths = (
{
closed = 1;
nodes = (
"-36 1330 LINE",
"-53 1307 LINE",
"0 1137 LINE",
"638 1137 LINE",
"638 987 LINE SMOOTH",
"638 974 OFFCURVE",
"631 967 OFFCURVE",
"618 967 CURVE SMOOTH",
"507 967 LINE SMOOTH",
"215 967 OFFCURVE",
"51 804 OFFCURVE",
"51 587 CURVE SMOOTH",
"51 298 OFFCURVE",
"345 31 OFFCURVE",
"651 31 CURVE SMOOTH",
"857 31 OFFCURVE",
"1006 141 OFFCURVE",
"1006 260 CURVE SMOOTH",
"1006 346 OFFCURVE",
"931 416 OFFCURVE",
"851 435 CURVE",
"802 310 OFFCURVE",
"662 222 OFFCURVE",
"522 222 CURVE SMOOTH",
"385 222 OFFCURVE",
"279 306 OFFCURVE",
"279 465 CURVE SMOOTH",
"279 627 OFFCURVE",
"414 759 OFFCURVE",
"643 759 CURVE SMOOTH",
"852 759 LINE",
"872 779 LINE",
"872 1137 LINE",
"1104 1137 LINE",
"1121 1160 LINE",
"1068 1330 LINE"
);
}
);
width = 1068;
}
);
unicode = 091F;
},
{
glyphname = tthadeva;
lastChange = "2014-07-21 07:31:24 +0530";
layers = (
{
layerId = "7D009F26-9523-4D0C-936A-45D9328E47A0";
name = Regular;
paths = (
{
closed = 1;
nodes = (
"-50 1330 LINE",
"-56 1321 LINE",
"0 1197 LINE",
"618 1197 LINE",
"618 974 LINE SMOOTH",
"618 969 OFFCURVE",
"615 966 OFFCURVE",
"610 966 CURVE SMOOTH",
"493 966 LINE SMOOTH",
"227 966 OFFCURVE",
"67 793 OFFCURVE",
"67 588 CURVE SMOOTH",
"67 336 OFFCURVE",
"308 81 OFFCURVE",
"601 81 CURVE SMOOTH",
"836 81 OFFCURVE",
"1015 246 OFFCURVE",
"1015 477 CURVE SMOOTH",
"1015 632 OFFCURVE",
"916 790 OFFCURVE",
"772 885 CURVE",
"772 1197 LINE",
"1188 1197 LINE",
"1194 1206 LINE",
"1138 1330 LINE"
);
},
{
closed = 1;
nodes = (
"784 819 OFFCURVE",
"875 685 OFFCURVE",
"875 545 CURVE SMOOTH",
"875 341 OFFCURVE",
"709 212 OFFCURVE",
"530 212 CURVE SMOOTH",
"341 212 OFFCURVE",
"209 356 OFFCURVE",
"209 515 CURVE SMOOTH",
"209 683 OFFCURVE",
"340 819 OFFCURVE",
"563 819 CURVE SMOOTH"
);
}
);
width = 1138;
},
{
layerId = "29AE4022-23C2-49D3-A156-B9EDF5C2AEE5";
name = Bold;
paths = (
{
closed = 1;
nodes = (
"-36 1330 LINE",
"-53 1307 LINE",
"0 1137 LINE",
"618 1137 LINE",
"618 986 LINE SMOOTH",
"618 973 OFFCURVE",
"611 966 OFFCURVE",
"598 966 CURVE SMOOTH",
"493 966 LINE SMOOTH",
"227 966 OFFCURVE",
"67 800 OFFCURVE",
"67 578 CURVE SMOOTH",
"67 278 OFFCURVE",
"358 21 OFFCURVE",
"671 21 CURVE SMOOTH",
"921 21 OFFCURVE",
"1095 186 OFFCURVE",
"1095 417 CURVE SMOOTH",
"1095 588 OFFCURVE",
"992 743 OFFCURVE",
"852 846 CURVE",
"852 1137 LINE",
"1234 1137 LINE",
"1251 1160 LINE",
"1198 1330 LINE"
);
},
{
closed = 1;
nodes = (
"756 759 OFFCURVE",
"872 678.905 OFFCURVE",
"872 525 CURVE SMOOTH",
"872 352 OFFCURVE",
"712 212 OFFCURVE",
"539 212 CURVE SMOOTH",
"405 212 OFFCURVE",
"289 296 OFFCURVE",
"289 459 CURVE SMOOTH",
"289 626 OFFCURVE",
"428 761 OFFCURVE",
"621 760 CURVE SMOOTH"
);
}
);
width = 1198;
}
);
unicode = 0920;
},
{
color = 1;
glyphname = ddadeva;
lastChange = "2014-07-18 07:13:49 +0530";
layers = (
{
background = {
paths = (
{
closed = 1;
nodes = (
"-50 1330 LINE",
"-56 1321 LINE",
"0 1197 LINE",
"708 1197 LINE",
"708 1054 LINE SMOOTH",
"708 1049 OFFCURVE",
"705 1046 OFFCURVE",
"700 1046 CURVE SMOOTH",
"377 1046 LINE SMOOTH",
"245 1046 OFFCURVE",
"184 982 OFFCURVE",
"184 892 CURVE SMOOTH",
"184 741 OFFCURVE",
"358 542 OFFCURVE",
"526 542 CURVE SMOOTH",
"575 542 OFFCURVE",
"692 559 OFFCURVE",
"739 559 CURVE SMOOTH",
"818 559 OFFCURVE",
"845 510 OFFCURVE",
"845 449 CURVE SMOOTH",
"845 319 OFFCURVE",
"723 225 OFFCURVE",
"586 225 CURVE SMOOTH",
"416 225 OFFCURVE",
"250 355 OFFCURVE",
"133 616 CURVE",
"102 600 OFFCURVE",
"89 574 OFFCURVE",
"91 535 CURVE SMOOTH",
"97 402 OFFCURVE",
"316 69 OFFCURVE",
"644 69 CURVE SMOOTH",
"825 69 OFFCURVE",
"950 193 OFFCURVE",
"950 372 CURVE SMOOTH",
"950 562 OFFCURVE",
"810 721 OFFCURVE",
"666 721 CURVE SMOOTH",
"614 721 OFFCURVE",
"502 700 OFFCURVE",
"444 700 CURVE SMOOTH",
"360 700 OFFCURVE",
"316 743 OFFCURVE",
"316 807 CURVE SMOOTH",
"316 865 OFFCURVE",
"352 905 OFFCURVE",
"459 905 CURVE SMOOTH",
"854 905 LINE",
"862 913 LINE",
"862 1197 LINE",
"1102 1197 LINE",
"1108 1206 LINE",
"1052 1330 LINE"
);
}
);
};
layerId = "7D009F26-9523-4D0C-936A-45D9328E47A0";
name = Regular;
paths = (
{
closed = 1;
nodes = (
"-50 1330 LINE",
"-56 1321 LINE",
"0 1197 LINE",
"708 1197 LINE",
"708 1034 LINE SMOOTH",
"708 1029 OFFCURVE",
"705 1026 OFFCURVE",
"700 1026 CURVE SMOOTH",
"377 1026 LINE SMOOTH",
"245 1026 OFFCURVE",
"184 962 OFFCURVE",
"184 872 CURVE SMOOTH",
"184 721 OFFCURVE",
"358 522 OFFCURVE",
"526 522 CURVE SMOOTH",
"575 522 OFFCURVE",
"693 539 OFFCURVE",
"739 539 CURVE SMOOTH",
"818 539 OFFCURVE",
"845 488 OFFCURVE",
"845 435 CURVE SMOOTH",
"845 325 OFFCURVE",
"728 255 OFFCURVE",
"596 255 CURVE SMOOTH",
"424 255 OFFCURVE",
"254 374 OFFCURVE",
"133 616 CURVE",
"103 601 OFFCURVE",
"88 572 OFFCURVE",
"91 535 CURVE SMOOTH",
"101 411 OFFCURVE",
"320 99 OFFCURVE",
"648 99 CURVE SMOOTH",
"837 99 OFFCURVE",
"950 202 OFFCURVE",
"950 361 CURVE SMOOTH",
"950 537 OFFCURVE",
"810 701 OFFCURVE",
"666 701 CURVE SMOOTH",
"614 701 OFFCURVE",
"502 680 OFFCURVE",
"444 680 CURVE SMOOTH",
"360 680 OFFCURVE",
"316 723 OFFCURVE",
"316 787 CURVE SMOOTH",
"316 845 OFFCURVE",
"352 885 OFFCURVE",
"459 885 CURVE SMOOTH",
"854 885 LINE",
"862 893 LINE",
"862 1197 LINE",
"1102 1197 LINE",
"1108 1206 LINE",
"1052 1330 LINE"
);
}
);
width = 1052;
},
{
background = {
paths = (
{
closed = 1;
nodes = (
"-56 1330 LINE",
"-73 1307 LINE",
"-20 1137 LINE",
"688 1137 LINE",
"688 1046 LINE SMOOTH",
"688 1033 OFFCURVE",
"681 1026 OFFCURVE",
"668 1026 CURVE SMOOTH",
"357 1026 LINE SMOOTH",
"225 1026 OFFCURVE",
"164 975 OFFCURVE",
"164 882 CURVE SMOOTH",
"164 701 OFFCURVE",
"392 472 OFFCURVE",
"581 472 CURVE SMOOTH",
"633 472 OFFCURVE",
"729 489 OFFCURVE",
"766 489 CURVE SMOOTH",
"808 489 OFFCURVE",
"825 467 OFFCURVE",
"825 427 CURVE SMOOTH",
"825 320 OFFCURVE",
"704 225 OFFCURVE",
"566 225 CURVE SMOOTH",
"404 225 OFFCURVE",
"244 361 OFFCURVE",
"133 636 CURVE",
"87 615 OFFCURVE",
"71 585 OFFCURVE",
"71 538 CURVE SMOOTH",
"71 334 OFFCURVE",
"366 9 OFFCURVE",
"684 9 CURVE SMOOTH",
"877 9 OFFCURVE",
"1010 131 OFFCURVE",
"1010 298 CURVE SMOOTH",
"1010 492 OFFCURVE",
"830 711 OFFCURVE",
"651 711 CURVE SMOOTH",
"596 711 OFFCURVE",
"481 690 OFFCURVE",
"442 690 CURVE SMOOTH",
"398 690 OFFCURVE",
"376 718 OFFCURVE",
"376 755 CURVE SMOOTH",
"376 802 OFFCURVE",
"410 835 OFFCURVE",
"519 835 CURVE SMOOTH",
"902 835 LINE",
"922 855 LINE",
"922 1137 LINE",
"1128 1137 LINE",
"1145 1160 LINE",
"1092 1330 LINE"
);
}
);
};
layerId = "29AE4022-23C2-49D3-A156-B9EDF5C2AEE5";
name = Bold;
paths = (
{
closed = 1;
nodes = (
"-36 1330 LINE",
"-53 1307 LINE",
"0 1137 LINE",
"708 1137 LINE",
"708 1046 LINE SMOOTH",
"708 1033 OFFCURVE",
"701 1026 OFFCURVE",
"688 1026 CURVE SMOOTH",
"357 1026 LINE SMOOTH",
"225 1026 OFFCURVE",
"164 968 OFFCURVE",
"164 879 CURVE SMOOTH",
"164 710 OFFCURVE",
"381 472 OFFCURVE",
"581 472 CURVE SMOOTH",
"635 472 OFFCURVE",
"739 489 OFFCURVE",
"773 489 CURVE SMOOTH",
"817 489 OFFCURVE",
"830 460 OFFCURVE",
"830 425 CURVE SMOOTH",
"830 330 OFFCURVE",
"735 270 OFFCURVE",
"615 270 CURVE SMOOTH",
"440 270 OFFCURVE",
"266 397 OFFCURVE",
"143 636 CURVE",
"99 619 OFFCURVE",
"67 589 OFFCURVE",
"71 535 CURVE SMOOTH",
"81 398 OFFCURVE",
"324 39 OFFCURVE",
"694 39 CURVE SMOOTH",
"886 39 OFFCURVE",
"1020 136 OFFCURVE",
"1020 319 CURVE SMOOTH",
"1020 517 OFFCURVE",
"863 716 OFFCURVE",
"691 716 CURVE SMOOTH",
"647 716 OFFCURVE",
"530 703 OFFCURVE",
"477 703 CURVE SMOOTH",
"402 703 OFFCURVE",
"376 729 OFFCURVE",
"376 773 CURVE SMOOTH",
"376 823 OFFCURVE",
"409 855 OFFCURVE",
"519 855 CURVE SMOOTH",
"922 855 LINE",
"942 875 LINE",
"942 1137 LINE",
"1148 1137 LINE",
"1165 1160 LINE",
"1112 1330 LINE"
);
}
);
width = 1112;
}
);
unicode = 0921;
},
{
glyphname = ddhadeva;
lastChange = "2014-07-16 18:35:34 +0530";
layers = (
{
layerId = "7D009F26-9523-4D0C-936A-45D9328E47A0";
name = Regular;
paths = (
{
closed = 1;
nodes = (
"-50 1330 LINE",
"-56 1321 LINE",
"0 1197 LINE",
"638 1197 LINE",
"638 984 LINE SMOOTH",
"638 979 OFFCURVE",
"635 976 OFFCURVE",
"630 976 CURVE SMOOTH",
"512 976 LINE SMOOTH",
"221 976 OFFCURVE",
"57 807 OFFCURVE",
"57 593 CURVE SMOOTH",
"57 330 OFFCURVE",
"304 61 OFFCURVE",
"591 61 CURVE SMOOTH",
"795 61 OFFCURVE",
"952 197 OFFCURVE",
"952 365 CURVE SMOOTH",
"952 527 OFFCURVE",
"837 655 OFFCURVE",
"690 655 CURVE SMOOTH",
"580 655 OFFCURVE",
"499 583 OFFCURVE",
"499 464 CURVE SMOOTH",
"499 382.025 OFFCURVE",
"538.082 297.992 OFFCURVE",
"631.573 204.523 CURVE",
"600.135 196.468 OFFCURVE",
"566.369 192 OFFCURVE",
"531 192 CURVE SMOOTH",
"319 192 OFFCURVE",
"199 351 OFFCURVE",
"199 525 CURVE SMOOTH",
"199 693 OFFCURVE",
"334 829 OFFCURVE",
"563 829 CURVE SMOOTH",
"784 829 LINE",
"792 837 LINE",
"792 1197 LINE",
"1058 1197 LINE",
"1064 1206 LINE",
"1008 1330 LINE"
);
},
{
closed = 1;
nodes = (
"808 531 OFFCURVE",
"851 489 OFFCURVE",
"851 425 CURVE SMOOTH",
"851 351.877 OFFCURVE",
"795.766 278.358 OFFCURVE",
"709.596 233.997 CURVE",
"658.097 299.446 OFFCURVE",
"637 352.678 OFFCURVE",
"637 403 CURVE SMOOTH",
"637 476 OFFCURVE",
"690 531 OFFCURVE",
"753 531 CURVE SMOOTH"
);
}
);
width = 1008;
},
{
layerId = "29AE4022-23C2-49D3-A156-B9EDF5C2AEE5";
name = Bold;
paths = (
{
closed = 1;
nodes = (
"-36 1330 LINE",
"-53 1307 LINE",
"0 1137 LINE",
"638 1137 LINE",
"638 996 LINE SMOOTH",
"638 983 OFFCURVE",
"631 976 OFFCURVE",
"618 976 CURVE SMOOTH",
"512 976 LINE SMOOTH",
"221 976 OFFCURVE",
"57 811 OFFCURVE",
"57 586 CURVE SMOOTH",
"57 276 OFFCURVE",
"366 1 OFFCURVE",
"664 1 CURVE SMOOTH",
"873 1 OFFCURVE",
"1022 137 OFFCURVE",
"1022 305 CURVE SMOOTH",
"1022 462 OFFCURVE",
"868 645 OFFCURVE",
"698 645 CURVE SMOOTH",
"591 645 OFFCURVE",
"509 573 OFFCURVE",
"509 453 CURVE SMOOTH",
"509 357.756 OFFCURVE",
"560.153 275.3 OFFCURVE",
"631.579 203.702 CURVE",
"602.902 196.165 OFFCURVE",
"572.754 192 OFFCURVE",
"542 192 CURVE SMOOTH",
"393 192 OFFCURVE",
"279 291 OFFCURVE",
"279 465 CURVE SMOOTH",
"279 633 OFFCURVE",
"414 769 OFFCURVE",
"643 769 CURVE SMOOTH",
"852 769 LINE",
"872 789 LINE",
"872 1137 LINE",
"1124 1137 LINE",
"1141 1160 LINE",
"1088 1330 LINE"
);
},
{
closed = 1;
nodes = (
"830 481 OFFCURVE",
"851 459 OFFCURVE",
"851 425 CURVE SMOOTH",
"851 359.897 OFFCURVE",
"805.012 294.478 OFFCURVE",
"735.841 249.605 CURVE",
"715.84 286.724 OFFCURVE",
"707 320.414 OFFCURVE",
"707 353 CURVE SMOOTH",
"707 427 OFFCURVE",
"751 481 OFFCURVE",
"801 481 CURVE SMOOTH"
);
}
);
width = 1088;
}
);
unicode = 0922;
},
{
glyphname = nnadeva;
lastChange = "2014-07-17 09:34:23 +0530";
layers = (
{
background = {
paths = (
{
closed = 1;
nodes = (
"-50 1330 LINE",
"-56 1321 LINE",
"0 1197 LINE",
"129 1197 LINE",
"129 725 LINE SMOOTH",
"129 507 OFFCURVE",
"330 321 OFFCURVE",
"530 321 CURVE SMOOTH",
"688 321 OFFCURVE",
"809 438 OFFCURVE",
"809 601 CURVE SMOOTH",
"809 1197 LINE",
"1054 1197 LINE",
"1054 19 LINE",
"1205 -19 LINE",
"1214 -12 LINE",
"1214 1197 LINE",
"1471 1197 LINE",
"1477 1206 LINE",
"1421 1330 LINE"
);
},
{
closed = 1;
nodes = (
"654 670 LINE SMOOTH",
"654 525 OFFCURVE",
"569 443 OFFCURVE",
"462 443 CURVE SMOOTH",
"366 443 OFFCURVE",
"289 509 OFFCURVE",
"289 640 CURVE SMOOTH",
"289 1197 LINE",
"654 1197 LINE"
);
}
);
};
layerId = "7D009F26-9523-4D0C-936A-45D9328E47A0";
name = Regular;
paths = (
{
closed = 1;
nodes = (
"-50 1330 LINE",
"-56 1321 LINE",
"0 1197 LINE",
"129 1197 LINE",
"129 755 LINE SMOOTH",
"129 537 OFFCURVE",
"330 351 OFFCURVE",
"530 351 CURVE SMOOTH",
"688 351 OFFCURVE",
"809 468 OFFCURVE",
"809 631 CURVE SMOOTH",
"809 1197 LINE",
"1054 1197 LINE",
"1054 19 LINE",
"1205 -19 LINE",
"1214 -12 LINE",
"1214 1197 LINE",
"1471 1197 LINE",
"1477 1206 LINE",
"1421 1330 LINE"
);
},
{
closed = 1;
nodes = (
"654 700 LINE SMOOTH",
"654 555 OFFCURVE",
"569 473 OFFCURVE",
"462 473 CURVE SMOOTH",
"366 473 OFFCURVE",
"289 539 OFFCURVE",
"289 670 CURVE SMOOTH",
"289 1197 LINE",
"654 1197 LINE"
);
}
);
width = 1421;
},
{
background = {
paths = (
{
closed = 1;
nodes = (
"-36 1330 LINE",
"-53 1307 LINE",
"0 1137 LINE",
"129 1137 LINE",
"129 725 LINE SMOOTH",
"129 486 OFFCURVE",
"345 281 OFFCURVE",
"567 281 CURVE SMOOTH",
"736 281 OFFCURVE",
"869 398 OFFCURVE",
"869 561 CURVE SMOOTH",
"869 1137 LINE",
"1054 1137 LINE",
"1054 -21 LINE",
"1262 -57 LINE",
"1284 -39 LINE",
"1284 1137 LINE",
"1507 1137 LINE",
"1524 1160 LINE",
"1471 1330 LINE"
);
},
{
closed = 1;
nodes = (
"654 670 LINE SMOOTH",
"654 537 OFFCURVE",
"582 463 OFFCURVE",
"486 463 CURVE SMOOTH",
"409 463 OFFCURVE",
"349 512 OFFCURVE",
"349 600 CURVE SMOOTH",
"349 1137 LINE",
"654 1137 LINE"
);
}
);
};
layerId = "29AE4022-23C2-49D3-A156-B9EDF5C2AEE5";
name = Bold;
paths = (
{
closed = 1;
nodes = (
"-36 1330 LINE",
"-53 1307 LINE",
"0 1137 LINE",
"129 1137 LINE",
"129 755 LINE SMOOTH",
"129 516 OFFCURVE",
"345 311 OFFCURVE",
"567 311 CURVE SMOOTH",
"736 311 OFFCURVE",
"869 428 OFFCURVE",
"869 591 CURVE SMOOTH",
"869 1137 LINE",
"1054 1137 LINE",
"1054 -21 LINE",
"1262 -57 LINE",
"1284 -39 LINE",
"1284 1137 LINE",
"1507 1137 LINE",
"1524 1160 LINE",
"1471 1330 LINE"
);
},
{
closed = 1;
nodes = (
"654 700 LINE SMOOTH",
"654 567 OFFCURVE",
"582 493 OFFCURVE",
"486 493 CURVE SMOOTH",
"409 493 OFFCURVE",
"349 542 OFFCURVE",
"349 630 CURVE SMOOTH",
"349 1137 LINE",
"654 1137 LINE"
);
}
);
width = 1471;
}
);
unicode = 0923;
},
{
glyphname = tadeva;
lastChange = "2014-07-17 10:54:00 +0530";
layers = (
{
background = {
paths = (
{
closed = 1;
nodes = (
"-50 1330 LINE",
"-56 1321 LINE",
"0 1197 LINE",
"874 1197 LINE",
"874 893 LINE",
"416 893 LINE SMOOTH",
"230 893 OFFCURVE",
"136 793 OFFCURVE",
"136 623 CURVE SMOOTH",
"136 321 OFFCURVE",
"423 -18 OFFCURVE",
"530 -18 CURVE SMOOTH",
"551 -18 OFFCURVE",
"573 -5 OFFCURVE",
"583 20 CURVE",
"400 176 OFFCURVE",
"285 395 OFFCURVE",
"285 558 CURVE SMOOTH",
"285 668 OFFCURVE",
"339 748 OFFCURVE",
"488 748 CURVE SMOOTH",
"874 748 LINE",
"874 19 LINE",
"1025 -19 LINE",
"1034 -12 LINE",
"1034 1197 LINE",
"1291 1197 LINE",
"1297 1206 LINE",
"1241 1330 LINE"
);
}
);
};
layerId = "7D009F26-9523-4D0C-936A-45D9328E47A0";
name = Regular;
paths = (
{
closed = 1;
nodes = (
"-50 1330 LINE",
"-56 1321 LINE",
"0 1197 LINE",
"874 1197 LINE",
"874 923 LINE",
"416 923 LINE SMOOTH",
"230 923 OFFCURVE",
"136 808 OFFCURVE",
"136 629 CURVE SMOOTH",
"136 317 OFFCURVE",
"423 -18 OFFCURVE",
"530 -18 CURVE SMOOTH",
"551 -18 OFFCURVE",
"573 -5 OFFCURVE",
"583 20 CURVE",
"398 179 OFFCURVE",
"285 392 OFFCURVE",
"285 564 CURVE SMOOTH",
"285 683 OFFCURVE",
"339 778 OFFCURVE",
"488 778 CURVE SMOOTH",
"874 778 LINE",
"874 19 LINE",
"1025 -19 LINE",
"1034 -12 LINE",
"1034 1197 LINE",
"1291 1197 LINE",
"1297 1206 LINE",
"1241 1330 LINE"
);
}
);
width = 1241;
},
{
background = {
paths = (
{
closed = 1;
nodes = (
"1354 1160 LINE",
"1301 1330 LINE",
"-36 1330 LINE",
"-53 1307 LINE",
"0 1137 LINE",
"874 1137 LINE",
"874 893 LINE",
"416 893 LINE SMOOTH",
"230 893 OFFCURVE",
"136 794 OFFCURVE",
"136 620 CURVE SMOOTH",
"136 314 OFFCURVE",
"425 -68 OFFCURVE",
"586 -68 CURVE SMOOTH",
"623 -68 OFFCURVE",
"653 -47 OFFCURVE",
"663 -10 CURVE",
"478 139 OFFCURVE",
"365 344 OFFCURVE",
"365 500 CURVE SMOOTH",
"365 607 OFFCURVE",
"419 688 OFFCURVE",
"568 688 CURVE SMOOTH",
"874 688 LINE",
"874 -21 LINE",
"1092 -57 LINE",
"1114 -39 LINE",
"1114 1137 LINE",
"1337 1137 LINE"
);
}
);
};
layerId = "29AE4022-23C2-49D3-A156-B9EDF5C2AEE5";
name = Bold;
paths = (
{
closed = 1;
nodes = (
"1354 1160 LINE",
"1301 1330 LINE",
"-36 1330 LINE",
"-53 1307 LINE",
"0 1137 LINE",
"874 1137 LINE",
"874 923 LINE",
"416 923 LINE SMOOTH",
"230 923 OFFCURVE",
"136 808 OFFCURVE",
"136 627 CURVE SMOOTH",
"136 310 OFFCURVE",
"425 -68 OFFCURVE",
"586 -68 CURVE SMOOTH",
"623 -68 OFFCURVE",
"653 -47 OFFCURVE",
"663 -10 CURVE",
"477 141 OFFCURVE",
"365 340 OFFCURVE",
"365 506 CURVE SMOOTH",
"365 622 OFFCURVE",
"419 718 OFFCURVE",
"568 718 CURVE SMOOTH",
"874 718 LINE",
"874 -21 LINE",
"1092 -57 LINE",
"1114 -39 LINE",
"1114 1137 LINE",
"1337 1137 LINE"
);
}
);
width = 1301;
}
);
unicode = 0924;
},
